M48
;DRILL file {KiCad 4.0.2-stable} date 2017年04月18日 星期二 05:20:08
;FORMAT={-:-/ absolute / metric / decimal}
FMAT,2
METRIC,TZ
T1C0.400
T2C1.016
%
G90
G05
M71
T1
X117.25Y-129.675
X117.375Y-91.85
X128.4Y-90.
X128.4Y-131.425
X134.975Y-129.675
X135.125Y-91.75
X141.95Y-103.1
X143.625Y-123.025
X143.95Y-107.675
X144.55Y-109.2
X145.225Y-110.85
X146.075Y-131.475
X146.15Y-89.9
X146.225Y-103.875
X147.325Y-103.175
X150.15Y-115.15
X150.5Y-108.075
X152.625Y-129.675
X152.825Y-91.7
X153.575Y-103.525
X154.254Y-105.021
X155.Y-124.15
X155.95Y-113.75
X155.971Y-107.121
X157.075Y-113.925
X157.6Y-107.7
X157.85Y-101.825
X158.429Y-106.505
X158.9Y-123.025
X158.995Y-107.07
X159.736Y-107.373
X160.325Y-106.825
X160.5Y-97.925
X161.175Y-115.2
X161.575Y-118.15
X161.975Y-114.775
X163.3Y-115.275
X163.475Y-123.025
X163.725Y-131.425
X163.85Y-89.9
X163.85Y-107.125
X164.115Y-108.54
X164.475Y-107.825
X164.87Y-109.165
X169.725Y-110.625
X169.725Y-112.225
X169.975Y-97.925
X170.25Y-129.675
X170.3Y-107.075
X170.3Y-108.675
X170.5Y-91.7
X181.35Y-131.45
X181.525Y-89.875
X182.875Y-96.45
X185.025Y-113.475
X185.025Y-114.975
X185.2Y-105.25
X187.55Y-105.875
X187.775Y-111.
X188.6Y-108.475
T2
X120.72Y-91.825
X120.745Y-129.65
X123.26Y-88.225
X123.26Y-91.825
X123.285Y-129.65
X123.285Y-133.225
X125.8Y-88.225
X125.8Y-91.825
X125.825Y-129.65
X125.825Y-133.225
X138.45Y-129.675
X138.506Y-91.694
X140.99Y-129.675
X141.01Y-133.25
X141.046Y-91.694
X141.059Y-88.113
X143.53Y-129.675
X143.55Y-133.25
X143.586Y-91.694
X143.599Y-88.113
X156.1Y-129.65
X156.225Y-91.675
X158.64Y-129.65
X158.66Y-133.225
X158.765Y-91.675
X158.775Y-88.1
X161.18Y-129.65
X161.2Y-133.225
X161.305Y-91.675
X161.315Y-88.1
X173.725Y-129.675
X173.875Y-91.675
X176.26Y-133.25
X176.265Y-129.675
X176.415Y-91.675
X176.425Y-88.1
X178.8Y-133.25
X178.805Y-129.675
X178.955Y-91.675
X178.965Y-88.1
X192.025Y-107.145
X192.025Y-109.685
X192.025Y-112.225
X192.025Y-114.765
T0
M30
