G04 #@! TF.FileFunction,Legend,Bot*
%FSLAX46Y46*%
G04 Gerber Fmt 4.6, Leading zero omitted, Abs format (unit mm)*
G04 Created by KiCad (PCBNEW 4.0.2-stable) date 2017年04月18日 星期二 05:20:49*
%MOMM*%
G01*
G04 APERTURE LIST*
%ADD10C,0.100000*%
%ADD11C,0.300000*%
G04 APERTURE END LIST*
D10*
D11*
X165282143Y-110682143D02*
X164996429Y-110777381D01*
X164901190Y-110872619D01*
X164805952Y-111063095D01*
X164805952Y-111348810D01*
X164901190Y-111539286D01*
X164996429Y-111634524D01*
X165186905Y-111729762D01*
X165948810Y-111729762D01*
X165948810Y-109729762D01*
X165282143Y-109729762D01*
X165091667Y-109825000D01*
X164996429Y-109920238D01*
X164901190Y-110110714D01*
X164901190Y-110301190D01*
X164996429Y-110491667D01*
X165091667Y-110586905D01*
X165282143Y-110682143D01*
X165948810Y-110682143D01*
X163948810Y-111729762D02*
X163948810Y-110396429D01*
X163948810Y-110777381D02*
X163853571Y-110586905D01*
X163758333Y-110491667D01*
X163567857Y-110396429D01*
X163377381Y-110396429D01*
X161948810Y-111634524D02*
X162139286Y-111729762D01*
X162520238Y-111729762D01*
X162710715Y-111634524D01*
X162805953Y-111444048D01*
X162805953Y-110682143D01*
X162710715Y-110491667D01*
X162520238Y-110396429D01*
X162139286Y-110396429D01*
X161948810Y-110491667D01*
X161853572Y-110682143D01*
X161853572Y-110872619D01*
X162805953Y-111063095D01*
X160996429Y-110396429D02*
X160996429Y-111729762D01*
X160996429Y-110586905D02*
X160901190Y-110491667D01*
X160710714Y-110396429D01*
X160425000Y-110396429D01*
X160234524Y-110491667D01*
X160139286Y-110682143D01*
X160139286Y-111729762D01*
X159472619Y-110396429D02*
X158710714Y-110396429D01*
X159186905Y-109729762D02*
X159186905Y-111444048D01*
X159091666Y-111634524D01*
X158901190Y-111729762D01*
X158710714Y-111729762D01*
X155567857Y-111729762D02*
X156520238Y-111729762D01*
X156520238Y-109729762D01*
X154901190Y-111729762D02*
X154901190Y-110396429D01*
X154901190Y-109729762D02*
X154996428Y-109825000D01*
X154901190Y-109920238D01*
X154805951Y-109825000D01*
X154901190Y-109729762D01*
X154901190Y-109920238D01*
M02*
