G04 #@! TF.FileFunction,Copper,L2,Bot,Signal*
%FSLAX46Y46*%
G04 Gerber Fmt 4.6, Leading zero omitted, Abs format (unit mm)*
G04 Created by KiCad (PCBNEW 4.0.2-stable) date 2017年04月18日 星期二 03:54:15*
%MOMM*%
G01*
G04 APERTURE LIST*
%ADD10C,0.100000*%
%ADD11R,2.032000X2.032000*%
%ADD12O,2.032000X2.032000*%
%ADD13R,2.032000X1.727200*%
%ADD14O,2.032000X1.727200*%
%ADD15R,1.727200X2.032000*%
%ADD16O,1.727200X2.032000*%
%ADD17C,0.600000*%
%ADD18C,0.250000*%
%ADD19C,0.500000*%
%ADD20C,0.254000*%
G04 APERTURE END LIST*
D10*
D11*
X123260000Y-88225000D03*
D12*
X125800000Y-88225000D03*
D11*
X141058900Y-88112600D03*
D12*
X143598900Y-88112600D03*
D11*
X158775000Y-88100000D03*
D12*
X161315000Y-88100000D03*
D11*
X176425000Y-88100000D03*
D12*
X178965000Y-88100000D03*
D11*
X123285000Y-133225000D03*
D12*
X125825000Y-133225000D03*
D11*
X141010000Y-133250000D03*
D12*
X143550000Y-133250000D03*
D11*
X158660000Y-133225000D03*
D12*
X161200000Y-133225000D03*
D11*
X176260000Y-133250000D03*
D12*
X178800000Y-133250000D03*
D13*
X192025000Y-114765000D03*
D14*
X192025000Y-112225000D03*
X192025000Y-109685000D03*
X192025000Y-107145000D03*
D15*
X120720000Y-91825000D03*
D16*
X123260000Y-91825000D03*
X125800000Y-91825000D03*
D15*
X138506200Y-91694000D03*
D16*
X141046200Y-91694000D03*
X143586200Y-91694000D03*
D15*
X156225000Y-91675000D03*
D16*
X158765000Y-91675000D03*
X161305000Y-91675000D03*
D15*
X173875000Y-91675000D03*
D16*
X176415000Y-91675000D03*
X178955000Y-91675000D03*
D15*
X120745000Y-129650000D03*
D16*
X123285000Y-129650000D03*
X125825000Y-129650000D03*
D15*
X138450000Y-129675000D03*
D16*
X140990000Y-129675000D03*
X143530000Y-129675000D03*
D15*
X156100000Y-129650000D03*
D16*
X158640000Y-129650000D03*
X161180000Y-129650000D03*
D15*
X173725000Y-129675000D03*
D16*
X176265000Y-129675000D03*
X178805000Y-129675000D03*
D17*
X158429136Y-106504762D03*
X155970549Y-107120549D03*
X170300000Y-108675000D03*
X170300000Y-107075000D03*
X164475000Y-107825000D03*
X155950000Y-113750000D03*
X157850000Y-101825000D03*
X153575000Y-103525000D03*
X150500000Y-108075000D03*
X150150000Y-115150000D03*
X161575000Y-118150000D03*
X163300000Y-115275000D03*
X185025000Y-114975000D03*
X185025000Y-113475000D03*
X187775000Y-111000000D03*
X188600000Y-108475000D03*
X187550000Y-105875000D03*
X128400000Y-131425000D03*
X146075000Y-131475000D03*
X163725000Y-131425000D03*
X181350000Y-131450000D03*
X170250000Y-129675000D03*
X152625000Y-129675000D03*
X134975000Y-129675000D03*
X117250000Y-129675000D03*
X128400000Y-89999996D03*
X146150000Y-89900000D03*
X163850000Y-89900002D03*
X181525000Y-89875000D03*
X170500000Y-91700000D03*
X152825000Y-91700000D03*
X135125000Y-91750000D03*
X117375000Y-91850000D03*
X169975000Y-97925000D03*
X160500000Y-97925000D03*
X163850000Y-107125000D03*
X157075000Y-113925000D03*
X182875000Y-96450000D03*
X185200000Y-105250000D03*
X161975000Y-114775000D03*
X161174998Y-115200000D03*
X157599998Y-107699998D03*
X154254449Y-105020551D03*
X160325000Y-106825000D03*
X159735702Y-107372808D03*
X158995161Y-107070124D03*
X143625000Y-123025000D03*
X155000000Y-124150000D03*
X158900000Y-123025000D03*
X163475000Y-123025000D03*
X143950000Y-107674998D03*
X141950000Y-103100000D03*
X147325000Y-103175000D03*
X144550000Y-109200000D03*
X146225000Y-103875000D03*
X145225000Y-110850000D03*
X164870202Y-109164587D03*
X169725000Y-112225000D03*
X164115279Y-108539577D03*
X169724998Y-110625000D03*
D18*
X163850000Y-107150000D02*
X163850000Y-107125000D01*
X157075000Y-113925000D02*
X163850000Y-107150000D01*
D19*
X178800000Y-133250000D02*
X178800000Y-134775000D01*
X178800000Y-134775000D02*
X178175000Y-135400000D01*
X163375000Y-135400000D02*
X161200000Y-133225000D01*
X178175000Y-135400000D02*
X163375000Y-135400000D01*
X143550000Y-133250000D02*
X143550000Y-134775000D01*
X143550000Y-134775000D02*
X142900000Y-135425000D01*
X142900000Y-135425000D02*
X128025000Y-135425000D01*
X128025000Y-135425000D02*
X125825000Y-133225000D01*
X185200000Y-105250000D02*
X182875000Y-102925000D01*
X182875000Y-102925000D02*
X182875000Y-96450000D01*
X143598900Y-88112600D02*
X145536500Y-86175000D01*
X145536500Y-86175000D02*
X160850000Y-86175000D01*
X160850000Y-86175000D02*
X161315000Y-86640000D01*
X161315000Y-86640000D02*
X161315000Y-88100000D01*
D18*
X163125000Y-113625000D02*
X162274999Y-114475001D01*
X192025000Y-109685000D02*
X174940000Y-109685000D01*
X174940000Y-109685000D02*
X171000000Y-113625000D01*
X171000000Y-113625000D02*
X163125000Y-113625000D01*
X162274999Y-114475001D02*
X161975000Y-114775000D01*
X161174998Y-114775736D02*
X161174998Y-115200000D01*
X161174998Y-114650000D02*
X161174998Y-114775736D01*
X162650009Y-113174989D02*
X161174998Y-114650000D01*
X170813601Y-113174989D02*
X162650009Y-113174989D01*
X192025000Y-107145000D02*
X176843590Y-107145000D01*
X176843590Y-107145000D02*
X170813601Y-113174989D01*
X157299999Y-107399999D02*
X157599998Y-107699998D01*
X154254449Y-105020551D02*
X154920551Y-105020551D01*
X154920551Y-105020551D02*
X157299999Y-107399999D01*
X120720000Y-91825000D02*
X120725000Y-91825000D01*
X160624999Y-107124999D02*
X160325000Y-106825000D01*
X160624999Y-107524265D02*
X160624999Y-107124999D01*
X159549262Y-108600002D02*
X160624999Y-107524265D01*
X155259802Y-108600002D02*
X159549262Y-108600002D01*
X138506200Y-91846400D02*
X155259802Y-108600002D01*
X138506200Y-91694000D02*
X138506200Y-91846400D01*
X159358509Y-107750001D02*
X159435703Y-107672807D01*
X159435703Y-107672807D02*
X159735702Y-107372808D01*
X158549999Y-107750001D02*
X159358509Y-107750001D01*
X156225000Y-91675000D02*
X156225000Y-105425002D01*
X156225000Y-105425002D02*
X158549999Y-107750001D01*
X172761400Y-93303885D02*
X159295160Y-106770125D01*
X159295160Y-106770125D02*
X158995161Y-107070124D01*
X172761400Y-92941000D02*
X172761400Y-93303885D01*
X173875000Y-91827400D02*
X172761400Y-92941000D01*
X173875000Y-91675000D02*
X173875000Y-91827400D01*
X143200736Y-123025000D02*
X143625000Y-123025000D01*
X127217600Y-123025000D02*
X143200736Y-123025000D01*
X120745000Y-129497600D02*
X127217600Y-123025000D01*
X120745000Y-129650000D02*
X120745000Y-129497600D01*
X154575736Y-124150000D02*
X155000000Y-124150000D01*
X143822600Y-124150000D02*
X154575736Y-124150000D01*
X138450000Y-129522600D02*
X143822600Y-124150000D01*
X138450000Y-129675000D02*
X138450000Y-129522600D01*
X158600001Y-123324999D02*
X158900000Y-123025000D01*
X156100000Y-129650000D02*
X156100000Y-125825000D01*
X156100000Y-125825000D02*
X158600001Y-123324999D01*
X173725000Y-129675000D02*
X167075000Y-123025000D01*
X167075000Y-123025000D02*
X163475000Y-123025000D01*
X143950000Y-105100000D02*
X143950000Y-107250734D01*
X143950000Y-107250734D02*
X143950000Y-107674998D01*
X141950000Y-103100000D02*
X143950000Y-105100000D01*
X146900736Y-103175000D02*
X147325000Y-103175000D01*
X145875000Y-103175000D02*
X146900736Y-103175000D01*
X144575001Y-104474999D02*
X145875000Y-103175000D01*
X144575001Y-108750735D02*
X144575001Y-104474999D01*
X144550000Y-108775736D02*
X144575001Y-108750735D01*
X144550000Y-109200000D02*
X144550000Y-108775736D01*
X145925001Y-104174999D02*
X146225000Y-103875000D01*
X145225000Y-104875000D02*
X145925001Y-104174999D01*
X145225000Y-110850000D02*
X145225000Y-104875000D01*
X169725000Y-112225000D02*
X167930615Y-112225000D01*
X165170201Y-109464586D02*
X164870202Y-109164587D01*
X167930615Y-112225000D02*
X165170201Y-109464586D01*
X169724998Y-110625000D02*
X169724998Y-110624998D01*
X169724998Y-110624998D02*
X167639577Y-108539577D01*
X167639577Y-108539577D02*
X164539543Y-108539577D01*
X164539543Y-108539577D02*
X164115279Y-108539577D01*
D20*
G36*
X194544000Y-136544000D02*
X114456000Y-136544000D01*
X114456000Y-132209000D01*
X121880536Y-132209000D01*
X121880536Y-134241000D01*
X121907103Y-134382190D01*
X121990546Y-134511865D01*
X122117866Y-134598859D01*
X122269000Y-134629464D01*
X124301000Y-134629464D01*
X124442190Y-134602897D01*
X124571865Y-134519454D01*
X124658859Y-134392134D01*
X124689464Y-134241000D01*
X124689464Y-134032728D01*
X124809803Y-134212828D01*
X125263022Y-134515660D01*
X125797631Y-134622000D01*
X125852369Y-134622000D01*
X126250449Y-134542817D01*
X127578816Y-135871184D01*
X127783527Y-136007968D01*
X128025000Y-136056000D01*
X142900000Y-136056000D01*
X143141473Y-136007968D01*
X143346184Y-135871184D01*
X143996185Y-135221184D01*
X144132968Y-135016473D01*
X144181000Y-134775000D01*
X144181000Y-134494541D01*
X144565197Y-134237828D01*
X144868029Y-133784609D01*
X144974369Y-133250000D01*
X144868029Y-132715391D01*
X144565197Y-132262172D01*
X144485620Y-132209000D01*
X157255536Y-132209000D01*
X157255536Y-134241000D01*
X157282103Y-134382190D01*
X157365546Y-134511865D01*
X157492866Y-134598859D01*
X157644000Y-134629464D01*
X159676000Y-134629464D01*
X159817190Y-134602897D01*
X159946865Y-134519454D01*
X160033859Y-134392134D01*
X160064464Y-134241000D01*
X160064464Y-134032728D01*
X160184803Y-134212828D01*
X160638022Y-134515660D01*
X161172631Y-134622000D01*
X161227369Y-134622000D01*
X161625449Y-134542817D01*
X162928815Y-135846184D01*
X163065599Y-135937580D01*
X163133527Y-135982968D01*
X163375000Y-136031000D01*
X178175000Y-136031000D01*
X178416473Y-135982968D01*
X178621184Y-135846184D01*
X179246184Y-135221185D01*
X179382967Y-135016474D01*
X179382968Y-135016473D01*
X179431000Y-134775000D01*
X179431000Y-134494541D01*
X179815197Y-134237828D01*
X180118029Y-133784609D01*
X180224369Y-133250000D01*
X180118029Y-132715391D01*
X179815197Y-132262172D01*
X179361978Y-131959340D01*
X178827369Y-131853000D01*
X178772631Y-131853000D01*
X178238022Y-131959340D01*
X177784803Y-132262172D01*
X177664464Y-132442272D01*
X177664464Y-132234000D01*
X177637897Y-132092810D01*
X177554454Y-131963135D01*
X177427134Y-131876141D01*
X177276000Y-131845536D01*
X175244000Y-131845536D01*
X175102810Y-131872103D01*
X174973135Y-131955546D01*
X174886141Y-132082866D01*
X174855536Y-132234000D01*
X174855536Y-134266000D01*
X174882103Y-134407190D01*
X174965546Y-134536865D01*
X175092866Y-134623859D01*
X175244000Y-134654464D01*
X177276000Y-134654464D01*
X177417190Y-134627897D01*
X177546865Y-134544454D01*
X177633859Y-134417134D01*
X177664464Y-134266000D01*
X177664464Y-134057728D01*
X177784803Y-134237828D01*
X178169000Y-134494541D01*
X178169000Y-134513631D01*
X177913632Y-134769000D01*
X163636369Y-134769000D01*
X162536105Y-133668736D01*
X162624369Y-133225000D01*
X162518029Y-132690391D01*
X162215197Y-132237172D01*
X161761978Y-131934340D01*
X161227369Y-131828000D01*
X161172631Y-131828000D01*
X160638022Y-131934340D01*
X160184803Y-132237172D01*
X160064464Y-132417272D01*
X160064464Y-132209000D01*
X160037897Y-132067810D01*
X159954454Y-131938135D01*
X159827134Y-131851141D01*
X159676000Y-131820536D01*
X157644000Y-131820536D01*
X157502810Y-131847103D01*
X157373135Y-131930546D01*
X157286141Y-132057866D01*
X157255536Y-132209000D01*
X144485620Y-132209000D01*
X144111978Y-131959340D01*
X143577369Y-131853000D01*
X143522631Y-131853000D01*
X142988022Y-131959340D01*
X142534803Y-132262172D01*
X142414464Y-132442272D01*
X142414464Y-132234000D01*
X142387897Y-132092810D01*
X142304454Y-131963135D01*
X142177134Y-131876141D01*
X142026000Y-131845536D01*
X139994000Y-131845536D01*
X139852810Y-131872103D01*
X139723135Y-131955546D01*
X139636141Y-132082866D01*
X139605536Y-132234000D01*
X139605536Y-134266000D01*
X139632103Y-134407190D01*
X139715546Y-134536865D01*
X139842866Y-134623859D01*
X139994000Y-134654464D01*
X142026000Y-134654464D01*
X142167190Y-134627897D01*
X142296865Y-134544454D01*
X142383859Y-134417134D01*
X142414464Y-134266000D01*
X142414464Y-134057728D01*
X142534803Y-134237828D01*
X142919000Y-134494541D01*
X142919000Y-134513631D01*
X142638632Y-134794000D01*
X128286368Y-134794000D01*
X127161105Y-133668737D01*
X127249369Y-133225000D01*
X127143029Y-132690391D01*
X126840197Y-132237172D01*
X126386978Y-131934340D01*
X125852369Y-131828000D01*
X125797631Y-131828000D01*
X125263022Y-131934340D01*
X124809803Y-132237172D01*
X124689464Y-132417272D01*
X124689464Y-132209000D01*
X124662897Y-132067810D01*
X124579454Y-131938135D01*
X124452134Y-131851141D01*
X124301000Y-131820536D01*
X122269000Y-131820536D01*
X122127810Y-131847103D01*
X121998135Y-131930546D01*
X121911141Y-132057866D01*
X121880536Y-132209000D01*
X114456000Y-132209000D01*
X114456000Y-128634000D01*
X119492936Y-128634000D01*
X119492936Y-130666000D01*
X119519503Y-130807190D01*
X119602946Y-130936865D01*
X119730266Y-131023859D01*
X119881400Y-131054464D01*
X121608600Y-131054464D01*
X121749790Y-131027897D01*
X121879465Y-130944454D01*
X121966459Y-130817134D01*
X121997064Y-130666000D01*
X121997064Y-130568817D01*
X122382964Y-131000732D01*
X122910209Y-131254709D01*
X122925974Y-131257358D01*
X123158000Y-131136217D01*
X123158000Y-129777000D01*
X123138000Y-129777000D01*
X123138000Y-129523000D01*
X123158000Y-129523000D01*
X123158000Y-128163783D01*
X123412000Y-128163783D01*
X123412000Y-129523000D01*
X123432000Y-129523000D01*
X123432000Y-129777000D01*
X123412000Y-129777000D01*
X123412000Y-131136217D01*
X123644026Y-131257358D01*
X123659791Y-131254709D01*
X124187036Y-131000732D01*
X124576954Y-130564320D01*
X124672296Y-130291757D01*
X124675140Y-130306057D01*
X124944935Y-130709834D01*
X125348712Y-130979629D01*
X125825000Y-131074369D01*
X126301288Y-130979629D01*
X126705065Y-130709834D01*
X126974860Y-130306057D01*
X127069600Y-129829769D01*
X127069600Y-129470231D01*
X126974860Y-128993943D01*
X126705065Y-128590166D01*
X126301288Y-128320371D01*
X125825000Y-128225631D01*
X125348712Y-128320371D01*
X124944935Y-128590166D01*
X124675140Y-128993943D01*
X124672296Y-129008243D01*
X124576954Y-128735680D01*
X124187036Y-128299268D01*
X123659791Y-128045291D01*
X123644026Y-128042642D01*
X123412000Y-128163783D01*
X123158000Y-128163783D01*
X122925974Y-128042642D01*
X122913445Y-128044747D01*
X127427192Y-123531000D01*
X143167877Y-123531000D01*
X143238741Y-123601987D01*
X143488946Y-123705882D01*
X143593857Y-123705973D01*
X143464804Y-123792204D01*
X138986472Y-128270536D01*
X137586400Y-128270536D01*
X137445210Y-128297103D01*
X137315535Y-128380546D01*
X137228541Y-128507866D01*
X137197936Y-128659000D01*
X137197936Y-130691000D01*
X137224503Y-130832190D01*
X137307946Y-130961865D01*
X137435266Y-131048859D01*
X137586400Y-131079464D01*
X139313600Y-131079464D01*
X139454790Y-131052897D01*
X139584465Y-130969454D01*
X139671459Y-130842134D01*
X139702064Y-130691000D01*
X139702064Y-130593817D01*
X140087964Y-131025732D01*
X140615209Y-131279709D01*
X140630974Y-131282358D01*
X140863000Y-131161217D01*
X140863000Y-129802000D01*
X140843000Y-129802000D01*
X140843000Y-129548000D01*
X140863000Y-129548000D01*
X140863000Y-128188783D01*
X141117000Y-128188783D01*
X141117000Y-129548000D01*
X141137000Y-129548000D01*
X141137000Y-129802000D01*
X141117000Y-129802000D01*
X141117000Y-131161217D01*
X141349026Y-131282358D01*
X141364791Y-131279709D01*
X141892036Y-131025732D01*
X142281954Y-130589320D01*
X142377296Y-130316757D01*
X142380140Y-130331057D01*
X142649935Y-130734834D01*
X143053712Y-131004629D01*
X143530000Y-131099369D01*
X144006288Y-131004629D01*
X144410065Y-130734834D01*
X144679860Y-130331057D01*
X144774600Y-129854769D01*
X144774600Y-129495231D01*
X144679860Y-129018943D01*
X144422650Y-128634000D01*
X154847936Y-128634000D01*
X154847936Y-130666000D01*
X154874503Y-130807190D01*
X154957946Y-130936865D01*
X155085266Y-131023859D01*
X155236400Y-131054464D01*
X156963600Y-131054464D01*
X157104790Y-131027897D01*
X157234465Y-130944454D01*
X157321459Y-130817134D01*
X157352064Y-130666000D01*
X157352064Y-130568817D01*
X157737964Y-131000732D01*
X158265209Y-131254709D01*
X158280974Y-131257358D01*
X158513000Y-131136217D01*
X158513000Y-129777000D01*
X158493000Y-129777000D01*
X158493000Y-129523000D01*
X158513000Y-129523000D01*
X158513000Y-128163783D01*
X158767000Y-128163783D01*
X158767000Y-129523000D01*
X158787000Y-129523000D01*
X158787000Y-129777000D01*
X158767000Y-129777000D01*
X158767000Y-131136217D01*
X158999026Y-131257358D01*
X159014791Y-131254709D01*
X159542036Y-131000732D01*
X159931954Y-130564320D01*
X160027296Y-130291757D01*
X160030140Y-130306057D01*
X160299935Y-130709834D01*
X160703712Y-130979629D01*
X161180000Y-131074369D01*
X161656288Y-130979629D01*
X162060065Y-130709834D01*
X162329860Y-130306057D01*
X162424600Y-129829769D01*
X162424600Y-129470231D01*
X162329860Y-128993943D01*
X162060065Y-128590166D01*
X161656288Y-128320371D01*
X161180000Y-128225631D01*
X160703712Y-128320371D01*
X160299935Y-128590166D01*
X160030140Y-128993943D01*
X160027296Y-129008243D01*
X159931954Y-128735680D01*
X159542036Y-128299268D01*
X159014791Y-128045291D01*
X158999026Y-128042642D01*
X158767000Y-128163783D01*
X158513000Y-128163783D01*
X158280974Y-128042642D01*
X158265209Y-128045291D01*
X157737964Y-128299268D01*
X157352064Y-128731183D01*
X157352064Y-128634000D01*
X157325497Y-128492810D01*
X157242054Y-128363135D01*
X157114734Y-128276141D01*
X156963600Y-128245536D01*
X156606000Y-128245536D01*
X156606000Y-126034592D01*
X158934561Y-123706031D01*
X159034865Y-123706118D01*
X159285252Y-123602661D01*
X159476987Y-123411259D01*
X159580882Y-123161054D01*
X159580883Y-123159865D01*
X162793882Y-123159865D01*
X162897339Y-123410252D01*
X163088741Y-123601987D01*
X163338946Y-123705882D01*
X163609865Y-123706118D01*
X163860252Y-123602661D01*
X163932038Y-123531000D01*
X166865408Y-123531000D01*
X172472936Y-129138528D01*
X172472936Y-130691000D01*
X172499503Y-130832190D01*
X172582946Y-130961865D01*
X172710266Y-131048859D01*
X172861400Y-131079464D01*
X174588600Y-131079464D01*
X174729790Y-131052897D01*
X174859465Y-130969454D01*
X174946459Y-130842134D01*
X174977064Y-130691000D01*
X174977064Y-130593817D01*
X175362964Y-131025732D01*
X175890209Y-131279709D01*
X175905974Y-131282358D01*
X176138000Y-131161217D01*
X176138000Y-129802000D01*
X176118000Y-129802000D01*
X176118000Y-129548000D01*
X176138000Y-129548000D01*
X176138000Y-128188783D01*
X176392000Y-128188783D01*
X176392000Y-129548000D01*
X176412000Y-129548000D01*
X176412000Y-129802000D01*
X176392000Y-129802000D01*
X176392000Y-131161217D01*
X176624026Y-131282358D01*
X176639791Y-131279709D01*
X177167036Y-131025732D01*
X177556954Y-130589320D01*
X177652296Y-130316757D01*
X177655140Y-130331057D01*
X177924935Y-130734834D01*
X178328712Y-131004629D01*
X178805000Y-131099369D01*
X179281288Y-131004629D01*
X179685065Y-130734834D01*
X179954860Y-130331057D01*
X180049600Y-129854769D01*
X180049600Y-129495231D01*
X179954860Y-129018943D01*
X179685065Y-128615166D01*
X179281288Y-128345371D01*
X178805000Y-128250631D01*
X178328712Y-128345371D01*
X177924935Y-128615166D01*
X177655140Y-129018943D01*
X177652296Y-129033243D01*
X177556954Y-128760680D01*
X177167036Y-128324268D01*
X176639791Y-128070291D01*
X176624026Y-128067642D01*
X176392000Y-128188783D01*
X176138000Y-128188783D01*
X175905974Y-128067642D01*
X175890209Y-128070291D01*
X175362964Y-128324268D01*
X174977064Y-128756183D01*
X174977064Y-128659000D01*
X174950497Y-128517810D01*
X174867054Y-128388135D01*
X174739734Y-128301141D01*
X174588600Y-128270536D01*
X173036128Y-128270536D01*
X167432796Y-122667204D01*
X167268638Y-122557517D01*
X167075000Y-122519000D01*
X163932123Y-122519000D01*
X163861259Y-122448013D01*
X163611054Y-122344118D01*
X163340135Y-122343882D01*
X163089748Y-122447339D01*
X162898013Y-122638741D01*
X162794118Y-122888946D01*
X162793882Y-123159865D01*
X159580883Y-123159865D01*
X159581118Y-122890135D01*
X159477661Y-122639748D01*
X159286259Y-122448013D01*
X159036054Y-122344118D01*
X158765135Y-122343882D01*
X158514748Y-122447339D01*
X158323013Y-122638741D01*
X158219118Y-122888946D01*
X158219030Y-122990378D01*
X155742204Y-125467204D01*
X155632517Y-125631362D01*
X155594000Y-125825000D01*
X155594000Y-128245536D01*
X155236400Y-128245536D01*
X155095210Y-128272103D01*
X154965535Y-128355546D01*
X154878541Y-128482866D01*
X154847936Y-128634000D01*
X144422650Y-128634000D01*
X144410065Y-128615166D01*
X144006288Y-128345371D01*
X143530000Y-128250631D01*
X143053712Y-128345371D01*
X142649935Y-128615166D01*
X142380140Y-129018943D01*
X142377296Y-129033243D01*
X142281954Y-128760680D01*
X141892036Y-128324268D01*
X141364791Y-128070291D01*
X141349026Y-128067642D01*
X141117000Y-128188783D01*
X140863000Y-128188783D01*
X140630974Y-128067642D01*
X140618445Y-128069747D01*
X144032192Y-124656000D01*
X154542877Y-124656000D01*
X154613741Y-124726987D01*
X154863946Y-124830882D01*
X155134865Y-124831118D01*
X155385252Y-124727661D01*
X155576987Y-124536259D01*
X155680882Y-124286054D01*
X155681118Y-124015135D01*
X155577661Y-123764748D01*
X155386259Y-123573013D01*
X155136054Y-123469118D01*
X154865135Y-123468882D01*
X154614748Y-123572339D01*
X154542962Y-123644000D01*
X143910203Y-123644000D01*
X144010252Y-123602661D01*
X144201987Y-123411259D01*
X144305882Y-123161054D01*
X144306118Y-122890135D01*
X144202661Y-122639748D01*
X144011259Y-122448013D01*
X143761054Y-122344118D01*
X143490135Y-122343882D01*
X143239748Y-122447339D01*
X143167962Y-122519000D01*
X127217600Y-122519000D01*
X127023962Y-122557517D01*
X126902402Y-122638741D01*
X126859804Y-122667204D01*
X121281472Y-128245536D01*
X119881400Y-128245536D01*
X119740210Y-128272103D01*
X119610535Y-128355546D01*
X119523541Y-128482866D01*
X119492936Y-128634000D01*
X114456000Y-128634000D01*
X114456000Y-114059865D01*
X156393882Y-114059865D01*
X156497339Y-114310252D01*
X156688741Y-114501987D01*
X156938946Y-114605882D01*
X157209865Y-114606118D01*
X157460252Y-114502661D01*
X157651987Y-114311259D01*
X157755882Y-114061054D01*
X157755970Y-113959622D01*
X163521262Y-108194330D01*
X163434397Y-108403523D01*
X163434161Y-108674442D01*
X163537618Y-108924829D01*
X163729020Y-109116564D01*
X163979225Y-109220459D01*
X164189153Y-109220642D01*
X164189084Y-109299452D01*
X164292541Y-109549839D01*
X164483943Y-109741574D01*
X164734148Y-109845469D01*
X164835580Y-109845557D01*
X167572819Y-112582796D01*
X167701816Y-112668989D01*
X162650009Y-112668989D01*
X162456371Y-112707506D01*
X162314970Y-112801987D01*
X162292213Y-112817193D01*
X160817202Y-114292204D01*
X160707515Y-114456362D01*
X160668998Y-114650000D01*
X160668998Y-114742877D01*
X160598011Y-114813741D01*
X160494116Y-115063946D01*
X160493880Y-115334865D01*
X160597337Y-115585252D01*
X160788739Y-115776987D01*
X161038944Y-115880882D01*
X161309863Y-115881118D01*
X161560250Y-115777661D01*
X161751985Y-115586259D01*
X161810950Y-115444257D01*
X161838946Y-115455882D01*
X162109865Y-115456118D01*
X162360252Y-115352661D01*
X162551987Y-115161259D01*
X162655882Y-114911054D01*
X162655970Y-114809622D01*
X163334592Y-114131000D01*
X171000000Y-114131000D01*
X171193638Y-114092483D01*
X171357796Y-113982796D01*
X172756566Y-112584026D01*
X190417642Y-112584026D01*
X190420291Y-112599791D01*
X190674268Y-113127036D01*
X191106183Y-113512936D01*
X191009000Y-113512936D01*
X190867810Y-113539503D01*
X190738135Y-113622946D01*
X190651141Y-113750266D01*
X190620536Y-113901400D01*
X190620536Y-115628600D01*
X190647103Y-115769790D01*
X190730546Y-115899465D01*
X190857866Y-115986459D01*
X191009000Y-116017064D01*
X193041000Y-116017064D01*
X193182190Y-115990497D01*
X193311865Y-115907054D01*
X193398859Y-115779734D01*
X193429464Y-115628600D01*
X193429464Y-113901400D01*
X193402897Y-113760210D01*
X193319454Y-113630535D01*
X193192134Y-113543541D01*
X193041000Y-113512936D01*
X192943817Y-113512936D01*
X193375732Y-113127036D01*
X193629709Y-112599791D01*
X193632358Y-112584026D01*
X193511217Y-112352000D01*
X192152000Y-112352000D01*
X192152000Y-112372000D01*
X191898000Y-112372000D01*
X191898000Y-112352000D01*
X190538783Y-112352000D01*
X190417642Y-112584026D01*
X172756566Y-112584026D01*
X175149592Y-110191000D01*
X190715224Y-110191000D01*
X190965166Y-110565065D01*
X191368943Y-110834860D01*
X191383243Y-110837704D01*
X191110680Y-110933046D01*
X190674268Y-111322964D01*
X190420291Y-111850209D01*
X190417642Y-111865974D01*
X190538783Y-112098000D01*
X191898000Y-112098000D01*
X191898000Y-112078000D01*
X192152000Y-112078000D01*
X192152000Y-112098000D01*
X193511217Y-112098000D01*
X193632358Y-111865974D01*
X193629709Y-111850209D01*
X193375732Y-111322964D01*
X192939320Y-110933046D01*
X192666757Y-110837704D01*
X192681057Y-110834860D01*
X193084834Y-110565065D01*
X193354629Y-110161288D01*
X193449369Y-109685000D01*
X193354629Y-109208712D01*
X193084834Y-108804935D01*
X192681057Y-108535140D01*
X192204769Y-108440400D01*
X191845231Y-108440400D01*
X191368943Y-108535140D01*
X190965166Y-108804935D01*
X190715224Y-109179000D01*
X175525182Y-109179000D01*
X177053182Y-107651000D01*
X190715224Y-107651000D01*
X190965166Y-108025065D01*
X191368943Y-108294860D01*
X191845231Y-108389600D01*
X192204769Y-108389600D01*
X192681057Y-108294860D01*
X193084834Y-108025065D01*
X193354629Y-107621288D01*
X193449369Y-107145000D01*
X193354629Y-106668712D01*
X193084834Y-106264935D01*
X192681057Y-105995140D01*
X192204769Y-105900400D01*
X191845231Y-105900400D01*
X191368943Y-105995140D01*
X190965166Y-106264935D01*
X190715224Y-106639000D01*
X176843590Y-106639000D01*
X176649952Y-106677517D01*
X176485794Y-106787204D01*
X170604009Y-112668989D01*
X170244157Y-112668989D01*
X170301987Y-112611259D01*
X170405882Y-112361054D01*
X170406118Y-112090135D01*
X170302661Y-111839748D01*
X170111259Y-111648013D01*
X169861054Y-111544118D01*
X169590135Y-111543882D01*
X169339748Y-111647339D01*
X169267962Y-111719000D01*
X168140207Y-111719000D01*
X165551233Y-109130026D01*
X165551306Y-109045577D01*
X167429985Y-109045577D01*
X169043967Y-110659559D01*
X169043880Y-110759865D01*
X169147337Y-111010252D01*
X169338739Y-111201987D01*
X169588944Y-111305882D01*
X169859863Y-111306118D01*
X170110250Y-111202661D01*
X170301985Y-111011259D01*
X170405880Y-110761054D01*
X170406116Y-110490135D01*
X170302659Y-110239748D01*
X170111257Y-110048013D01*
X169861052Y-109944118D01*
X169759622Y-109944030D01*
X167997373Y-108181781D01*
X167833215Y-108072094D01*
X167639577Y-108033577D01*
X164572402Y-108033577D01*
X164501538Y-107962590D01*
X164251333Y-107858695D01*
X163980414Y-107858459D01*
X163770328Y-107945264D01*
X163909540Y-107806052D01*
X163984865Y-107806118D01*
X164235252Y-107702661D01*
X164426987Y-107511259D01*
X164530882Y-107261054D01*
X164531118Y-106990135D01*
X164427661Y-106739748D01*
X164236259Y-106548013D01*
X163986054Y-106444118D01*
X163715135Y-106443882D01*
X163464748Y-106547339D01*
X163273013Y-106738741D01*
X163169118Y-106988946D01*
X163169008Y-107115400D01*
X157040439Y-113243969D01*
X156940135Y-113243882D01*
X156689748Y-113347339D01*
X156498013Y-113538741D01*
X156394118Y-113788946D01*
X156393882Y-114059865D01*
X114456000Y-114059865D01*
X114456000Y-103234865D01*
X141268882Y-103234865D01*
X141372339Y-103485252D01*
X141563741Y-103676987D01*
X141813946Y-103780882D01*
X141915378Y-103780970D01*
X143444000Y-105309592D01*
X143444000Y-107217875D01*
X143373013Y-107288739D01*
X143269118Y-107538944D01*
X143268882Y-107809863D01*
X143372339Y-108060250D01*
X143563741Y-108251985D01*
X143813946Y-108355880D01*
X144069001Y-108356102D01*
X144069001Y-108650048D01*
X144052155Y-108734736D01*
X143973013Y-108813741D01*
X143869118Y-109063946D01*
X143868882Y-109334865D01*
X143972339Y-109585252D01*
X144163741Y-109776987D01*
X144413946Y-109880882D01*
X144684865Y-109881118D01*
X144719000Y-109867014D01*
X144719000Y-110392877D01*
X144648013Y-110463741D01*
X144544118Y-110713946D01*
X144543882Y-110984865D01*
X144647339Y-111235252D01*
X144838741Y-111426987D01*
X145088946Y-111530882D01*
X145359865Y-111531118D01*
X145610252Y-111427661D01*
X145801987Y-111236259D01*
X145905882Y-110986054D01*
X145906118Y-110715135D01*
X145802661Y-110464748D01*
X145731000Y-110392962D01*
X145731000Y-105084592D01*
X146259561Y-104556031D01*
X146359865Y-104556118D01*
X146610252Y-104452661D01*
X146801987Y-104261259D01*
X146905882Y-104011054D01*
X146906118Y-103740135D01*
X146891435Y-103704598D01*
X146938741Y-103751987D01*
X147188946Y-103855882D01*
X147459865Y-103856118D01*
X147710252Y-103752661D01*
X147901987Y-103561259D01*
X148005882Y-103311054D01*
X148006118Y-103040135D01*
X147902661Y-102789748D01*
X147711259Y-102598013D01*
X147461054Y-102494118D01*
X147190135Y-102493882D01*
X146939748Y-102597339D01*
X146867962Y-102669000D01*
X145875000Y-102669000D01*
X145681362Y-102707517D01*
X145517204Y-102817204D01*
X144217205Y-104117203D01*
X144107518Y-104281361D01*
X144069001Y-104474999D01*
X144069001Y-104503409D01*
X142631031Y-103065439D01*
X142631118Y-102965135D01*
X142527661Y-102714748D01*
X142336259Y-102523013D01*
X142086054Y-102419118D01*
X141815135Y-102418882D01*
X141564748Y-102522339D01*
X141373013Y-102713741D01*
X141269118Y-102963946D01*
X141268882Y-103234865D01*
X114456000Y-103234865D01*
X114456000Y-90809000D01*
X119467936Y-90809000D01*
X119467936Y-92841000D01*
X119494503Y-92982190D01*
X119577946Y-93111865D01*
X119705266Y-93198859D01*
X119856400Y-93229464D01*
X121583600Y-93229464D01*
X121724790Y-93202897D01*
X121854465Y-93119454D01*
X121941459Y-92992134D01*
X121972064Y-92841000D01*
X121972064Y-92743817D01*
X122357964Y-93175732D01*
X122885209Y-93429709D01*
X122900974Y-93432358D01*
X123133000Y-93311217D01*
X123133000Y-91952000D01*
X123113000Y-91952000D01*
X123113000Y-91698000D01*
X123133000Y-91698000D01*
X123133000Y-90338783D01*
X123387000Y-90338783D01*
X123387000Y-91698000D01*
X123407000Y-91698000D01*
X123407000Y-91952000D01*
X123387000Y-91952000D01*
X123387000Y-93311217D01*
X123619026Y-93432358D01*
X123634791Y-93429709D01*
X124162036Y-93175732D01*
X124551954Y-92739320D01*
X124647296Y-92466757D01*
X124650140Y-92481057D01*
X124919935Y-92884834D01*
X125323712Y-93154629D01*
X125800000Y-93249369D01*
X126276288Y-93154629D01*
X126680065Y-92884834D01*
X126949860Y-92481057D01*
X127044600Y-92004769D01*
X127044600Y-91645231D01*
X126949860Y-91168943D01*
X126680065Y-90765166D01*
X126549612Y-90678000D01*
X137254136Y-90678000D01*
X137254136Y-92710000D01*
X137280703Y-92851190D01*
X137364146Y-92980865D01*
X137491466Y-93067859D01*
X137642600Y-93098464D01*
X139042672Y-93098464D01*
X154902006Y-108957798D01*
X155066164Y-109067485D01*
X155259802Y-109106002D01*
X159549262Y-109106002D01*
X159742900Y-109067485D01*
X159907058Y-108957798D01*
X160982795Y-107882061D01*
X161092482Y-107717903D01*
X161130999Y-107524265D01*
X161130999Y-107124999D01*
X161092482Y-106931361D01*
X161006021Y-106801963D01*
X161006118Y-106690135D01*
X160902661Y-106439748D01*
X160711259Y-106248013D01*
X160585206Y-106195671D01*
X170196012Y-96584865D01*
X182193882Y-96584865D01*
X182244000Y-96706161D01*
X182244000Y-102925000D01*
X182266902Y-103040135D01*
X182292032Y-103166473D01*
X182428816Y-103371184D01*
X184572667Y-105515036D01*
X184622339Y-105635252D01*
X184813741Y-105826987D01*
X185063946Y-105930882D01*
X185334865Y-105931118D01*
X185585252Y-105827661D01*
X185776987Y-105636259D01*
X185880882Y-105386054D01*
X185881118Y-105115135D01*
X185777661Y-104864748D01*
X185586259Y-104673013D01*
X185465052Y-104622683D01*
X183506000Y-102663632D01*
X183506000Y-96706182D01*
X183555882Y-96586054D01*
X183556118Y-96315135D01*
X183452661Y-96064748D01*
X183261259Y-95873013D01*
X183011054Y-95769118D01*
X182740135Y-95768882D01*
X182489748Y-95872339D01*
X182298013Y-96063741D01*
X182194118Y-96313946D01*
X182193882Y-96584865D01*
X170196012Y-96584865D01*
X173119196Y-93661681D01*
X173228883Y-93497523D01*
X173267400Y-93303885D01*
X173267400Y-93150592D01*
X173338528Y-93079464D01*
X174738600Y-93079464D01*
X174879790Y-93052897D01*
X175009465Y-92969454D01*
X175096459Y-92842134D01*
X175127064Y-92691000D01*
X175127064Y-92593817D01*
X175512964Y-93025732D01*
X176040209Y-93279709D01*
X176055974Y-93282358D01*
X176288000Y-93161217D01*
X176288000Y-91802000D01*
X176268000Y-91802000D01*
X176268000Y-91548000D01*
X176288000Y-91548000D01*
X176288000Y-90188783D01*
X176542000Y-90188783D01*
X176542000Y-91548000D01*
X176562000Y-91548000D01*
X176562000Y-91802000D01*
X176542000Y-91802000D01*
X176542000Y-93161217D01*
X176774026Y-93282358D01*
X176789791Y-93279709D01*
X177317036Y-93025732D01*
X177706954Y-92589320D01*
X177802296Y-92316757D01*
X177805140Y-92331057D01*
X178074935Y-92734834D01*
X178478712Y-93004629D01*
X178955000Y-93099369D01*
X179431288Y-93004629D01*
X179835065Y-92734834D01*
X180104860Y-92331057D01*
X180199600Y-91854769D01*
X180199600Y-91495231D01*
X180104860Y-91018943D01*
X179835065Y-90615166D01*
X179431288Y-90345371D01*
X178955000Y-90250631D01*
X178478712Y-90345371D01*
X178074935Y-90615166D01*
X177805140Y-91018943D01*
X177802296Y-91033243D01*
X177706954Y-90760680D01*
X177317036Y-90324268D01*
X176789791Y-90070291D01*
X176774026Y-90067642D01*
X176542000Y-90188783D01*
X176288000Y-90188783D01*
X176055974Y-90067642D01*
X176040209Y-90070291D01*
X175512964Y-90324268D01*
X175127064Y-90756183D01*
X175127064Y-90659000D01*
X175100497Y-90517810D01*
X175017054Y-90388135D01*
X174889734Y-90301141D01*
X174738600Y-90270536D01*
X173011400Y-90270536D01*
X172870210Y-90297103D01*
X172740535Y-90380546D01*
X172653541Y-90507866D01*
X172622936Y-90659000D01*
X172622936Y-92363872D01*
X172403604Y-92583204D01*
X172293917Y-92747362D01*
X172255400Y-92941000D01*
X172255400Y-93094293D01*
X158960600Y-106389093D01*
X158860296Y-106389006D01*
X158609909Y-106492463D01*
X158418174Y-106683865D01*
X158354001Y-106838411D01*
X156731000Y-105215410D01*
X156731000Y-93079464D01*
X157088600Y-93079464D01*
X157229790Y-93052897D01*
X157359465Y-92969454D01*
X157446459Y-92842134D01*
X157477064Y-92691000D01*
X157477064Y-92593817D01*
X157862964Y-93025732D01*
X158390209Y-93279709D01*
X158405974Y-93282358D01*
X158638000Y-93161217D01*
X158638000Y-91802000D01*
X158618000Y-91802000D01*
X158618000Y-91548000D01*
X158638000Y-91548000D01*
X158638000Y-90188783D01*
X158892000Y-90188783D01*
X158892000Y-91548000D01*
X158912000Y-91548000D01*
X158912000Y-91802000D01*
X158892000Y-91802000D01*
X158892000Y-93161217D01*
X159124026Y-93282358D01*
X159139791Y-93279709D01*
X159667036Y-93025732D01*
X160056954Y-92589320D01*
X160152296Y-92316757D01*
X160155140Y-92331057D01*
X160424935Y-92734834D01*
X160828712Y-93004629D01*
X161305000Y-93099369D01*
X161781288Y-93004629D01*
X162185065Y-92734834D01*
X162454860Y-92331057D01*
X162549600Y-91854769D01*
X162549600Y-91495231D01*
X162454860Y-91018943D01*
X162185065Y-90615166D01*
X161781288Y-90345371D01*
X161305000Y-90250631D01*
X160828712Y-90345371D01*
X160424935Y-90615166D01*
X160155140Y-91018943D01*
X160152296Y-91033243D01*
X160056954Y-90760680D01*
X159667036Y-90324268D01*
X159139791Y-90070291D01*
X159124026Y-90067642D01*
X158892000Y-90188783D01*
X158638000Y-90188783D01*
X158405974Y-90067642D01*
X158390209Y-90070291D01*
X157862964Y-90324268D01*
X157477064Y-90756183D01*
X157477064Y-90659000D01*
X157450497Y-90517810D01*
X157367054Y-90388135D01*
X157239734Y-90301141D01*
X157088600Y-90270536D01*
X155361400Y-90270536D01*
X155220210Y-90297103D01*
X155090535Y-90380546D01*
X155003541Y-90507866D01*
X154972936Y-90659000D01*
X154972936Y-92691000D01*
X154999503Y-92832190D01*
X155082946Y-92961865D01*
X155210266Y-93048859D01*
X155361400Y-93079464D01*
X155719000Y-93079464D01*
X155719000Y-105103408D01*
X155278347Y-104662755D01*
X155114189Y-104553068D01*
X154920551Y-104514551D01*
X154711572Y-104514551D01*
X154640708Y-104443564D01*
X154390503Y-104339669D01*
X154119584Y-104339433D01*
X153869197Y-104442890D01*
X153677462Y-104634292D01*
X153573567Y-104884497D01*
X153573331Y-105155416D01*
X153676788Y-105405803D01*
X153868190Y-105597538D01*
X154118395Y-105701433D01*
X154389314Y-105701669D01*
X154639701Y-105598212D01*
X154711223Y-105526815D01*
X156918967Y-107734559D01*
X156918880Y-107834863D01*
X157022337Y-108085250D01*
X157031074Y-108094002D01*
X155469394Y-108094002D01*
X140674645Y-93299253D01*
X140687174Y-93301358D01*
X140919200Y-93180217D01*
X140919200Y-91821000D01*
X140899200Y-91821000D01*
X140899200Y-91567000D01*
X140919200Y-91567000D01*
X140919200Y-90207783D01*
X141173200Y-90207783D01*
X141173200Y-91567000D01*
X141193200Y-91567000D01*
X141193200Y-91821000D01*
X141173200Y-91821000D01*
X141173200Y-93180217D01*
X141405226Y-93301358D01*
X141420991Y-93298709D01*
X141948236Y-93044732D01*
X142338154Y-92608320D01*
X142433496Y-92335757D01*
X142436340Y-92350057D01*
X142706135Y-92753834D01*
X143109912Y-93023629D01*
X143586200Y-93118369D01*
X144062488Y-93023629D01*
X144466265Y-92753834D01*
X144736060Y-92350057D01*
X144830800Y-91873769D01*
X144830800Y-91514231D01*
X144736060Y-91037943D01*
X144466265Y-90634166D01*
X144062488Y-90364371D01*
X143586200Y-90269631D01*
X143109912Y-90364371D01*
X142706135Y-90634166D01*
X142436340Y-91037943D01*
X142433496Y-91052243D01*
X142338154Y-90779680D01*
X141948236Y-90343268D01*
X141420991Y-90089291D01*
X141405226Y-90086642D01*
X141173200Y-90207783D01*
X140919200Y-90207783D01*
X140687174Y-90086642D01*
X140671409Y-90089291D01*
X140144164Y-90343268D01*
X139758264Y-90775183D01*
X139758264Y-90678000D01*
X139731697Y-90536810D01*
X139648254Y-90407135D01*
X139520934Y-90320141D01*
X139369800Y-90289536D01*
X137642600Y-90289536D01*
X137501410Y-90316103D01*
X137371735Y-90399546D01*
X137284741Y-90526866D01*
X137254136Y-90678000D01*
X126549612Y-90678000D01*
X126276288Y-90495371D01*
X125800000Y-90400631D01*
X125323712Y-90495371D01*
X124919935Y-90765166D01*
X124650140Y-91168943D01*
X124647296Y-91183243D01*
X124551954Y-90910680D01*
X124162036Y-90474268D01*
X123634791Y-90220291D01*
X123619026Y-90217642D01*
X123387000Y-90338783D01*
X123133000Y-90338783D01*
X122900974Y-90217642D01*
X122885209Y-90220291D01*
X122357964Y-90474268D01*
X121972064Y-90906183D01*
X121972064Y-90809000D01*
X121945497Y-90667810D01*
X121862054Y-90538135D01*
X121734734Y-90451141D01*
X121583600Y-90420536D01*
X119856400Y-90420536D01*
X119715210Y-90447103D01*
X119585535Y-90530546D01*
X119498541Y-90657866D01*
X119467936Y-90809000D01*
X114456000Y-90809000D01*
X114456000Y-87209000D01*
X121855536Y-87209000D01*
X121855536Y-89241000D01*
X121882103Y-89382190D01*
X121965546Y-89511865D01*
X122092866Y-89598859D01*
X122244000Y-89629464D01*
X124276000Y-89629464D01*
X124417190Y-89602897D01*
X124546865Y-89519454D01*
X124633859Y-89392134D01*
X124664464Y-89241000D01*
X124664464Y-89032728D01*
X124784803Y-89212828D01*
X125238022Y-89515660D01*
X125772631Y-89622000D01*
X125827369Y-89622000D01*
X126361978Y-89515660D01*
X126815197Y-89212828D01*
X127118029Y-88759609D01*
X127224369Y-88225000D01*
X127118029Y-87690391D01*
X126815197Y-87237172D01*
X126604817Y-87096600D01*
X139654436Y-87096600D01*
X139654436Y-89128600D01*
X139681003Y-89269790D01*
X139764446Y-89399465D01*
X139891766Y-89486459D01*
X140042900Y-89517064D01*
X142074900Y-89517064D01*
X142216090Y-89490497D01*
X142345765Y-89407054D01*
X142432759Y-89279734D01*
X142463364Y-89128600D01*
X142463364Y-88920328D01*
X142583703Y-89100428D01*
X143036922Y-89403260D01*
X143571531Y-89509600D01*
X143626269Y-89509600D01*
X144160878Y-89403260D01*
X144614097Y-89100428D01*
X144916929Y-88647209D01*
X145023269Y-88112600D01*
X144935005Y-87668864D01*
X145797869Y-86806000D01*
X157487825Y-86806000D01*
X157401141Y-86932866D01*
X157370536Y-87084000D01*
X157370536Y-89116000D01*
X157397103Y-89257190D01*
X157480546Y-89386865D01*
X157607866Y-89473859D01*
X157759000Y-89504464D01*
X159791000Y-89504464D01*
X159932190Y-89477897D01*
X160061865Y-89394454D01*
X160148859Y-89267134D01*
X160179464Y-89116000D01*
X160179464Y-88907728D01*
X160299803Y-89087828D01*
X160753022Y-89390660D01*
X161287631Y-89497000D01*
X161342369Y-89497000D01*
X161876978Y-89390660D01*
X162330197Y-89087828D01*
X162633029Y-88634609D01*
X162739369Y-88100000D01*
X162633029Y-87565391D01*
X162330197Y-87112172D01*
X162288035Y-87084000D01*
X175020536Y-87084000D01*
X175020536Y-89116000D01*
X175047103Y-89257190D01*
X175130546Y-89386865D01*
X175257866Y-89473859D01*
X175409000Y-89504464D01*
X177441000Y-89504464D01*
X177582190Y-89477897D01*
X177711865Y-89394454D01*
X177798859Y-89267134D01*
X177829464Y-89116000D01*
X177829464Y-88907728D01*
X177949803Y-89087828D01*
X178403022Y-89390660D01*
X178937631Y-89497000D01*
X178992369Y-89497000D01*
X179526978Y-89390660D01*
X179980197Y-89087828D01*
X180283029Y-88634609D01*
X180389369Y-88100000D01*
X180283029Y-87565391D01*
X179980197Y-87112172D01*
X179526978Y-86809340D01*
X178992369Y-86703000D01*
X178937631Y-86703000D01*
X178403022Y-86809340D01*
X177949803Y-87112172D01*
X177829464Y-87292272D01*
X177829464Y-87084000D01*
X177802897Y-86942810D01*
X177719454Y-86813135D01*
X177592134Y-86726141D01*
X177441000Y-86695536D01*
X175409000Y-86695536D01*
X175267810Y-86722103D01*
X175138135Y-86805546D01*
X175051141Y-86932866D01*
X175020536Y-87084000D01*
X162288035Y-87084000D01*
X161946000Y-86855459D01*
X161946000Y-86640000D01*
X161897968Y-86398527D01*
X161897968Y-86398526D01*
X161761184Y-86193815D01*
X161296184Y-85728816D01*
X161091473Y-85592032D01*
X160850000Y-85544000D01*
X145536500Y-85544000D01*
X145335089Y-85584063D01*
X145295026Y-85592032D01*
X145090315Y-85728816D01*
X144024349Y-86794783D01*
X143626269Y-86715600D01*
X143571531Y-86715600D01*
X143036922Y-86821940D01*
X142583703Y-87124772D01*
X142463364Y-87304872D01*
X142463364Y-87096600D01*
X142436797Y-86955410D01*
X142353354Y-86825735D01*
X142226034Y-86738741D01*
X142074900Y-86708136D01*
X140042900Y-86708136D01*
X139901710Y-86734703D01*
X139772035Y-86818146D01*
X139685041Y-86945466D01*
X139654436Y-87096600D01*
X126604817Y-87096600D01*
X126361978Y-86934340D01*
X125827369Y-86828000D01*
X125772631Y-86828000D01*
X125238022Y-86934340D01*
X124784803Y-87237172D01*
X124664464Y-87417272D01*
X124664464Y-87209000D01*
X124637897Y-87067810D01*
X124554454Y-86938135D01*
X124427134Y-86851141D01*
X124276000Y-86820536D01*
X122244000Y-86820536D01*
X122102810Y-86847103D01*
X121973135Y-86930546D01*
X121886141Y-87057866D01*
X121855536Y-87209000D01*
X114456000Y-87209000D01*
X114456000Y-85456000D01*
X194544000Y-85456000D01*
X194544000Y-136544000D01*
X194544000Y-136544000D01*
G37*
X194544000Y-136544000D02*
X114456000Y-136544000D01*
X114456000Y-132209000D01*
X121880536Y-132209000D01*
X121880536Y-134241000D01*
X121907103Y-134382190D01*
X121990546Y-134511865D01*
X122117866Y-134598859D01*
X122269000Y-134629464D01*
X124301000Y-134629464D01*
X124442190Y-134602897D01*
X124571865Y-134519454D01*
X124658859Y-134392134D01*
X124689464Y-134241000D01*
X124689464Y-134032728D01*
X124809803Y-134212828D01*
X125263022Y-134515660D01*
X125797631Y-134622000D01*
X125852369Y-134622000D01*
X126250449Y-134542817D01*
X127578816Y-135871184D01*
X127783527Y-136007968D01*
X128025000Y-136056000D01*
X142900000Y-136056000D01*
X143141473Y-136007968D01*
X143346184Y-135871184D01*
X143996185Y-135221184D01*
X144132968Y-135016473D01*
X144181000Y-134775000D01*
X144181000Y-134494541D01*
X144565197Y-134237828D01*
X144868029Y-133784609D01*
X144974369Y-133250000D01*
X144868029Y-132715391D01*
X144565197Y-132262172D01*
X144485620Y-132209000D01*
X157255536Y-132209000D01*
X157255536Y-134241000D01*
X157282103Y-134382190D01*
X157365546Y-134511865D01*
X157492866Y-134598859D01*
X157644000Y-134629464D01*
X159676000Y-134629464D01*
X159817190Y-134602897D01*
X159946865Y-134519454D01*
X160033859Y-134392134D01*
X160064464Y-134241000D01*
X160064464Y-134032728D01*
X160184803Y-134212828D01*
X160638022Y-134515660D01*
X161172631Y-134622000D01*
X161227369Y-134622000D01*
X161625449Y-134542817D01*
X162928815Y-135846184D01*
X163065599Y-135937580D01*
X163133527Y-135982968D01*
X163375000Y-136031000D01*
X178175000Y-136031000D01*
X178416473Y-135982968D01*
X178621184Y-135846184D01*
X179246184Y-135221185D01*
X179382967Y-135016474D01*
X179382968Y-135016473D01*
X179431000Y-134775000D01*
X179431000Y-134494541D01*
X179815197Y-134237828D01*
X180118029Y-133784609D01*
X180224369Y-133250000D01*
X180118029Y-132715391D01*
X179815197Y-132262172D01*
X179361978Y-131959340D01*
X178827369Y-131853000D01*
X178772631Y-131853000D01*
X178238022Y-131959340D01*
X177784803Y-132262172D01*
X177664464Y-132442272D01*
X177664464Y-132234000D01*
X177637897Y-132092810D01*
X177554454Y-131963135D01*
X177427134Y-131876141D01*
X177276000Y-131845536D01*
X175244000Y-131845536D01*
X175102810Y-131872103D01*
X174973135Y-131955546D01*
X174886141Y-132082866D01*
X174855536Y-132234000D01*
X174855536Y-134266000D01*
X174882103Y-134407190D01*
X174965546Y-134536865D01*
X175092866Y-134623859D01*
X175244000Y-134654464D01*
X177276000Y-134654464D01*
X177417190Y-134627897D01*
X177546865Y-134544454D01*
X177633859Y-134417134D01*
X177664464Y-134266000D01*
X177664464Y-134057728D01*
X177784803Y-134237828D01*
X178169000Y-134494541D01*
X178169000Y-134513631D01*
X177913632Y-134769000D01*
X163636369Y-134769000D01*
X162536105Y-133668736D01*
X162624369Y-133225000D01*
X162518029Y-132690391D01*
X162215197Y-132237172D01*
X161761978Y-131934340D01*
X161227369Y-131828000D01*
X161172631Y-131828000D01*
X160638022Y-131934340D01*
X160184803Y-132237172D01*
X160064464Y-132417272D01*
X160064464Y-132209000D01*
X160037897Y-132067810D01*
X159954454Y-131938135D01*
X159827134Y-131851141D01*
X159676000Y-131820536D01*
X157644000Y-131820536D01*
X157502810Y-131847103D01*
X157373135Y-131930546D01*
X157286141Y-132057866D01*
X157255536Y-132209000D01*
X144485620Y-132209000D01*
X144111978Y-131959340D01*
X143577369Y-131853000D01*
X143522631Y-131853000D01*
X142988022Y-131959340D01*
X142534803Y-132262172D01*
X142414464Y-132442272D01*
X142414464Y-132234000D01*
X142387897Y-132092810D01*
X142304454Y-131963135D01*
X142177134Y-131876141D01*
X142026000Y-131845536D01*
X139994000Y-131845536D01*
X139852810Y-131872103D01*
X139723135Y-131955546D01*
X139636141Y-132082866D01*
X139605536Y-132234000D01*
X139605536Y-134266000D01*
X139632103Y-134407190D01*
X139715546Y-134536865D01*
X139842866Y-134623859D01*
X139994000Y-134654464D01*
X142026000Y-134654464D01*
X142167190Y-134627897D01*
X142296865Y-134544454D01*
X142383859Y-134417134D01*
X142414464Y-134266000D01*
X142414464Y-134057728D01*
X142534803Y-134237828D01*
X142919000Y-134494541D01*
X142919000Y-134513631D01*
X142638632Y-134794000D01*
X128286368Y-134794000D01*
X127161105Y-133668737D01*
X127249369Y-133225000D01*
X127143029Y-132690391D01*
X126840197Y-132237172D01*
X126386978Y-131934340D01*
X125852369Y-131828000D01*
X125797631Y-131828000D01*
X125263022Y-131934340D01*
X124809803Y-132237172D01*
X124689464Y-132417272D01*
X124689464Y-132209000D01*
X124662897Y-132067810D01*
X124579454Y-131938135D01*
X124452134Y-131851141D01*
X124301000Y-131820536D01*
X122269000Y-131820536D01*
X122127810Y-131847103D01*
X121998135Y-131930546D01*
X121911141Y-132057866D01*
X121880536Y-132209000D01*
X114456000Y-132209000D01*
X114456000Y-128634000D01*
X119492936Y-128634000D01*
X119492936Y-130666000D01*
X119519503Y-130807190D01*
X119602946Y-130936865D01*
X119730266Y-131023859D01*
X119881400Y-131054464D01*
X121608600Y-131054464D01*
X121749790Y-131027897D01*
X121879465Y-130944454D01*
X121966459Y-130817134D01*
X121997064Y-130666000D01*
X121997064Y-130568817D01*
X122382964Y-131000732D01*
X122910209Y-131254709D01*
X122925974Y-131257358D01*
X123158000Y-131136217D01*
X123158000Y-129777000D01*
X123138000Y-129777000D01*
X123138000Y-129523000D01*
X123158000Y-129523000D01*
X123158000Y-128163783D01*
X123412000Y-128163783D01*
X123412000Y-129523000D01*
X123432000Y-129523000D01*
X123432000Y-129777000D01*
X123412000Y-129777000D01*
X123412000Y-131136217D01*
X123644026Y-131257358D01*
X123659791Y-131254709D01*
X124187036Y-131000732D01*
X124576954Y-130564320D01*
X124672296Y-130291757D01*
X124675140Y-130306057D01*
X124944935Y-130709834D01*
X125348712Y-130979629D01*
X125825000Y-131074369D01*
X126301288Y-130979629D01*
X126705065Y-130709834D01*
X126974860Y-130306057D01*
X127069600Y-129829769D01*
X127069600Y-129470231D01*
X126974860Y-128993943D01*
X126705065Y-128590166D01*
X126301288Y-128320371D01*
X125825000Y-128225631D01*
X125348712Y-128320371D01*
X124944935Y-128590166D01*
X124675140Y-128993943D01*
X124672296Y-129008243D01*
X124576954Y-128735680D01*
X124187036Y-128299268D01*
X123659791Y-128045291D01*
X123644026Y-128042642D01*
X123412000Y-128163783D01*
X123158000Y-128163783D01*
X122925974Y-128042642D01*
X122913445Y-128044747D01*
X127427192Y-123531000D01*
X143167877Y-123531000D01*
X143238741Y-123601987D01*
X143488946Y-123705882D01*
X143593857Y-123705973D01*
X143464804Y-123792204D01*
X138986472Y-128270536D01*
X137586400Y-128270536D01*
X137445210Y-128297103D01*
X137315535Y-128380546D01*
X137228541Y-128507866D01*
X137197936Y-128659000D01*
X137197936Y-130691000D01*
X137224503Y-130832190D01*
X137307946Y-130961865D01*
X137435266Y-131048859D01*
X137586400Y-131079464D01*
X139313600Y-131079464D01*
X139454790Y-131052897D01*
X139584465Y-130969454D01*
X139671459Y-130842134D01*
X139702064Y-130691000D01*
X139702064Y-130593817D01*
X140087964Y-131025732D01*
X140615209Y-131279709D01*
X140630974Y-131282358D01*
X140863000Y-131161217D01*
X140863000Y-129802000D01*
X140843000Y-129802000D01*
X140843000Y-129548000D01*
X140863000Y-129548000D01*
X140863000Y-128188783D01*
X141117000Y-128188783D01*
X141117000Y-129548000D01*
X141137000Y-129548000D01*
X141137000Y-129802000D01*
X141117000Y-129802000D01*
X141117000Y-131161217D01*
X141349026Y-131282358D01*
X141364791Y-131279709D01*
X141892036Y-131025732D01*
X142281954Y-130589320D01*
X142377296Y-130316757D01*
X142380140Y-130331057D01*
X142649935Y-130734834D01*
X143053712Y-131004629D01*
X143530000Y-131099369D01*
X144006288Y-131004629D01*
X144410065Y-130734834D01*
X144679860Y-130331057D01*
X144774600Y-129854769D01*
X144774600Y-129495231D01*
X144679860Y-129018943D01*
X144422650Y-128634000D01*
X154847936Y-128634000D01*
X154847936Y-130666000D01*
X154874503Y-130807190D01*
X154957946Y-130936865D01*
X155085266Y-131023859D01*
X155236400Y-131054464D01*
X156963600Y-131054464D01*
X157104790Y-131027897D01*
X157234465Y-130944454D01*
X157321459Y-130817134D01*
X157352064Y-130666000D01*
X157352064Y-130568817D01*
X157737964Y-131000732D01*
X158265209Y-131254709D01*
X158280974Y-131257358D01*
X158513000Y-131136217D01*
X158513000Y-129777000D01*
X158493000Y-129777000D01*
X158493000Y-129523000D01*
X158513000Y-129523000D01*
X158513000Y-128163783D01*
X158767000Y-128163783D01*
X158767000Y-129523000D01*
X158787000Y-129523000D01*
X158787000Y-129777000D01*
X158767000Y-129777000D01*
X158767000Y-131136217D01*
X158999026Y-131257358D01*
X159014791Y-131254709D01*
X159542036Y-131000732D01*
X159931954Y-130564320D01*
X160027296Y-130291757D01*
X160030140Y-130306057D01*
X160299935Y-130709834D01*
X160703712Y-130979629D01*
X161180000Y-131074369D01*
X161656288Y-130979629D01*
X162060065Y-130709834D01*
X162329860Y-130306057D01*
X162424600Y-129829769D01*
X162424600Y-129470231D01*
X162329860Y-128993943D01*
X162060065Y-128590166D01*
X161656288Y-128320371D01*
X161180000Y-128225631D01*
X160703712Y-128320371D01*
X160299935Y-128590166D01*
X160030140Y-128993943D01*
X160027296Y-129008243D01*
X159931954Y-128735680D01*
X159542036Y-128299268D01*
X159014791Y-128045291D01*
X158999026Y-128042642D01*
X158767000Y-128163783D01*
X158513000Y-128163783D01*
X158280974Y-128042642D01*
X158265209Y-128045291D01*
X157737964Y-128299268D01*
X157352064Y-128731183D01*
X157352064Y-128634000D01*
X157325497Y-128492810D01*
X157242054Y-128363135D01*
X157114734Y-128276141D01*
X156963600Y-128245536D01*
X156606000Y-128245536D01*
X156606000Y-126034592D01*
X158934561Y-123706031D01*
X159034865Y-123706118D01*
X159285252Y-123602661D01*
X159476987Y-123411259D01*
X159580882Y-123161054D01*
X159580883Y-123159865D01*
X162793882Y-123159865D01*
X162897339Y-123410252D01*
X163088741Y-123601987D01*
X163338946Y-123705882D01*
X163609865Y-123706118D01*
X163860252Y-123602661D01*
X163932038Y-123531000D01*
X166865408Y-123531000D01*
X172472936Y-129138528D01*
X172472936Y-130691000D01*
X172499503Y-130832190D01*
X172582946Y-130961865D01*
X172710266Y-131048859D01*
X172861400Y-131079464D01*
X174588600Y-131079464D01*
X174729790Y-131052897D01*
X174859465Y-130969454D01*
X174946459Y-130842134D01*
X174977064Y-130691000D01*
X174977064Y-130593817D01*
X175362964Y-131025732D01*
X175890209Y-131279709D01*
X175905974Y-131282358D01*
X176138000Y-131161217D01*
X176138000Y-129802000D01*
X176118000Y-129802000D01*
X176118000Y-129548000D01*
X176138000Y-129548000D01*
X176138000Y-128188783D01*
X176392000Y-128188783D01*
X176392000Y-129548000D01*
X176412000Y-129548000D01*
X176412000Y-129802000D01*
X176392000Y-129802000D01*
X176392000Y-131161217D01*
X176624026Y-131282358D01*
X176639791Y-131279709D01*
X177167036Y-131025732D01*
X177556954Y-130589320D01*
X177652296Y-130316757D01*
X177655140Y-130331057D01*
X177924935Y-130734834D01*
X178328712Y-131004629D01*
X178805000Y-131099369D01*
X179281288Y-131004629D01*
X179685065Y-130734834D01*
X179954860Y-130331057D01*
X180049600Y-129854769D01*
X180049600Y-129495231D01*
X179954860Y-129018943D01*
X179685065Y-128615166D01*
X179281288Y-128345371D01*
X178805000Y-128250631D01*
X178328712Y-128345371D01*
X177924935Y-128615166D01*
X177655140Y-129018943D01*
X177652296Y-129033243D01*
X177556954Y-128760680D01*
X177167036Y-128324268D01*
X176639791Y-128070291D01*
X176624026Y-128067642D01*
X176392000Y-128188783D01*
X176138000Y-128188783D01*
X175905974Y-128067642D01*
X175890209Y-128070291D01*
X175362964Y-128324268D01*
X174977064Y-128756183D01*
X174977064Y-128659000D01*
X174950497Y-128517810D01*
X174867054Y-128388135D01*
X174739734Y-128301141D01*
X174588600Y-128270536D01*
X173036128Y-128270536D01*
X167432796Y-122667204D01*
X167268638Y-122557517D01*
X167075000Y-122519000D01*
X163932123Y-122519000D01*
X163861259Y-122448013D01*
X163611054Y-122344118D01*
X163340135Y-122343882D01*
X163089748Y-122447339D01*
X162898013Y-122638741D01*
X162794118Y-122888946D01*
X162793882Y-123159865D01*
X159580883Y-123159865D01*
X159581118Y-122890135D01*
X159477661Y-122639748D01*
X159286259Y-122448013D01*
X159036054Y-122344118D01*
X158765135Y-122343882D01*
X158514748Y-122447339D01*
X158323013Y-122638741D01*
X158219118Y-122888946D01*
X158219030Y-122990378D01*
X155742204Y-125467204D01*
X155632517Y-125631362D01*
X155594000Y-125825000D01*
X155594000Y-128245536D01*
X155236400Y-128245536D01*
X155095210Y-128272103D01*
X154965535Y-128355546D01*
X154878541Y-128482866D01*
X154847936Y-128634000D01*
X144422650Y-128634000D01*
X144410065Y-128615166D01*
X144006288Y-128345371D01*
X143530000Y-128250631D01*
X143053712Y-128345371D01*
X142649935Y-128615166D01*
X142380140Y-129018943D01*
X142377296Y-129033243D01*
X142281954Y-128760680D01*
X141892036Y-128324268D01*
X141364791Y-128070291D01*
X141349026Y-128067642D01*
X141117000Y-128188783D01*
X140863000Y-128188783D01*
X140630974Y-128067642D01*
X140618445Y-128069747D01*
X144032192Y-124656000D01*
X154542877Y-124656000D01*
X154613741Y-124726987D01*
X154863946Y-124830882D01*
X155134865Y-124831118D01*
X155385252Y-124727661D01*
X155576987Y-124536259D01*
X155680882Y-124286054D01*
X155681118Y-124015135D01*
X155577661Y-123764748D01*
X155386259Y-123573013D01*
X155136054Y-123469118D01*
X154865135Y-123468882D01*
X154614748Y-123572339D01*
X154542962Y-123644000D01*
X143910203Y-123644000D01*
X144010252Y-123602661D01*
X144201987Y-123411259D01*
X144305882Y-123161054D01*
X144306118Y-122890135D01*
X144202661Y-122639748D01*
X144011259Y-122448013D01*
X143761054Y-122344118D01*
X143490135Y-122343882D01*
X143239748Y-122447339D01*
X143167962Y-122519000D01*
X127217600Y-122519000D01*
X127023962Y-122557517D01*
X126902402Y-122638741D01*
X126859804Y-122667204D01*
X121281472Y-128245536D01*
X119881400Y-128245536D01*
X119740210Y-128272103D01*
X119610535Y-128355546D01*
X119523541Y-128482866D01*
X119492936Y-128634000D01*
X114456000Y-128634000D01*
X114456000Y-114059865D01*
X156393882Y-114059865D01*
X156497339Y-114310252D01*
X156688741Y-114501987D01*
X156938946Y-114605882D01*
X157209865Y-114606118D01*
X157460252Y-114502661D01*
X157651987Y-114311259D01*
X157755882Y-114061054D01*
X157755970Y-113959622D01*
X163521262Y-108194330D01*
X163434397Y-108403523D01*
X163434161Y-108674442D01*
X163537618Y-108924829D01*
X163729020Y-109116564D01*
X163979225Y-109220459D01*
X164189153Y-109220642D01*
X164189084Y-109299452D01*
X164292541Y-109549839D01*
X164483943Y-109741574D01*
X164734148Y-109845469D01*
X164835580Y-109845557D01*
X167572819Y-112582796D01*
X167701816Y-112668989D01*
X162650009Y-112668989D01*
X162456371Y-112707506D01*
X162314970Y-112801987D01*
X162292213Y-112817193D01*
X160817202Y-114292204D01*
X160707515Y-114456362D01*
X160668998Y-114650000D01*
X160668998Y-114742877D01*
X160598011Y-114813741D01*
X160494116Y-115063946D01*
X160493880Y-115334865D01*
X160597337Y-115585252D01*
X160788739Y-115776987D01*
X161038944Y-115880882D01*
X161309863Y-115881118D01*
X161560250Y-115777661D01*
X161751985Y-115586259D01*
X161810950Y-115444257D01*
X161838946Y-115455882D01*
X162109865Y-115456118D01*
X162360252Y-115352661D01*
X162551987Y-115161259D01*
X162655882Y-114911054D01*
X162655970Y-114809622D01*
X163334592Y-114131000D01*
X171000000Y-114131000D01*
X171193638Y-114092483D01*
X171357796Y-113982796D01*
X172756566Y-112584026D01*
X190417642Y-112584026D01*
X190420291Y-112599791D01*
X190674268Y-113127036D01*
X191106183Y-113512936D01*
X191009000Y-113512936D01*
X190867810Y-113539503D01*
X190738135Y-113622946D01*
X190651141Y-113750266D01*
X190620536Y-113901400D01*
X190620536Y-115628600D01*
X190647103Y-115769790D01*
X190730546Y-115899465D01*
X190857866Y-115986459D01*
X191009000Y-116017064D01*
X193041000Y-116017064D01*
X193182190Y-115990497D01*
X193311865Y-115907054D01*
X193398859Y-115779734D01*
X193429464Y-115628600D01*
X193429464Y-113901400D01*
X193402897Y-113760210D01*
X193319454Y-113630535D01*
X193192134Y-113543541D01*
X193041000Y-113512936D01*
X192943817Y-113512936D01*
X193375732Y-113127036D01*
X193629709Y-112599791D01*
X193632358Y-112584026D01*
X193511217Y-112352000D01*
X192152000Y-112352000D01*
X192152000Y-112372000D01*
X191898000Y-112372000D01*
X191898000Y-112352000D01*
X190538783Y-112352000D01*
X190417642Y-112584026D01*
X172756566Y-112584026D01*
X175149592Y-110191000D01*
X190715224Y-110191000D01*
X190965166Y-110565065D01*
X191368943Y-110834860D01*
X191383243Y-110837704D01*
X191110680Y-110933046D01*
X190674268Y-111322964D01*
X190420291Y-111850209D01*
X190417642Y-111865974D01*
X190538783Y-112098000D01*
X191898000Y-112098000D01*
X191898000Y-112078000D01*
X192152000Y-112078000D01*
X192152000Y-112098000D01*
X193511217Y-112098000D01*
X193632358Y-111865974D01*
X193629709Y-111850209D01*
X193375732Y-111322964D01*
X192939320Y-110933046D01*
X192666757Y-110837704D01*
X192681057Y-110834860D01*
X193084834Y-110565065D01*
X193354629Y-110161288D01*
X193449369Y-109685000D01*
X193354629Y-109208712D01*
X193084834Y-108804935D01*
X192681057Y-108535140D01*
X192204769Y-108440400D01*
X191845231Y-108440400D01*
X191368943Y-108535140D01*
X190965166Y-108804935D01*
X190715224Y-109179000D01*
X175525182Y-109179000D01*
X177053182Y-107651000D01*
X190715224Y-107651000D01*
X190965166Y-108025065D01*
X191368943Y-108294860D01*
X191845231Y-108389600D01*
X192204769Y-108389600D01*
X192681057Y-108294860D01*
X193084834Y-108025065D01*
X193354629Y-107621288D01*
X193449369Y-107145000D01*
X193354629Y-106668712D01*
X193084834Y-106264935D01*
X192681057Y-105995140D01*
X192204769Y-105900400D01*
X191845231Y-105900400D01*
X191368943Y-105995140D01*
X190965166Y-106264935D01*
X190715224Y-106639000D01*
X176843590Y-106639000D01*
X176649952Y-106677517D01*
X176485794Y-106787204D01*
X170604009Y-112668989D01*
X170244157Y-112668989D01*
X170301987Y-112611259D01*
X170405882Y-112361054D01*
X170406118Y-112090135D01*
X170302661Y-111839748D01*
X170111259Y-111648013D01*
X169861054Y-111544118D01*
X169590135Y-111543882D01*
X169339748Y-111647339D01*
X169267962Y-111719000D01*
X168140207Y-111719000D01*
X165551233Y-109130026D01*
X165551306Y-109045577D01*
X167429985Y-109045577D01*
X169043967Y-110659559D01*
X169043880Y-110759865D01*
X169147337Y-111010252D01*
X169338739Y-111201987D01*
X169588944Y-111305882D01*
X169859863Y-111306118D01*
X170110250Y-111202661D01*
X170301985Y-111011259D01*
X170405880Y-110761054D01*
X170406116Y-110490135D01*
X170302659Y-110239748D01*
X170111257Y-110048013D01*
X169861052Y-109944118D01*
X169759622Y-109944030D01*
X167997373Y-108181781D01*
X167833215Y-108072094D01*
X167639577Y-108033577D01*
X164572402Y-108033577D01*
X164501538Y-107962590D01*
X164251333Y-107858695D01*
X163980414Y-107858459D01*
X163770328Y-107945264D01*
X163909540Y-107806052D01*
X163984865Y-107806118D01*
X164235252Y-107702661D01*
X164426987Y-107511259D01*
X164530882Y-107261054D01*
X164531118Y-106990135D01*
X164427661Y-106739748D01*
X164236259Y-106548013D01*
X163986054Y-106444118D01*
X163715135Y-106443882D01*
X163464748Y-106547339D01*
X163273013Y-106738741D01*
X163169118Y-106988946D01*
X163169008Y-107115400D01*
X157040439Y-113243969D01*
X156940135Y-113243882D01*
X156689748Y-113347339D01*
X156498013Y-113538741D01*
X156394118Y-113788946D01*
X156393882Y-114059865D01*
X114456000Y-114059865D01*
X114456000Y-103234865D01*
X141268882Y-103234865D01*
X141372339Y-103485252D01*
X141563741Y-103676987D01*
X141813946Y-103780882D01*
X141915378Y-103780970D01*
X143444000Y-105309592D01*
X143444000Y-107217875D01*
X143373013Y-107288739D01*
X143269118Y-107538944D01*
X143268882Y-107809863D01*
X143372339Y-108060250D01*
X143563741Y-108251985D01*
X143813946Y-108355880D01*
X144069001Y-108356102D01*
X144069001Y-108650048D01*
X144052155Y-108734736D01*
X143973013Y-108813741D01*
X143869118Y-109063946D01*
X143868882Y-109334865D01*
X143972339Y-109585252D01*
X144163741Y-109776987D01*
X144413946Y-109880882D01*
X144684865Y-109881118D01*
X144719000Y-109867014D01*
X144719000Y-110392877D01*
X144648013Y-110463741D01*
X144544118Y-110713946D01*
X144543882Y-110984865D01*
X144647339Y-111235252D01*
X144838741Y-111426987D01*
X145088946Y-111530882D01*
X145359865Y-111531118D01*
X145610252Y-111427661D01*
X145801987Y-111236259D01*
X145905882Y-110986054D01*
X145906118Y-110715135D01*
X145802661Y-110464748D01*
X145731000Y-110392962D01*
X145731000Y-105084592D01*
X146259561Y-104556031D01*
X146359865Y-104556118D01*
X146610252Y-104452661D01*
X146801987Y-104261259D01*
X146905882Y-104011054D01*
X146906118Y-103740135D01*
X146891435Y-103704598D01*
X146938741Y-103751987D01*
X147188946Y-103855882D01*
X147459865Y-103856118D01*
X147710252Y-103752661D01*
X147901987Y-103561259D01*
X148005882Y-103311054D01*
X148006118Y-103040135D01*
X147902661Y-102789748D01*
X147711259Y-102598013D01*
X147461054Y-102494118D01*
X147190135Y-102493882D01*
X146939748Y-102597339D01*
X146867962Y-102669000D01*
X145875000Y-102669000D01*
X145681362Y-102707517D01*
X145517204Y-102817204D01*
X144217205Y-104117203D01*
X144107518Y-104281361D01*
X144069001Y-104474999D01*
X144069001Y-104503409D01*
X142631031Y-103065439D01*
X142631118Y-102965135D01*
X142527661Y-102714748D01*
X142336259Y-102523013D01*
X142086054Y-102419118D01*
X141815135Y-102418882D01*
X141564748Y-102522339D01*
X141373013Y-102713741D01*
X141269118Y-102963946D01*
X141268882Y-103234865D01*
X114456000Y-103234865D01*
X114456000Y-90809000D01*
X119467936Y-90809000D01*
X119467936Y-92841000D01*
X119494503Y-92982190D01*
X119577946Y-93111865D01*
X119705266Y-93198859D01*
X119856400Y-93229464D01*
X121583600Y-93229464D01*
X121724790Y-93202897D01*
X121854465Y-93119454D01*
X121941459Y-92992134D01*
X121972064Y-92841000D01*
X121972064Y-92743817D01*
X122357964Y-93175732D01*
X122885209Y-93429709D01*
X122900974Y-93432358D01*
X123133000Y-93311217D01*
X123133000Y-91952000D01*
X123113000Y-91952000D01*
X123113000Y-91698000D01*
X123133000Y-91698000D01*
X123133000Y-90338783D01*
X123387000Y-90338783D01*
X123387000Y-91698000D01*
X123407000Y-91698000D01*
X123407000Y-91952000D01*
X123387000Y-91952000D01*
X123387000Y-93311217D01*
X123619026Y-93432358D01*
X123634791Y-93429709D01*
X124162036Y-93175732D01*
X124551954Y-92739320D01*
X124647296Y-92466757D01*
X124650140Y-92481057D01*
X124919935Y-92884834D01*
X125323712Y-93154629D01*
X125800000Y-93249369D01*
X126276288Y-93154629D01*
X126680065Y-92884834D01*
X126949860Y-92481057D01*
X127044600Y-92004769D01*
X127044600Y-91645231D01*
X126949860Y-91168943D01*
X126680065Y-90765166D01*
X126549612Y-90678000D01*
X137254136Y-90678000D01*
X137254136Y-92710000D01*
X137280703Y-92851190D01*
X137364146Y-92980865D01*
X137491466Y-93067859D01*
X137642600Y-93098464D01*
X139042672Y-93098464D01*
X154902006Y-108957798D01*
X155066164Y-109067485D01*
X155259802Y-109106002D01*
X159549262Y-109106002D01*
X159742900Y-109067485D01*
X159907058Y-108957798D01*
X160982795Y-107882061D01*
X161092482Y-107717903D01*
X161130999Y-107524265D01*
X161130999Y-107124999D01*
X161092482Y-106931361D01*
X161006021Y-106801963D01*
X161006118Y-106690135D01*
X160902661Y-106439748D01*
X160711259Y-106248013D01*
X160585206Y-106195671D01*
X170196012Y-96584865D01*
X182193882Y-96584865D01*
X182244000Y-96706161D01*
X182244000Y-102925000D01*
X182266902Y-103040135D01*
X182292032Y-103166473D01*
X182428816Y-103371184D01*
X184572667Y-105515036D01*
X184622339Y-105635252D01*
X184813741Y-105826987D01*
X185063946Y-105930882D01*
X185334865Y-105931118D01*
X185585252Y-105827661D01*
X185776987Y-105636259D01*
X185880882Y-105386054D01*
X185881118Y-105115135D01*
X185777661Y-104864748D01*
X185586259Y-104673013D01*
X185465052Y-104622683D01*
X183506000Y-102663632D01*
X183506000Y-96706182D01*
X183555882Y-96586054D01*
X183556118Y-96315135D01*
X183452661Y-96064748D01*
X183261259Y-95873013D01*
X183011054Y-95769118D01*
X182740135Y-95768882D01*
X182489748Y-95872339D01*
X182298013Y-96063741D01*
X182194118Y-96313946D01*
X182193882Y-96584865D01*
X170196012Y-96584865D01*
X173119196Y-93661681D01*
X173228883Y-93497523D01*
X173267400Y-93303885D01*
X173267400Y-93150592D01*
X173338528Y-93079464D01*
X174738600Y-93079464D01*
X174879790Y-93052897D01*
X175009465Y-92969454D01*
X175096459Y-92842134D01*
X175127064Y-92691000D01*
X175127064Y-92593817D01*
X175512964Y-93025732D01*
X176040209Y-93279709D01*
X176055974Y-93282358D01*
X176288000Y-93161217D01*
X176288000Y-91802000D01*
X176268000Y-91802000D01*
X176268000Y-91548000D01*
X176288000Y-91548000D01*
X176288000Y-90188783D01*
X176542000Y-90188783D01*
X176542000Y-91548000D01*
X176562000Y-91548000D01*
X176562000Y-91802000D01*
X176542000Y-91802000D01*
X176542000Y-93161217D01*
X176774026Y-93282358D01*
X176789791Y-93279709D01*
X177317036Y-93025732D01*
X177706954Y-92589320D01*
X177802296Y-92316757D01*
X177805140Y-92331057D01*
X178074935Y-92734834D01*
X178478712Y-93004629D01*
X178955000Y-93099369D01*
X179431288Y-93004629D01*
X179835065Y-92734834D01*
X180104860Y-92331057D01*
X180199600Y-91854769D01*
X180199600Y-91495231D01*
X180104860Y-91018943D01*
X179835065Y-90615166D01*
X179431288Y-90345371D01*
X178955000Y-90250631D01*
X178478712Y-90345371D01*
X178074935Y-90615166D01*
X177805140Y-91018943D01*
X177802296Y-91033243D01*
X177706954Y-90760680D01*
X177317036Y-90324268D01*
X176789791Y-90070291D01*
X176774026Y-90067642D01*
X176542000Y-90188783D01*
X176288000Y-90188783D01*
X176055974Y-90067642D01*
X176040209Y-90070291D01*
X175512964Y-90324268D01*
X175127064Y-90756183D01*
X175127064Y-90659000D01*
X175100497Y-90517810D01*
X175017054Y-90388135D01*
X174889734Y-90301141D01*
X174738600Y-90270536D01*
X173011400Y-90270536D01*
X172870210Y-90297103D01*
X172740535Y-90380546D01*
X172653541Y-90507866D01*
X172622936Y-90659000D01*
X172622936Y-92363872D01*
X172403604Y-92583204D01*
X172293917Y-92747362D01*
X172255400Y-92941000D01*
X172255400Y-93094293D01*
X158960600Y-106389093D01*
X158860296Y-106389006D01*
X158609909Y-106492463D01*
X158418174Y-106683865D01*
X158354001Y-106838411D01*
X156731000Y-105215410D01*
X156731000Y-93079464D01*
X157088600Y-93079464D01*
X157229790Y-93052897D01*
X157359465Y-92969454D01*
X157446459Y-92842134D01*
X157477064Y-92691000D01*
X157477064Y-92593817D01*
X157862964Y-93025732D01*
X158390209Y-93279709D01*
X158405974Y-93282358D01*
X158638000Y-93161217D01*
X158638000Y-91802000D01*
X158618000Y-91802000D01*
X158618000Y-91548000D01*
X158638000Y-91548000D01*
X158638000Y-90188783D01*
X158892000Y-90188783D01*
X158892000Y-91548000D01*
X158912000Y-91548000D01*
X158912000Y-91802000D01*
X158892000Y-91802000D01*
X158892000Y-93161217D01*
X159124026Y-93282358D01*
X159139791Y-93279709D01*
X159667036Y-93025732D01*
X160056954Y-92589320D01*
X160152296Y-92316757D01*
X160155140Y-92331057D01*
X160424935Y-92734834D01*
X160828712Y-93004629D01*
X161305000Y-93099369D01*
X161781288Y-93004629D01*
X162185065Y-92734834D01*
X162454860Y-92331057D01*
X162549600Y-91854769D01*
X162549600Y-91495231D01*
X162454860Y-91018943D01*
X162185065Y-90615166D01*
X161781288Y-90345371D01*
X161305000Y-90250631D01*
X160828712Y-90345371D01*
X160424935Y-90615166D01*
X160155140Y-91018943D01*
X160152296Y-91033243D01*
X160056954Y-90760680D01*
X159667036Y-90324268D01*
X159139791Y-90070291D01*
X159124026Y-90067642D01*
X158892000Y-90188783D01*
X158638000Y-90188783D01*
X158405974Y-90067642D01*
X158390209Y-90070291D01*
X157862964Y-90324268D01*
X157477064Y-90756183D01*
X157477064Y-90659000D01*
X157450497Y-90517810D01*
X157367054Y-90388135D01*
X157239734Y-90301141D01*
X157088600Y-90270536D01*
X155361400Y-90270536D01*
X155220210Y-90297103D01*
X155090535Y-90380546D01*
X155003541Y-90507866D01*
X154972936Y-90659000D01*
X154972936Y-92691000D01*
X154999503Y-92832190D01*
X155082946Y-92961865D01*
X155210266Y-93048859D01*
X155361400Y-93079464D01*
X155719000Y-93079464D01*
X155719000Y-105103408D01*
X155278347Y-104662755D01*
X155114189Y-104553068D01*
X154920551Y-104514551D01*
X154711572Y-104514551D01*
X154640708Y-104443564D01*
X154390503Y-104339669D01*
X154119584Y-104339433D01*
X153869197Y-104442890D01*
X153677462Y-104634292D01*
X153573567Y-104884497D01*
X153573331Y-105155416D01*
X153676788Y-105405803D01*
X153868190Y-105597538D01*
X154118395Y-105701433D01*
X154389314Y-105701669D01*
X154639701Y-105598212D01*
X154711223Y-105526815D01*
X156918967Y-107734559D01*
X156918880Y-107834863D01*
X157022337Y-108085250D01*
X157031074Y-108094002D01*
X155469394Y-108094002D01*
X140674645Y-93299253D01*
X140687174Y-93301358D01*
X140919200Y-93180217D01*
X140919200Y-91821000D01*
X140899200Y-91821000D01*
X140899200Y-91567000D01*
X140919200Y-91567000D01*
X140919200Y-90207783D01*
X141173200Y-90207783D01*
X141173200Y-91567000D01*
X141193200Y-91567000D01*
X141193200Y-91821000D01*
X141173200Y-91821000D01*
X141173200Y-93180217D01*
X141405226Y-93301358D01*
X141420991Y-93298709D01*
X141948236Y-93044732D01*
X142338154Y-92608320D01*
X142433496Y-92335757D01*
X142436340Y-92350057D01*
X142706135Y-92753834D01*
X143109912Y-93023629D01*
X143586200Y-93118369D01*
X144062488Y-93023629D01*
X144466265Y-92753834D01*
X144736060Y-92350057D01*
X144830800Y-91873769D01*
X144830800Y-91514231D01*
X144736060Y-91037943D01*
X144466265Y-90634166D01*
X144062488Y-90364371D01*
X143586200Y-90269631D01*
X143109912Y-90364371D01*
X142706135Y-90634166D01*
X142436340Y-91037943D01*
X142433496Y-91052243D01*
X142338154Y-90779680D01*
X141948236Y-90343268D01*
X141420991Y-90089291D01*
X141405226Y-90086642D01*
X141173200Y-90207783D01*
X140919200Y-90207783D01*
X140687174Y-90086642D01*
X140671409Y-90089291D01*
X140144164Y-90343268D01*
X139758264Y-90775183D01*
X139758264Y-90678000D01*
X139731697Y-90536810D01*
X139648254Y-90407135D01*
X139520934Y-90320141D01*
X139369800Y-90289536D01*
X137642600Y-90289536D01*
X137501410Y-90316103D01*
X137371735Y-90399546D01*
X137284741Y-90526866D01*
X137254136Y-90678000D01*
X126549612Y-90678000D01*
X126276288Y-90495371D01*
X125800000Y-90400631D01*
X125323712Y-90495371D01*
X124919935Y-90765166D01*
X124650140Y-91168943D01*
X124647296Y-91183243D01*
X124551954Y-90910680D01*
X124162036Y-90474268D01*
X123634791Y-90220291D01*
X123619026Y-90217642D01*
X123387000Y-90338783D01*
X123133000Y-90338783D01*
X122900974Y-90217642D01*
X122885209Y-90220291D01*
X122357964Y-90474268D01*
X121972064Y-90906183D01*
X121972064Y-90809000D01*
X121945497Y-90667810D01*
X121862054Y-90538135D01*
X121734734Y-90451141D01*
X121583600Y-90420536D01*
X119856400Y-90420536D01*
X119715210Y-90447103D01*
X119585535Y-90530546D01*
X119498541Y-90657866D01*
X119467936Y-90809000D01*
X114456000Y-90809000D01*
X114456000Y-87209000D01*
X121855536Y-87209000D01*
X121855536Y-89241000D01*
X121882103Y-89382190D01*
X121965546Y-89511865D01*
X122092866Y-89598859D01*
X122244000Y-89629464D01*
X124276000Y-89629464D01*
X124417190Y-89602897D01*
X124546865Y-89519454D01*
X124633859Y-89392134D01*
X124664464Y-89241000D01*
X124664464Y-89032728D01*
X124784803Y-89212828D01*
X125238022Y-89515660D01*
X125772631Y-89622000D01*
X125827369Y-89622000D01*
X126361978Y-89515660D01*
X126815197Y-89212828D01*
X127118029Y-88759609D01*
X127224369Y-88225000D01*
X127118029Y-87690391D01*
X126815197Y-87237172D01*
X126604817Y-87096600D01*
X139654436Y-87096600D01*
X139654436Y-89128600D01*
X139681003Y-89269790D01*
X139764446Y-89399465D01*
X139891766Y-89486459D01*
X140042900Y-89517064D01*
X142074900Y-89517064D01*
X142216090Y-89490497D01*
X142345765Y-89407054D01*
X142432759Y-89279734D01*
X142463364Y-89128600D01*
X142463364Y-88920328D01*
X142583703Y-89100428D01*
X143036922Y-89403260D01*
X143571531Y-89509600D01*
X143626269Y-89509600D01*
X144160878Y-89403260D01*
X144614097Y-89100428D01*
X144916929Y-88647209D01*
X145023269Y-88112600D01*
X144935005Y-87668864D01*
X145797869Y-86806000D01*
X157487825Y-86806000D01*
X157401141Y-86932866D01*
X157370536Y-87084000D01*
X157370536Y-89116000D01*
X157397103Y-89257190D01*
X157480546Y-89386865D01*
X157607866Y-89473859D01*
X157759000Y-89504464D01*
X159791000Y-89504464D01*
X159932190Y-89477897D01*
X160061865Y-89394454D01*
X160148859Y-89267134D01*
X160179464Y-89116000D01*
X160179464Y-88907728D01*
X160299803Y-89087828D01*
X160753022Y-89390660D01*
X161287631Y-89497000D01*
X161342369Y-89497000D01*
X161876978Y-89390660D01*
X162330197Y-89087828D01*
X162633029Y-88634609D01*
X162739369Y-88100000D01*
X162633029Y-87565391D01*
X162330197Y-87112172D01*
X162288035Y-87084000D01*
X175020536Y-87084000D01*
X175020536Y-89116000D01*
X175047103Y-89257190D01*
X175130546Y-89386865D01*
X175257866Y-89473859D01*
X175409000Y-89504464D01*
X177441000Y-89504464D01*
X177582190Y-89477897D01*
X177711865Y-89394454D01*
X177798859Y-89267134D01*
X177829464Y-89116000D01*
X177829464Y-88907728D01*
X177949803Y-89087828D01*
X178403022Y-89390660D01*
X178937631Y-89497000D01*
X178992369Y-89497000D01*
X179526978Y-89390660D01*
X179980197Y-89087828D01*
X180283029Y-88634609D01*
X180389369Y-88100000D01*
X180283029Y-87565391D01*
X179980197Y-87112172D01*
X179526978Y-86809340D01*
X178992369Y-86703000D01*
X178937631Y-86703000D01*
X178403022Y-86809340D01*
X177949803Y-87112172D01*
X177829464Y-87292272D01*
X177829464Y-87084000D01*
X177802897Y-86942810D01*
X177719454Y-86813135D01*
X177592134Y-86726141D01*
X177441000Y-86695536D01*
X175409000Y-86695536D01*
X175267810Y-86722103D01*
X175138135Y-86805546D01*
X175051141Y-86932866D01*
X175020536Y-87084000D01*
X162288035Y-87084000D01*
X161946000Y-86855459D01*
X161946000Y-86640000D01*
X161897968Y-86398527D01*
X161897968Y-86398526D01*
X161761184Y-86193815D01*
X161296184Y-85728816D01*
X161091473Y-85592032D01*
X160850000Y-85544000D01*
X145536500Y-85544000D01*
X145335089Y-85584063D01*
X145295026Y-85592032D01*
X145090315Y-85728816D01*
X144024349Y-86794783D01*
X143626269Y-86715600D01*
X143571531Y-86715600D01*
X143036922Y-86821940D01*
X142583703Y-87124772D01*
X142463364Y-87304872D01*
X142463364Y-87096600D01*
X142436797Y-86955410D01*
X142353354Y-86825735D01*
X142226034Y-86738741D01*
X142074900Y-86708136D01*
X140042900Y-86708136D01*
X139901710Y-86734703D01*
X139772035Y-86818146D01*
X139685041Y-86945466D01*
X139654436Y-87096600D01*
X126604817Y-87096600D01*
X126361978Y-86934340D01*
X125827369Y-86828000D01*
X125772631Y-86828000D01*
X125238022Y-86934340D01*
X124784803Y-87237172D01*
X124664464Y-87417272D01*
X124664464Y-87209000D01*
X124637897Y-87067810D01*
X124554454Y-86938135D01*
X124427134Y-86851141D01*
X124276000Y-86820536D01*
X122244000Y-86820536D01*
X122102810Y-86847103D01*
X121973135Y-86930546D01*
X121886141Y-87057866D01*
X121855536Y-87209000D01*
X114456000Y-87209000D01*
X114456000Y-85456000D01*
X194544000Y-85456000D01*
X194544000Y-136544000D01*
M02*
