G04 #@! TF.FileFunction,Soldermask,Bot*
%FSLAX46Y46*%
G04 Gerber Fmt 4.6, Leading zero omitted, Abs format (unit mm)*
G04 Created by KiCad (PCBNEW 4.0.2-stable) date 2017年04月18日 星期二 03:54:15*
%MOMM*%
G01*
G04 APERTURE LIST*
%ADD10C,0.100000*%
%ADD11R,2.432000X2.432000*%
%ADD12O,2.432000X2.432000*%
%ADD13R,2.432000X2.127200*%
%ADD14O,2.432000X2.127200*%
%ADD15R,2.127200X2.432000*%
%ADD16O,2.127200X2.432000*%
G04 APERTURE END LIST*
D10*
D11*
X123260000Y-88225000D03*
D12*
X125800000Y-88225000D03*
D11*
X141058900Y-88112600D03*
D12*
X143598900Y-88112600D03*
D11*
X158775000Y-88100000D03*
D12*
X161315000Y-88100000D03*
D11*
X176425000Y-88100000D03*
D12*
X178965000Y-88100000D03*
D11*
X123285000Y-133225000D03*
D12*
X125825000Y-133225000D03*
D11*
X141010000Y-133250000D03*
D12*
X143550000Y-133250000D03*
D11*
X158660000Y-133225000D03*
D12*
X161200000Y-133225000D03*
D11*
X176260000Y-133250000D03*
D12*
X178800000Y-133250000D03*
D13*
X192025000Y-114765000D03*
D14*
X192025000Y-112225000D03*
X192025000Y-109685000D03*
X192025000Y-107145000D03*
D15*
X120720000Y-91825000D03*
D16*
X123260000Y-91825000D03*
X125800000Y-91825000D03*
D15*
X138506200Y-91694000D03*
D16*
X141046200Y-91694000D03*
X143586200Y-91694000D03*
D15*
X156225000Y-91675000D03*
D16*
X158765000Y-91675000D03*
X161305000Y-91675000D03*
D15*
X173875000Y-91675000D03*
D16*
X176415000Y-91675000D03*
X178955000Y-91675000D03*
D15*
X120745000Y-129650000D03*
D16*
X123285000Y-129650000D03*
X125825000Y-129650000D03*
D15*
X138450000Y-129675000D03*
D16*
X140990000Y-129675000D03*
X143530000Y-129675000D03*
D15*
X156100000Y-129650000D03*
D16*
X158640000Y-129650000D03*
X161180000Y-129650000D03*
D15*
X173725000Y-129675000D03*
D16*
X176265000Y-129675000D03*
X178805000Y-129675000D03*
M02*
