G04 #@! TF.FileFunction,Legend,Bot*
%FSLAX46Y46*%
G04 Gerber Fmt 4.6, Leading zero omitted, Abs format (unit mm)*
G04 Created by KiCad (PCBNEW 4.0.2-stable) date 2017年04月24日 星期一 06:29:02*
%MOMM*%
G01*
G04 APERTURE LIST*
%ADD10C,0.100000*%
%ADD11C,0.300000*%
G04 APERTURE END LIST*
D10*
D11*
X174996429Y-110396429D02*
X174139286Y-110682143D01*
X173853571Y-110967857D01*
X173567857Y-111539286D01*
X173567857Y-112396429D01*
X173853571Y-112967857D01*
X174139286Y-113253571D01*
X174710714Y-113539286D01*
X176996429Y-113539286D01*
X176996429Y-107539286D01*
X174996429Y-107539286D01*
X174425000Y-107825000D01*
X174139286Y-108110714D01*
X173853571Y-108682143D01*
X173853571Y-109253571D01*
X174139286Y-109825000D01*
X174425000Y-110110714D01*
X174996429Y-110396429D01*
X176996429Y-110396429D01*
X170996429Y-113539286D02*
X170996429Y-109539286D01*
X170996429Y-110682143D02*
X170710714Y-110110714D01*
X170425000Y-109825000D01*
X169853571Y-109539286D01*
X169282143Y-109539286D01*
X164996428Y-113253571D02*
X165567857Y-113539286D01*
X166710714Y-113539286D01*
X167282143Y-113253571D01*
X167567857Y-112682143D01*
X167567857Y-110396429D01*
X167282143Y-109825000D01*
X166710714Y-109539286D01*
X165567857Y-109539286D01*
X164996428Y-109825000D01*
X164710714Y-110396429D01*
X164710714Y-110967857D01*
X167567857Y-111539286D01*
X162139286Y-109539286D02*
X162139286Y-113539286D01*
X162139286Y-110110714D02*
X161853571Y-109825000D01*
X161282143Y-109539286D01*
X160425000Y-109539286D01*
X159853571Y-109825000D01*
X159567857Y-110396429D01*
X159567857Y-113539286D01*
X157567857Y-109539286D02*
X155282143Y-109539286D01*
X156710715Y-107539286D02*
X156710715Y-112682143D01*
X156425000Y-113253571D01*
X155853572Y-113539286D01*
X155282143Y-113539286D01*
X145853572Y-113539286D02*
X148710715Y-113539286D01*
X148710715Y-107539286D01*
X143853572Y-113539286D02*
X143853572Y-109539286D01*
X143853572Y-107539286D02*
X144139286Y-107825000D01*
X143853572Y-108110714D01*
X143567857Y-107825000D01*
X143853572Y-107539286D01*
X143853572Y-108110714D01*
M02*
