G04 #@! TF.FileFunction,Other,Fab,Top*
%FSLAX46Y46*%
G04 Gerber Fmt 4.6, Leading zero omitted, Abs format (unit mm)*
G04 Created by KiCad (PCBNEW 4.0.2-stable) date 2017年04月18日 星期二 05:20:49*
%MOMM*%
G01*
G04 APERTURE LIST*
%ADD10C,0.100000*%
%ADD11C,0.150000*%
G04 APERTURE END LIST*
D10*
D11*
X160757143Y-95872619D02*
X160804762Y-95825000D01*
X160900000Y-95777381D01*
X161138096Y-95777381D01*
X161233334Y-95825000D01*
X161280953Y-95872619D01*
X161328572Y-95967857D01*
X161328572Y-96063095D01*
X161280953Y-96205952D01*
X160709524Y-96777381D01*
X161328572Y-96777381D01*
X161947619Y-95777381D02*
X162042858Y-95777381D01*
X162138096Y-95825000D01*
X162185715Y-95872619D01*
X162233334Y-95967857D01*
X162280953Y-96158333D01*
X162280953Y-96396429D01*
X162233334Y-96586905D01*
X162185715Y-96682143D01*
X162138096Y-96729762D01*
X162042858Y-96777381D01*
X161947619Y-96777381D01*
X161852381Y-96729762D01*
X161804762Y-96682143D01*
X161757143Y-96586905D01*
X161709524Y-96396429D01*
X161709524Y-96158333D01*
X161757143Y-95967857D01*
X161804762Y-95872619D01*
X161852381Y-95825000D01*
X161947619Y-95777381D01*
X162709524Y-96110714D02*
X162709524Y-97110714D01*
X162709524Y-96158333D02*
X162804762Y-96110714D01*
X162995239Y-96110714D01*
X163090477Y-96158333D01*
X163138096Y-96205952D01*
X163185715Y-96301190D01*
X163185715Y-96586905D01*
X163138096Y-96682143D01*
X163090477Y-96729762D01*
X162995239Y-96777381D01*
X162804762Y-96777381D01*
X162709524Y-96729762D01*
X163947620Y-96253571D02*
X163614286Y-96253571D01*
X163614286Y-96777381D02*
X163614286Y-95777381D01*
X164090477Y-95777381D01*
X166382143Y-95897619D02*
X166429762Y-95850000D01*
X166525000Y-95802381D01*
X166763096Y-95802381D01*
X166858334Y-95850000D01*
X166905953Y-95897619D01*
X166953572Y-95992857D01*
X166953572Y-96088095D01*
X166905953Y-96230952D01*
X166334524Y-96802381D01*
X166953572Y-96802381D01*
X167572619Y-95802381D02*
X167667858Y-95802381D01*
X167763096Y-95850000D01*
X167810715Y-95897619D01*
X167858334Y-95992857D01*
X167905953Y-96183333D01*
X167905953Y-96421429D01*
X167858334Y-96611905D01*
X167810715Y-96707143D01*
X167763096Y-96754762D01*
X167667858Y-96802381D01*
X167572619Y-96802381D01*
X167477381Y-96754762D01*
X167429762Y-96707143D01*
X167382143Y-96611905D01*
X167334524Y-96421429D01*
X167334524Y-96183333D01*
X167382143Y-95992857D01*
X167429762Y-95897619D01*
X167477381Y-95850000D01*
X167572619Y-95802381D01*
X168334524Y-96135714D02*
X168334524Y-97135714D01*
X168334524Y-96183333D02*
X168429762Y-96135714D01*
X168620239Y-96135714D01*
X168715477Y-96183333D01*
X168763096Y-96230952D01*
X168810715Y-96326190D01*
X168810715Y-96611905D01*
X168763096Y-96707143D01*
X168715477Y-96754762D01*
X168620239Y-96802381D01*
X168429762Y-96802381D01*
X168334524Y-96754762D01*
X169572620Y-96278571D02*
X169239286Y-96278571D01*
X169239286Y-96802381D02*
X169239286Y-95802381D01*
X169715477Y-95802381D01*
X183233334Y-115452381D02*
X182661905Y-115452381D01*
X182947619Y-115452381D02*
X182947619Y-114452381D01*
X182852381Y-114595238D01*
X182757143Y-114690476D01*
X182661905Y-114738095D01*
X183852381Y-114452381D02*
X183947620Y-114452381D01*
X184042858Y-114500000D01*
X184090477Y-114547619D01*
X184138096Y-114642857D01*
X184185715Y-114833333D01*
X184185715Y-115071429D01*
X184138096Y-115261905D01*
X184090477Y-115357143D01*
X184042858Y-115404762D01*
X183947620Y-115452381D01*
X183852381Y-115452381D01*
X183757143Y-115404762D01*
X183709524Y-115357143D01*
X183661905Y-115261905D01*
X183614286Y-115071429D01*
X183614286Y-114833333D01*
X183661905Y-114642857D01*
X183709524Y-114547619D01*
X183757143Y-114500000D01*
X183852381Y-114452381D01*
X185042858Y-114452381D02*
X184852381Y-114452381D01*
X184757143Y-114500000D01*
X184709524Y-114547619D01*
X184614286Y-114690476D01*
X184566667Y-114880952D01*
X184566667Y-115261905D01*
X184614286Y-115357143D01*
X184661905Y-115404762D01*
X184757143Y-115452381D01*
X184947620Y-115452381D01*
X185042858Y-115404762D01*
X185090477Y-115357143D01*
X185138096Y-115261905D01*
X185138096Y-115023810D01*
X185090477Y-114928571D01*
X185042858Y-114880952D01*
X184947620Y-114833333D01*
X184757143Y-114833333D01*
X184661905Y-114880952D01*
X184614286Y-114928571D01*
X184566667Y-115023810D01*
X183033334Y-113952381D02*
X182461905Y-113952381D01*
X182747619Y-113952381D02*
X182747619Y-112952381D01*
X182652381Y-113095238D01*
X182557143Y-113190476D01*
X182461905Y-113238095D01*
X183652381Y-112952381D02*
X183747620Y-112952381D01*
X183842858Y-113000000D01*
X183890477Y-113047619D01*
X183938096Y-113142857D01*
X183985715Y-113333333D01*
X183985715Y-113571429D01*
X183938096Y-113761905D01*
X183890477Y-113857143D01*
X183842858Y-113904762D01*
X183747620Y-113952381D01*
X183652381Y-113952381D01*
X183557143Y-113904762D01*
X183509524Y-113857143D01*
X183461905Y-113761905D01*
X183414286Y-113571429D01*
X183414286Y-113333333D01*
X183461905Y-113142857D01*
X183509524Y-113047619D01*
X183557143Y-113000000D01*
X183652381Y-112952381D01*
X184842858Y-113285714D02*
X184842858Y-113952381D01*
X184604762Y-112904762D02*
X184366667Y-113619048D01*
X184985715Y-113619048D01*
X183133334Y-108852381D02*
X182561905Y-108852381D01*
X182847619Y-108852381D02*
X182847619Y-107852381D01*
X182752381Y-107995238D01*
X182657143Y-108090476D01*
X182561905Y-108138095D01*
X183752381Y-107852381D02*
X183847620Y-107852381D01*
X183942858Y-107900000D01*
X183990477Y-107947619D01*
X184038096Y-108042857D01*
X184085715Y-108233333D01*
X184085715Y-108471429D01*
X184038096Y-108661905D01*
X183990477Y-108757143D01*
X183942858Y-108804762D01*
X183847620Y-108852381D01*
X183752381Y-108852381D01*
X183657143Y-108804762D01*
X183609524Y-108757143D01*
X183561905Y-108661905D01*
X183514286Y-108471429D01*
X183514286Y-108233333D01*
X183561905Y-108042857D01*
X183609524Y-107947619D01*
X183657143Y-107900000D01*
X183752381Y-107852381D01*
X184942858Y-108185714D02*
X184942858Y-108852381D01*
X184704762Y-107804762D02*
X184466667Y-108519048D01*
X185085715Y-108519048D01*
X183208334Y-107477381D02*
X182636905Y-107477381D01*
X182922619Y-107477381D02*
X182922619Y-106477381D01*
X182827381Y-106620238D01*
X182732143Y-106715476D01*
X182636905Y-106763095D01*
X183827381Y-106477381D02*
X183922620Y-106477381D01*
X184017858Y-106525000D01*
X184065477Y-106572619D01*
X184113096Y-106667857D01*
X184160715Y-106858333D01*
X184160715Y-107096429D01*
X184113096Y-107286905D01*
X184065477Y-107382143D01*
X184017858Y-107429762D01*
X183922620Y-107477381D01*
X183827381Y-107477381D01*
X183732143Y-107429762D01*
X183684524Y-107382143D01*
X183636905Y-107286905D01*
X183589286Y-107096429D01*
X183589286Y-106858333D01*
X183636905Y-106667857D01*
X183684524Y-106572619D01*
X183732143Y-106525000D01*
X183827381Y-106477381D01*
X185017858Y-106477381D02*
X184827381Y-106477381D01*
X184732143Y-106525000D01*
X184684524Y-106572619D01*
X184589286Y-106715476D01*
X184541667Y-106905952D01*
X184541667Y-107286905D01*
X184589286Y-107382143D01*
X184636905Y-107429762D01*
X184732143Y-107477381D01*
X184922620Y-107477381D01*
X185017858Y-107429762D01*
X185065477Y-107382143D01*
X185113096Y-107286905D01*
X185113096Y-107048810D01*
X185065477Y-106953571D01*
X185017858Y-106905952D01*
X184922620Y-106858333D01*
X184732143Y-106858333D01*
X184636905Y-106905952D01*
X184589286Y-106953571D01*
X184541667Y-107048810D01*
X167783334Y-106127381D02*
X167211905Y-106127381D01*
X167497619Y-106127381D02*
X167497619Y-105127381D01*
X167402381Y-105270238D01*
X167307143Y-105365476D01*
X167211905Y-105413095D01*
X168402381Y-105127381D02*
X168497620Y-105127381D01*
X168592858Y-105175000D01*
X168640477Y-105222619D01*
X168688096Y-105317857D01*
X168735715Y-105508333D01*
X168735715Y-105746429D01*
X168688096Y-105936905D01*
X168640477Y-106032143D01*
X168592858Y-106079762D01*
X168497620Y-106127381D01*
X168402381Y-106127381D01*
X168307143Y-106079762D01*
X168259524Y-106032143D01*
X168211905Y-105936905D01*
X168164286Y-105746429D01*
X168164286Y-105508333D01*
X168211905Y-105317857D01*
X168259524Y-105222619D01*
X168307143Y-105175000D01*
X168402381Y-105127381D01*
X169592858Y-105460714D02*
X169592858Y-106127381D01*
X169354762Y-105079762D02*
X169116667Y-105794048D01*
X169735715Y-105794048D01*
X150083334Y-103952381D02*
X149511905Y-103952381D01*
X149797619Y-103952381D02*
X149797619Y-102952381D01*
X149702381Y-103095238D01*
X149607143Y-103190476D01*
X149511905Y-103238095D01*
X150702381Y-102952381D02*
X150797620Y-102952381D01*
X150892858Y-103000000D01*
X150940477Y-103047619D01*
X150988096Y-103142857D01*
X151035715Y-103333333D01*
X151035715Y-103571429D01*
X150988096Y-103761905D01*
X150940477Y-103857143D01*
X150892858Y-103904762D01*
X150797620Y-103952381D01*
X150702381Y-103952381D01*
X150607143Y-103904762D01*
X150559524Y-103857143D01*
X150511905Y-103761905D01*
X150464286Y-103571429D01*
X150464286Y-103333333D01*
X150511905Y-103142857D01*
X150559524Y-103047619D01*
X150607143Y-103000000D01*
X150702381Y-102952381D01*
X151892858Y-103285714D02*
X151892858Y-103952381D01*
X151654762Y-102904762D02*
X151416667Y-103619048D01*
X152035715Y-103619048D01*
X159083334Y-100877381D02*
X158511905Y-100877381D01*
X158797619Y-100877381D02*
X158797619Y-99877381D01*
X158702381Y-100020238D01*
X158607143Y-100115476D01*
X158511905Y-100163095D01*
X159702381Y-99877381D02*
X159797620Y-99877381D01*
X159892858Y-99925000D01*
X159940477Y-99972619D01*
X159988096Y-100067857D01*
X160035715Y-100258333D01*
X160035715Y-100496429D01*
X159988096Y-100686905D01*
X159940477Y-100782143D01*
X159892858Y-100829762D01*
X159797620Y-100877381D01*
X159702381Y-100877381D01*
X159607143Y-100829762D01*
X159559524Y-100782143D01*
X159511905Y-100686905D01*
X159464286Y-100496429D01*
X159464286Y-100258333D01*
X159511905Y-100067857D01*
X159559524Y-99972619D01*
X159607143Y-99925000D01*
X159702381Y-99877381D01*
X160892858Y-100210714D02*
X160892858Y-100877381D01*
X160654762Y-99829762D02*
X160416667Y-100544048D01*
X161035715Y-100544048D01*
X151708334Y-107127381D02*
X151136905Y-107127381D01*
X151422619Y-107127381D02*
X151422619Y-106127381D01*
X151327381Y-106270238D01*
X151232143Y-106365476D01*
X151136905Y-106413095D01*
X152327381Y-106127381D02*
X152422620Y-106127381D01*
X152517858Y-106175000D01*
X152565477Y-106222619D01*
X152613096Y-106317857D01*
X152660715Y-106508333D01*
X152660715Y-106746429D01*
X152613096Y-106936905D01*
X152565477Y-107032143D01*
X152517858Y-107079762D01*
X152422620Y-107127381D01*
X152327381Y-107127381D01*
X152232143Y-107079762D01*
X152184524Y-107032143D01*
X152136905Y-106936905D01*
X152089286Y-106746429D01*
X152089286Y-106508333D01*
X152136905Y-106317857D01*
X152184524Y-106222619D01*
X152232143Y-106175000D01*
X152327381Y-106127381D01*
X153517858Y-106460714D02*
X153517858Y-107127381D01*
X153279762Y-106079762D02*
X153041667Y-106794048D01*
X153660715Y-106794048D01*
X162758334Y-120127381D02*
X162186905Y-120127381D01*
X162472619Y-120127381D02*
X162472619Y-119127381D01*
X162377381Y-119270238D01*
X162282143Y-119365476D01*
X162186905Y-119413095D01*
X163377381Y-119127381D02*
X163472620Y-119127381D01*
X163567858Y-119175000D01*
X163615477Y-119222619D01*
X163663096Y-119317857D01*
X163710715Y-119508333D01*
X163710715Y-119746429D01*
X163663096Y-119936905D01*
X163615477Y-120032143D01*
X163567858Y-120079762D01*
X163472620Y-120127381D01*
X163377381Y-120127381D01*
X163282143Y-120079762D01*
X163234524Y-120032143D01*
X163186905Y-119936905D01*
X163139286Y-119746429D01*
X163139286Y-119508333D01*
X163186905Y-119317857D01*
X163234524Y-119222619D01*
X163282143Y-119175000D01*
X163377381Y-119127381D01*
X164567858Y-119460714D02*
X164567858Y-120127381D01*
X164329762Y-119079762D02*
X164091667Y-119794048D01*
X164710715Y-119794048D01*
X131308334Y-91577381D02*
X130736905Y-91577381D01*
X131022619Y-91577381D02*
X131022619Y-90577381D01*
X130927381Y-90720238D01*
X130832143Y-90815476D01*
X130736905Y-90863095D01*
X131927381Y-90577381D02*
X132022620Y-90577381D01*
X132117858Y-90625000D01*
X132165477Y-90672619D01*
X132213096Y-90767857D01*
X132260715Y-90958333D01*
X132260715Y-91196429D01*
X132213096Y-91386905D01*
X132165477Y-91482143D01*
X132117858Y-91529762D01*
X132022620Y-91577381D01*
X131927381Y-91577381D01*
X131832143Y-91529762D01*
X131784524Y-91482143D01*
X131736905Y-91386905D01*
X131689286Y-91196429D01*
X131689286Y-90958333D01*
X131736905Y-90767857D01*
X131784524Y-90672619D01*
X131832143Y-90625000D01*
X131927381Y-90577381D01*
X133117858Y-90910714D02*
X133117858Y-91577381D01*
X132879762Y-90529762D02*
X132641667Y-91244048D01*
X133260715Y-91244048D01*
X149040934Y-91447881D02*
X148469505Y-91447881D01*
X148755219Y-91447881D02*
X148755219Y-90447881D01*
X148659981Y-90590738D01*
X148564743Y-90685976D01*
X148469505Y-90733595D01*
X149659981Y-90447881D02*
X149755220Y-90447881D01*
X149850458Y-90495500D01*
X149898077Y-90543119D01*
X149945696Y-90638357D01*
X149993315Y-90828833D01*
X149993315Y-91066929D01*
X149945696Y-91257405D01*
X149898077Y-91352643D01*
X149850458Y-91400262D01*
X149755220Y-91447881D01*
X149659981Y-91447881D01*
X149564743Y-91400262D01*
X149517124Y-91352643D01*
X149469505Y-91257405D01*
X149421886Y-91066929D01*
X149421886Y-90828833D01*
X149469505Y-90638357D01*
X149517124Y-90543119D01*
X149564743Y-90495500D01*
X149659981Y-90447881D01*
X150850458Y-90781214D02*
X150850458Y-91447881D01*
X150612362Y-90400262D02*
X150374267Y-91114548D01*
X150993315Y-91114548D01*
X166758334Y-91427381D02*
X166186905Y-91427381D01*
X166472619Y-91427381D02*
X166472619Y-90427381D01*
X166377381Y-90570238D01*
X166282143Y-90665476D01*
X166186905Y-90713095D01*
X167377381Y-90427381D02*
X167472620Y-90427381D01*
X167567858Y-90475000D01*
X167615477Y-90522619D01*
X167663096Y-90617857D01*
X167710715Y-90808333D01*
X167710715Y-91046429D01*
X167663096Y-91236905D01*
X167615477Y-91332143D01*
X167567858Y-91379762D01*
X167472620Y-91427381D01*
X167377381Y-91427381D01*
X167282143Y-91379762D01*
X167234524Y-91332143D01*
X167186905Y-91236905D01*
X167139286Y-91046429D01*
X167139286Y-90808333D01*
X167186905Y-90617857D01*
X167234524Y-90522619D01*
X167282143Y-90475000D01*
X167377381Y-90427381D01*
X168567858Y-90760714D02*
X168567858Y-91427381D01*
X168329762Y-90379762D02*
X168091667Y-91094048D01*
X168710715Y-91094048D01*
X184458334Y-91427381D02*
X183886905Y-91427381D01*
X184172619Y-91427381D02*
X184172619Y-90427381D01*
X184077381Y-90570238D01*
X183982143Y-90665476D01*
X183886905Y-90713095D01*
X185077381Y-90427381D02*
X185172620Y-90427381D01*
X185267858Y-90475000D01*
X185315477Y-90522619D01*
X185363096Y-90617857D01*
X185410715Y-90808333D01*
X185410715Y-91046429D01*
X185363096Y-91236905D01*
X185315477Y-91332143D01*
X185267858Y-91379762D01*
X185172620Y-91427381D01*
X185077381Y-91427381D01*
X184982143Y-91379762D01*
X184934524Y-91332143D01*
X184886905Y-91236905D01*
X184839286Y-91046429D01*
X184839286Y-90808333D01*
X184886905Y-90617857D01*
X184934524Y-90522619D01*
X184982143Y-90475000D01*
X185077381Y-90427381D01*
X186267858Y-90760714D02*
X186267858Y-91427381D01*
X186029762Y-90379762D02*
X185791667Y-91094048D01*
X186410715Y-91094048D01*
X148508334Y-115602381D02*
X147936905Y-115602381D01*
X148222619Y-115602381D02*
X148222619Y-114602381D01*
X148127381Y-114745238D01*
X148032143Y-114840476D01*
X147936905Y-114888095D01*
X149127381Y-114602381D02*
X149222620Y-114602381D01*
X149317858Y-114650000D01*
X149365477Y-114697619D01*
X149413096Y-114792857D01*
X149460715Y-114983333D01*
X149460715Y-115221429D01*
X149413096Y-115411905D01*
X149365477Y-115507143D01*
X149317858Y-115554762D01*
X149222620Y-115602381D01*
X149127381Y-115602381D01*
X149032143Y-115554762D01*
X148984524Y-115507143D01*
X148936905Y-115411905D01*
X148889286Y-115221429D01*
X148889286Y-114983333D01*
X148936905Y-114792857D01*
X148984524Y-114697619D01*
X149032143Y-114650000D01*
X149127381Y-114602381D01*
X150317858Y-114935714D02*
X150317858Y-115602381D01*
X150079762Y-114554762D02*
X149841667Y-115269048D01*
X150460715Y-115269048D01*
X131308334Y-130777381D02*
X130736905Y-130777381D01*
X131022619Y-130777381D02*
X131022619Y-129777381D01*
X130927381Y-129920238D01*
X130832143Y-130015476D01*
X130736905Y-130063095D01*
X131927381Y-129777381D02*
X132022620Y-129777381D01*
X132117858Y-129825000D01*
X132165477Y-129872619D01*
X132213096Y-129967857D01*
X132260715Y-130158333D01*
X132260715Y-130396429D01*
X132213096Y-130586905D01*
X132165477Y-130682143D01*
X132117858Y-130729762D01*
X132022620Y-130777381D01*
X131927381Y-130777381D01*
X131832143Y-130729762D01*
X131784524Y-130682143D01*
X131736905Y-130586905D01*
X131689286Y-130396429D01*
X131689286Y-130158333D01*
X131736905Y-129967857D01*
X131784524Y-129872619D01*
X131832143Y-129825000D01*
X131927381Y-129777381D01*
X133117858Y-130110714D02*
X133117858Y-130777381D01*
X132879762Y-129729762D02*
X132641667Y-130444048D01*
X133260715Y-130444048D01*
X148983334Y-130802381D02*
X148411905Y-130802381D01*
X148697619Y-130802381D02*
X148697619Y-129802381D01*
X148602381Y-129945238D01*
X148507143Y-130040476D01*
X148411905Y-130088095D01*
X149602381Y-129802381D02*
X149697620Y-129802381D01*
X149792858Y-129850000D01*
X149840477Y-129897619D01*
X149888096Y-129992857D01*
X149935715Y-130183333D01*
X149935715Y-130421429D01*
X149888096Y-130611905D01*
X149840477Y-130707143D01*
X149792858Y-130754762D01*
X149697620Y-130802381D01*
X149602381Y-130802381D01*
X149507143Y-130754762D01*
X149459524Y-130707143D01*
X149411905Y-130611905D01*
X149364286Y-130421429D01*
X149364286Y-130183333D01*
X149411905Y-129992857D01*
X149459524Y-129897619D01*
X149507143Y-129850000D01*
X149602381Y-129802381D01*
X150792858Y-130135714D02*
X150792858Y-130802381D01*
X150554762Y-129754762D02*
X150316667Y-130469048D01*
X150935715Y-130469048D01*
X166608334Y-130777381D02*
X166036905Y-130777381D01*
X166322619Y-130777381D02*
X166322619Y-129777381D01*
X166227381Y-129920238D01*
X166132143Y-130015476D01*
X166036905Y-130063095D01*
X167227381Y-129777381D02*
X167322620Y-129777381D01*
X167417858Y-129825000D01*
X167465477Y-129872619D01*
X167513096Y-129967857D01*
X167560715Y-130158333D01*
X167560715Y-130396429D01*
X167513096Y-130586905D01*
X167465477Y-130682143D01*
X167417858Y-130729762D01*
X167322620Y-130777381D01*
X167227381Y-130777381D01*
X167132143Y-130729762D01*
X167084524Y-130682143D01*
X167036905Y-130586905D01*
X166989286Y-130396429D01*
X166989286Y-130158333D01*
X167036905Y-129967857D01*
X167084524Y-129872619D01*
X167132143Y-129825000D01*
X167227381Y-129777381D01*
X168417858Y-130110714D02*
X168417858Y-130777381D01*
X168179762Y-129729762D02*
X167941667Y-130444048D01*
X168560715Y-130444048D01*
X184233334Y-130802381D02*
X183661905Y-130802381D01*
X183947619Y-130802381D02*
X183947619Y-129802381D01*
X183852381Y-129945238D01*
X183757143Y-130040476D01*
X183661905Y-130088095D01*
X184852381Y-129802381D02*
X184947620Y-129802381D01*
X185042858Y-129850000D01*
X185090477Y-129897619D01*
X185138096Y-129992857D01*
X185185715Y-130183333D01*
X185185715Y-130421429D01*
X185138096Y-130611905D01*
X185090477Y-130707143D01*
X185042858Y-130754762D01*
X184947620Y-130802381D01*
X184852381Y-130802381D01*
X184757143Y-130754762D01*
X184709524Y-130707143D01*
X184661905Y-130611905D01*
X184614286Y-130421429D01*
X184614286Y-130183333D01*
X184661905Y-129992857D01*
X184709524Y-129897619D01*
X184757143Y-129850000D01*
X184852381Y-129802381D01*
X186042858Y-130135714D02*
X186042858Y-130802381D01*
X185804762Y-129754762D02*
X185566667Y-130469048D01*
X186185715Y-130469048D01*
X117220952Y-86238381D02*
X117220952Y-85238381D01*
X117697142Y-86238381D02*
X117697142Y-85571714D01*
X117697142Y-85762190D02*
X117744761Y-85666952D01*
X117792380Y-85619333D01*
X117887618Y-85571714D01*
X117982857Y-85571714D01*
X118316190Y-86238381D02*
X118316190Y-85238381D01*
X118554285Y-85238381D01*
X118697143Y-85286000D01*
X118792381Y-85381238D01*
X118840000Y-85476476D01*
X118887619Y-85666952D01*
X118887619Y-85809810D01*
X118840000Y-86000286D01*
X118792381Y-86095524D01*
X118697143Y-86190762D01*
X118554285Y-86238381D01*
X118316190Y-86238381D01*
X119268571Y-85952667D02*
X119744762Y-85952667D01*
X119173333Y-86238381D02*
X119506666Y-85238381D01*
X119840000Y-86238381D01*
X119935238Y-86333619D02*
X120697143Y-86333619D01*
X121506667Y-86143143D02*
X121459048Y-86190762D01*
X121316191Y-86238381D01*
X121220953Y-86238381D01*
X121078095Y-86190762D01*
X120982857Y-86095524D01*
X120935238Y-86000286D01*
X120887619Y-85809810D01*
X120887619Y-85666952D01*
X120935238Y-85476476D01*
X120982857Y-85381238D01*
X121078095Y-85286000D01*
X121220953Y-85238381D01*
X121316191Y-85238381D01*
X121459048Y-85286000D01*
X121506667Y-85333619D01*
X121935238Y-86238381D02*
X121935238Y-85238381D01*
X121935238Y-85714571D02*
X122506667Y-85714571D01*
X122506667Y-86238381D02*
X122506667Y-85238381D01*
X123506667Y-86238381D02*
X122935238Y-86238381D01*
X123220952Y-86238381D02*
X123220952Y-85238381D01*
X123125714Y-85381238D01*
X123030476Y-85476476D01*
X122935238Y-85524095D01*
X134889852Y-86164981D02*
X134889852Y-85164981D01*
X135366042Y-86164981D02*
X135366042Y-85498314D01*
X135366042Y-85688790D02*
X135413661Y-85593552D01*
X135461280Y-85545933D01*
X135556518Y-85498314D01*
X135651757Y-85498314D01*
X135985090Y-86164981D02*
X135985090Y-85164981D01*
X136223185Y-85164981D01*
X136366043Y-85212600D01*
X136461281Y-85307838D01*
X136508900Y-85403076D01*
X136556519Y-85593552D01*
X136556519Y-85736410D01*
X136508900Y-85926886D01*
X136461281Y-86022124D01*
X136366043Y-86117362D01*
X136223185Y-86164981D01*
X135985090Y-86164981D01*
X136937471Y-85879267D02*
X137413662Y-85879267D01*
X136842233Y-86164981D02*
X137175566Y-85164981D01*
X137508900Y-86164981D01*
X137604138Y-86260219D02*
X138366043Y-86260219D01*
X139175567Y-86069743D02*
X139127948Y-86117362D01*
X138985091Y-86164981D01*
X138889853Y-86164981D01*
X138746995Y-86117362D01*
X138651757Y-86022124D01*
X138604138Y-85926886D01*
X138556519Y-85736410D01*
X138556519Y-85593552D01*
X138604138Y-85403076D01*
X138651757Y-85307838D01*
X138746995Y-85212600D01*
X138889853Y-85164981D01*
X138985091Y-85164981D01*
X139127948Y-85212600D01*
X139175567Y-85260219D01*
X139604138Y-86164981D02*
X139604138Y-85164981D01*
X139604138Y-85641171D02*
X140175567Y-85641171D01*
X140175567Y-86164981D02*
X140175567Y-85164981D01*
X140604138Y-85260219D02*
X140651757Y-85212600D01*
X140746995Y-85164981D01*
X140985091Y-85164981D01*
X141080329Y-85212600D01*
X141127948Y-85260219D01*
X141175567Y-85355457D01*
X141175567Y-85450695D01*
X141127948Y-85593552D01*
X140556519Y-86164981D01*
X141175567Y-86164981D01*
X152305952Y-86627381D02*
X152305952Y-85627381D01*
X152782142Y-86627381D02*
X152782142Y-85960714D01*
X152782142Y-86151190D02*
X152829761Y-86055952D01*
X152877380Y-86008333D01*
X152972618Y-85960714D01*
X153067857Y-85960714D01*
X153401190Y-86627381D02*
X153401190Y-85627381D01*
X153639285Y-85627381D01*
X153782143Y-85675000D01*
X153877381Y-85770238D01*
X153925000Y-85865476D01*
X153972619Y-86055952D01*
X153972619Y-86198810D01*
X153925000Y-86389286D01*
X153877381Y-86484524D01*
X153782143Y-86579762D01*
X153639285Y-86627381D01*
X153401190Y-86627381D01*
X154353571Y-86341667D02*
X154829762Y-86341667D01*
X154258333Y-86627381D02*
X154591666Y-85627381D01*
X154925000Y-86627381D01*
X155020238Y-86722619D02*
X155782143Y-86722619D01*
X156591667Y-86532143D02*
X156544048Y-86579762D01*
X156401191Y-86627381D01*
X156305953Y-86627381D01*
X156163095Y-86579762D01*
X156067857Y-86484524D01*
X156020238Y-86389286D01*
X155972619Y-86198810D01*
X155972619Y-86055952D01*
X156020238Y-85865476D01*
X156067857Y-85770238D01*
X156163095Y-85675000D01*
X156305953Y-85627381D01*
X156401191Y-85627381D01*
X156544048Y-85675000D01*
X156591667Y-85722619D01*
X157020238Y-86627381D02*
X157020238Y-85627381D01*
X157020238Y-86103571D02*
X157591667Y-86103571D01*
X157591667Y-86627381D02*
X157591667Y-85627381D01*
X157972619Y-85627381D02*
X158591667Y-85627381D01*
X158258333Y-86008333D01*
X158401191Y-86008333D01*
X158496429Y-86055952D01*
X158544048Y-86103571D01*
X158591667Y-86198810D01*
X158591667Y-86436905D01*
X158544048Y-86532143D01*
X158496429Y-86579762D01*
X158401191Y-86627381D01*
X158115476Y-86627381D01*
X158020238Y-86579762D01*
X157972619Y-86532143D01*
X169980952Y-86902381D02*
X169980952Y-85902381D01*
X170457142Y-86902381D02*
X170457142Y-86235714D01*
X170457142Y-86426190D02*
X170504761Y-86330952D01*
X170552380Y-86283333D01*
X170647618Y-86235714D01*
X170742857Y-86235714D01*
X171076190Y-86902381D02*
X171076190Y-85902381D01*
X171314285Y-85902381D01*
X171457143Y-85950000D01*
X171552381Y-86045238D01*
X171600000Y-86140476D01*
X171647619Y-86330952D01*
X171647619Y-86473810D01*
X171600000Y-86664286D01*
X171552381Y-86759524D01*
X171457143Y-86854762D01*
X171314285Y-86902381D01*
X171076190Y-86902381D01*
X172028571Y-86616667D02*
X172504762Y-86616667D01*
X171933333Y-86902381D02*
X172266666Y-85902381D01*
X172600000Y-86902381D01*
X172695238Y-86997619D02*
X173457143Y-86997619D01*
X174266667Y-86807143D02*
X174219048Y-86854762D01*
X174076191Y-86902381D01*
X173980953Y-86902381D01*
X173838095Y-86854762D01*
X173742857Y-86759524D01*
X173695238Y-86664286D01*
X173647619Y-86473810D01*
X173647619Y-86330952D01*
X173695238Y-86140476D01*
X173742857Y-86045238D01*
X173838095Y-85950000D01*
X173980953Y-85902381D01*
X174076191Y-85902381D01*
X174219048Y-85950000D01*
X174266667Y-85997619D01*
X174695238Y-86902381D02*
X174695238Y-85902381D01*
X174695238Y-86378571D02*
X175266667Y-86378571D01*
X175266667Y-86902381D02*
X175266667Y-85902381D01*
X176171429Y-86235714D02*
X176171429Y-86902381D01*
X175933333Y-85854762D02*
X175695238Y-86569048D01*
X176314286Y-86569048D01*
X117155952Y-136177381D02*
X117155952Y-135177381D01*
X117632142Y-136177381D02*
X117632142Y-135510714D01*
X117632142Y-135701190D02*
X117679761Y-135605952D01*
X117727380Y-135558333D01*
X117822618Y-135510714D01*
X117917857Y-135510714D01*
X118251190Y-136177381D02*
X118251190Y-135177381D01*
X118489285Y-135177381D01*
X118632143Y-135225000D01*
X118727381Y-135320238D01*
X118775000Y-135415476D01*
X118822619Y-135605952D01*
X118822619Y-135748810D01*
X118775000Y-135939286D01*
X118727381Y-136034524D01*
X118632143Y-136129762D01*
X118489285Y-136177381D01*
X118251190Y-136177381D01*
X119203571Y-135891667D02*
X119679762Y-135891667D01*
X119108333Y-136177381D02*
X119441666Y-135177381D01*
X119775000Y-136177381D01*
X119870238Y-136272619D02*
X120632143Y-136272619D01*
X121441667Y-136082143D02*
X121394048Y-136129762D01*
X121251191Y-136177381D01*
X121155953Y-136177381D01*
X121013095Y-136129762D01*
X120917857Y-136034524D01*
X120870238Y-135939286D01*
X120822619Y-135748810D01*
X120822619Y-135605952D01*
X120870238Y-135415476D01*
X120917857Y-135320238D01*
X121013095Y-135225000D01*
X121155953Y-135177381D01*
X121251191Y-135177381D01*
X121394048Y-135225000D01*
X121441667Y-135272619D01*
X121870238Y-136177381D02*
X121870238Y-135177381D01*
X121870238Y-135653571D02*
X122441667Y-135653571D01*
X122441667Y-136177381D02*
X122441667Y-135177381D01*
X123394048Y-135177381D02*
X122917857Y-135177381D01*
X122870238Y-135653571D01*
X122917857Y-135605952D01*
X123013095Y-135558333D01*
X123251191Y-135558333D01*
X123346429Y-135605952D01*
X123394048Y-135653571D01*
X123441667Y-135748810D01*
X123441667Y-135986905D01*
X123394048Y-136082143D01*
X123346429Y-136129762D01*
X123251191Y-136177381D01*
X123013095Y-136177381D01*
X122917857Y-136129762D01*
X122870238Y-136082143D01*
X134730952Y-136027381D02*
X134730952Y-135027381D01*
X135207142Y-136027381D02*
X135207142Y-135360714D01*
X135207142Y-135551190D02*
X135254761Y-135455952D01*
X135302380Y-135408333D01*
X135397618Y-135360714D01*
X135492857Y-135360714D01*
X135826190Y-136027381D02*
X135826190Y-135027381D01*
X136064285Y-135027381D01*
X136207143Y-135075000D01*
X136302381Y-135170238D01*
X136350000Y-135265476D01*
X136397619Y-135455952D01*
X136397619Y-135598810D01*
X136350000Y-135789286D01*
X136302381Y-135884524D01*
X136207143Y-135979762D01*
X136064285Y-136027381D01*
X135826190Y-136027381D01*
X136778571Y-135741667D02*
X137254762Y-135741667D01*
X136683333Y-136027381D02*
X137016666Y-135027381D01*
X137350000Y-136027381D01*
X137445238Y-136122619D02*
X138207143Y-136122619D01*
X139016667Y-135932143D02*
X138969048Y-135979762D01*
X138826191Y-136027381D01*
X138730953Y-136027381D01*
X138588095Y-135979762D01*
X138492857Y-135884524D01*
X138445238Y-135789286D01*
X138397619Y-135598810D01*
X138397619Y-135455952D01*
X138445238Y-135265476D01*
X138492857Y-135170238D01*
X138588095Y-135075000D01*
X138730953Y-135027381D01*
X138826191Y-135027381D01*
X138969048Y-135075000D01*
X139016667Y-135122619D01*
X139445238Y-136027381D02*
X139445238Y-135027381D01*
X139445238Y-135503571D02*
X140016667Y-135503571D01*
X140016667Y-136027381D02*
X140016667Y-135027381D01*
X140921429Y-135027381D02*
X140730952Y-135027381D01*
X140635714Y-135075000D01*
X140588095Y-135122619D01*
X140492857Y-135265476D01*
X140445238Y-135455952D01*
X140445238Y-135836905D01*
X140492857Y-135932143D01*
X140540476Y-135979762D01*
X140635714Y-136027381D01*
X140826191Y-136027381D01*
X140921429Y-135979762D01*
X140969048Y-135932143D01*
X141016667Y-135836905D01*
X141016667Y-135598810D01*
X140969048Y-135503571D01*
X140921429Y-135455952D01*
X140826191Y-135408333D01*
X140635714Y-135408333D01*
X140540476Y-135455952D01*
X140492857Y-135503571D01*
X140445238Y-135598810D01*
X152605952Y-136152381D02*
X152605952Y-135152381D01*
X153082142Y-136152381D02*
X153082142Y-135485714D01*
X153082142Y-135676190D02*
X153129761Y-135580952D01*
X153177380Y-135533333D01*
X153272618Y-135485714D01*
X153367857Y-135485714D01*
X153701190Y-136152381D02*
X153701190Y-135152381D01*
X153939285Y-135152381D01*
X154082143Y-135200000D01*
X154177381Y-135295238D01*
X154225000Y-135390476D01*
X154272619Y-135580952D01*
X154272619Y-135723810D01*
X154225000Y-135914286D01*
X154177381Y-136009524D01*
X154082143Y-136104762D01*
X153939285Y-136152381D01*
X153701190Y-136152381D01*
X154653571Y-135866667D02*
X155129762Y-135866667D01*
X154558333Y-136152381D02*
X154891666Y-135152381D01*
X155225000Y-136152381D01*
X155320238Y-136247619D02*
X156082143Y-136247619D01*
X156891667Y-136057143D02*
X156844048Y-136104762D01*
X156701191Y-136152381D01*
X156605953Y-136152381D01*
X156463095Y-136104762D01*
X156367857Y-136009524D01*
X156320238Y-135914286D01*
X156272619Y-135723810D01*
X156272619Y-135580952D01*
X156320238Y-135390476D01*
X156367857Y-135295238D01*
X156463095Y-135200000D01*
X156605953Y-135152381D01*
X156701191Y-135152381D01*
X156844048Y-135200000D01*
X156891667Y-135247619D01*
X157320238Y-136152381D02*
X157320238Y-135152381D01*
X157320238Y-135628571D02*
X157891667Y-135628571D01*
X157891667Y-136152381D02*
X157891667Y-135152381D01*
X158272619Y-135152381D02*
X158939286Y-135152381D01*
X158510714Y-136152381D01*
X170265952Y-136127381D02*
X170265952Y-135127381D01*
X170742142Y-136127381D02*
X170742142Y-135460714D01*
X170742142Y-135651190D02*
X170789761Y-135555952D01*
X170837380Y-135508333D01*
X170932618Y-135460714D01*
X171027857Y-135460714D01*
X171361190Y-136127381D02*
X171361190Y-135127381D01*
X171599285Y-135127381D01*
X171742143Y-135175000D01*
X171837381Y-135270238D01*
X171885000Y-135365476D01*
X171932619Y-135555952D01*
X171932619Y-135698810D01*
X171885000Y-135889286D01*
X171837381Y-135984524D01*
X171742143Y-136079762D01*
X171599285Y-136127381D01*
X171361190Y-136127381D01*
X172313571Y-135841667D02*
X172789762Y-135841667D01*
X172218333Y-136127381D02*
X172551666Y-135127381D01*
X172885000Y-136127381D01*
X172980238Y-136222619D02*
X173742143Y-136222619D01*
X174551667Y-136032143D02*
X174504048Y-136079762D01*
X174361191Y-136127381D01*
X174265953Y-136127381D01*
X174123095Y-136079762D01*
X174027857Y-135984524D01*
X173980238Y-135889286D01*
X173932619Y-135698810D01*
X173932619Y-135555952D01*
X173980238Y-135365476D01*
X174027857Y-135270238D01*
X174123095Y-135175000D01*
X174265953Y-135127381D01*
X174361191Y-135127381D01*
X174504048Y-135175000D01*
X174551667Y-135222619D01*
X174980238Y-136127381D02*
X174980238Y-135127381D01*
X174980238Y-135603571D02*
X175551667Y-135603571D01*
X175551667Y-136127381D02*
X175551667Y-135127381D01*
X176170714Y-135555952D02*
X176075476Y-135508333D01*
X176027857Y-135460714D01*
X175980238Y-135365476D01*
X175980238Y-135317857D01*
X176027857Y-135222619D01*
X176075476Y-135175000D01*
X176170714Y-135127381D01*
X176361191Y-135127381D01*
X176456429Y-135175000D01*
X176504048Y-135222619D01*
X176551667Y-135317857D01*
X176551667Y-135365476D01*
X176504048Y-135460714D01*
X176456429Y-135508333D01*
X176361191Y-135555952D01*
X176170714Y-135555952D01*
X176075476Y-135603571D01*
X176027857Y-135651190D01*
X175980238Y-135746429D01*
X175980238Y-135936905D01*
X176027857Y-136032143D01*
X176075476Y-136079762D01*
X176170714Y-136127381D01*
X176361191Y-136127381D01*
X176456429Y-136079762D01*
X176504048Y-136032143D01*
X176551667Y-135936905D01*
X176551667Y-135746429D01*
X176504048Y-135651190D01*
X176456429Y-135603571D01*
X176361191Y-135555952D01*
X194246429Y-115156667D02*
X194246429Y-114394762D01*
X194627381Y-114775714D02*
X193865476Y-114775714D01*
X194246429Y-112394762D02*
X194246429Y-111632857D01*
X194627381Y-109061428D02*
X194151190Y-109394762D01*
X194627381Y-109632857D02*
X193627381Y-109632857D01*
X193627381Y-109251904D01*
X193675000Y-109156666D01*
X193722619Y-109109047D01*
X193817857Y-109061428D01*
X193960714Y-109061428D01*
X194055952Y-109109047D01*
X194103571Y-109156666D01*
X194151190Y-109251904D01*
X194151190Y-109632857D01*
X193627381Y-107251904D02*
X193627381Y-106680475D01*
X194627381Y-106966190D02*
X193627381Y-106966190D01*
X114758333Y-94929762D02*
X114901190Y-94977381D01*
X115139286Y-94977381D01*
X115234524Y-94929762D01*
X115282143Y-94882143D01*
X115329762Y-94786905D01*
X115329762Y-94691667D01*
X115282143Y-94596429D01*
X115234524Y-94548810D01*
X115139286Y-94501190D01*
X114948809Y-94453571D01*
X114853571Y-94405952D01*
X114805952Y-94358333D01*
X114758333Y-94263095D01*
X114758333Y-94167857D01*
X114805952Y-94072619D01*
X114853571Y-94025000D01*
X114948809Y-93977381D01*
X115186905Y-93977381D01*
X115329762Y-94025000D01*
X115710714Y-94929762D02*
X115853571Y-94977381D01*
X116091667Y-94977381D01*
X116186905Y-94929762D01*
X116234524Y-94882143D01*
X116282143Y-94786905D01*
X116282143Y-94691667D01*
X116234524Y-94596429D01*
X116186905Y-94548810D01*
X116091667Y-94501190D01*
X115901190Y-94453571D01*
X115805952Y-94405952D01*
X115758333Y-94358333D01*
X115710714Y-94263095D01*
X115710714Y-94167857D01*
X115758333Y-94072619D01*
X115805952Y-94025000D01*
X115901190Y-93977381D01*
X116139286Y-93977381D01*
X116282143Y-94025000D01*
X116853571Y-94405952D02*
X116758333Y-94358333D01*
X116710714Y-94310714D01*
X116663095Y-94215476D01*
X116663095Y-94167857D01*
X116710714Y-94072619D01*
X116758333Y-94025000D01*
X116853571Y-93977381D01*
X117044048Y-93977381D01*
X117139286Y-94025000D01*
X117186905Y-94072619D01*
X117234524Y-94167857D01*
X117234524Y-94215476D01*
X117186905Y-94310714D01*
X117139286Y-94358333D01*
X117044048Y-94405952D01*
X116853571Y-94405952D01*
X116758333Y-94453571D01*
X116710714Y-94501190D01*
X116663095Y-94596429D01*
X116663095Y-94786905D01*
X116710714Y-94882143D01*
X116758333Y-94929762D01*
X116853571Y-94977381D01*
X117044048Y-94977381D01*
X117139286Y-94929762D01*
X117186905Y-94882143D01*
X117234524Y-94786905D01*
X117234524Y-94596429D01*
X117186905Y-94501190D01*
X117139286Y-94453571D01*
X117044048Y-94405952D01*
X117853571Y-93977381D02*
X117948810Y-93977381D01*
X118044048Y-94025000D01*
X118091667Y-94072619D01*
X118139286Y-94167857D01*
X118186905Y-94358333D01*
X118186905Y-94596429D01*
X118139286Y-94786905D01*
X118091667Y-94882143D01*
X118044048Y-94929762D01*
X117948810Y-94977381D01*
X117853571Y-94977381D01*
X117758333Y-94929762D01*
X117710714Y-94882143D01*
X117663095Y-94786905D01*
X117615476Y-94596429D01*
X117615476Y-94358333D01*
X117663095Y-94167857D01*
X117710714Y-94072619D01*
X117758333Y-94025000D01*
X117853571Y-93977381D01*
X119091667Y-93977381D02*
X118615476Y-93977381D01*
X118567857Y-94453571D01*
X118615476Y-94405952D01*
X118710714Y-94358333D01*
X118948810Y-94358333D01*
X119044048Y-94405952D01*
X119091667Y-94453571D01*
X119139286Y-94548810D01*
X119139286Y-94786905D01*
X119091667Y-94882143D01*
X119044048Y-94929762D01*
X118948810Y-94977381D01*
X118710714Y-94977381D01*
X118615476Y-94929762D01*
X118567857Y-94882143D01*
X119758333Y-93977381D02*
X119853572Y-93977381D01*
X119948810Y-94025000D01*
X119996429Y-94072619D01*
X120044048Y-94167857D01*
X120091667Y-94358333D01*
X120091667Y-94596429D01*
X120044048Y-94786905D01*
X119996429Y-94882143D01*
X119948810Y-94929762D01*
X119853572Y-94977381D01*
X119758333Y-94977381D01*
X119663095Y-94929762D01*
X119615476Y-94882143D01*
X119567857Y-94786905D01*
X119520238Y-94596429D01*
X119520238Y-94358333D01*
X119567857Y-94167857D01*
X119615476Y-94072619D01*
X119663095Y-94025000D01*
X119758333Y-93977381D01*
X133008333Y-94679762D02*
X133151190Y-94727381D01*
X133389286Y-94727381D01*
X133484524Y-94679762D01*
X133532143Y-94632143D01*
X133579762Y-94536905D01*
X133579762Y-94441667D01*
X133532143Y-94346429D01*
X133484524Y-94298810D01*
X133389286Y-94251190D01*
X133198809Y-94203571D01*
X133103571Y-94155952D01*
X133055952Y-94108333D01*
X133008333Y-94013095D01*
X133008333Y-93917857D01*
X133055952Y-93822619D01*
X133103571Y-93775000D01*
X133198809Y-93727381D01*
X133436905Y-93727381D01*
X133579762Y-93775000D01*
X133960714Y-94679762D02*
X134103571Y-94727381D01*
X134341667Y-94727381D01*
X134436905Y-94679762D01*
X134484524Y-94632143D01*
X134532143Y-94536905D01*
X134532143Y-94441667D01*
X134484524Y-94346429D01*
X134436905Y-94298810D01*
X134341667Y-94251190D01*
X134151190Y-94203571D01*
X134055952Y-94155952D01*
X134008333Y-94108333D01*
X133960714Y-94013095D01*
X133960714Y-93917857D01*
X134008333Y-93822619D01*
X134055952Y-93775000D01*
X134151190Y-93727381D01*
X134389286Y-93727381D01*
X134532143Y-93775000D01*
X135103571Y-94155952D02*
X135008333Y-94108333D01*
X134960714Y-94060714D01*
X134913095Y-93965476D01*
X134913095Y-93917857D01*
X134960714Y-93822619D01*
X135008333Y-93775000D01*
X135103571Y-93727381D01*
X135294048Y-93727381D01*
X135389286Y-93775000D01*
X135436905Y-93822619D01*
X135484524Y-93917857D01*
X135484524Y-93965476D01*
X135436905Y-94060714D01*
X135389286Y-94108333D01*
X135294048Y-94155952D01*
X135103571Y-94155952D01*
X135008333Y-94203571D01*
X134960714Y-94251190D01*
X134913095Y-94346429D01*
X134913095Y-94536905D01*
X134960714Y-94632143D01*
X135008333Y-94679762D01*
X135103571Y-94727381D01*
X135294048Y-94727381D01*
X135389286Y-94679762D01*
X135436905Y-94632143D01*
X135484524Y-94536905D01*
X135484524Y-94346429D01*
X135436905Y-94251190D01*
X135389286Y-94203571D01*
X135294048Y-94155952D01*
X136103571Y-93727381D02*
X136198810Y-93727381D01*
X136294048Y-93775000D01*
X136341667Y-93822619D01*
X136389286Y-93917857D01*
X136436905Y-94108333D01*
X136436905Y-94346429D01*
X136389286Y-94536905D01*
X136341667Y-94632143D01*
X136294048Y-94679762D01*
X136198810Y-94727381D01*
X136103571Y-94727381D01*
X136008333Y-94679762D01*
X135960714Y-94632143D01*
X135913095Y-94536905D01*
X135865476Y-94346429D01*
X135865476Y-94108333D01*
X135913095Y-93917857D01*
X135960714Y-93822619D01*
X136008333Y-93775000D01*
X136103571Y-93727381D01*
X137341667Y-93727381D02*
X136865476Y-93727381D01*
X136817857Y-94203571D01*
X136865476Y-94155952D01*
X136960714Y-94108333D01*
X137198810Y-94108333D01*
X137294048Y-94155952D01*
X137341667Y-94203571D01*
X137389286Y-94298810D01*
X137389286Y-94536905D01*
X137341667Y-94632143D01*
X137294048Y-94679762D01*
X137198810Y-94727381D01*
X136960714Y-94727381D01*
X136865476Y-94679762D01*
X136817857Y-94632143D01*
X138008333Y-93727381D02*
X138103572Y-93727381D01*
X138198810Y-93775000D01*
X138246429Y-93822619D01*
X138294048Y-93917857D01*
X138341667Y-94108333D01*
X138341667Y-94346429D01*
X138294048Y-94536905D01*
X138246429Y-94632143D01*
X138198810Y-94679762D01*
X138103572Y-94727381D01*
X138008333Y-94727381D01*
X137913095Y-94679762D01*
X137865476Y-94632143D01*
X137817857Y-94536905D01*
X137770238Y-94346429D01*
X137770238Y-94108333D01*
X137817857Y-93917857D01*
X137865476Y-93822619D01*
X137913095Y-93775000D01*
X138008333Y-93727381D01*
X150208333Y-94529762D02*
X150351190Y-94577381D01*
X150589286Y-94577381D01*
X150684524Y-94529762D01*
X150732143Y-94482143D01*
X150779762Y-94386905D01*
X150779762Y-94291667D01*
X150732143Y-94196429D01*
X150684524Y-94148810D01*
X150589286Y-94101190D01*
X150398809Y-94053571D01*
X150303571Y-94005952D01*
X150255952Y-93958333D01*
X150208333Y-93863095D01*
X150208333Y-93767857D01*
X150255952Y-93672619D01*
X150303571Y-93625000D01*
X150398809Y-93577381D01*
X150636905Y-93577381D01*
X150779762Y-93625000D01*
X151160714Y-94529762D02*
X151303571Y-94577381D01*
X151541667Y-94577381D01*
X151636905Y-94529762D01*
X151684524Y-94482143D01*
X151732143Y-94386905D01*
X151732143Y-94291667D01*
X151684524Y-94196429D01*
X151636905Y-94148810D01*
X151541667Y-94101190D01*
X151351190Y-94053571D01*
X151255952Y-94005952D01*
X151208333Y-93958333D01*
X151160714Y-93863095D01*
X151160714Y-93767857D01*
X151208333Y-93672619D01*
X151255952Y-93625000D01*
X151351190Y-93577381D01*
X151589286Y-93577381D01*
X151732143Y-93625000D01*
X152303571Y-94005952D02*
X152208333Y-93958333D01*
X152160714Y-93910714D01*
X152113095Y-93815476D01*
X152113095Y-93767857D01*
X152160714Y-93672619D01*
X152208333Y-93625000D01*
X152303571Y-93577381D01*
X152494048Y-93577381D01*
X152589286Y-93625000D01*
X152636905Y-93672619D01*
X152684524Y-93767857D01*
X152684524Y-93815476D01*
X152636905Y-93910714D01*
X152589286Y-93958333D01*
X152494048Y-94005952D01*
X152303571Y-94005952D01*
X152208333Y-94053571D01*
X152160714Y-94101190D01*
X152113095Y-94196429D01*
X152113095Y-94386905D01*
X152160714Y-94482143D01*
X152208333Y-94529762D01*
X152303571Y-94577381D01*
X152494048Y-94577381D01*
X152589286Y-94529762D01*
X152636905Y-94482143D01*
X152684524Y-94386905D01*
X152684524Y-94196429D01*
X152636905Y-94101190D01*
X152589286Y-94053571D01*
X152494048Y-94005952D01*
X153303571Y-93577381D02*
X153398810Y-93577381D01*
X153494048Y-93625000D01*
X153541667Y-93672619D01*
X153589286Y-93767857D01*
X153636905Y-93958333D01*
X153636905Y-94196429D01*
X153589286Y-94386905D01*
X153541667Y-94482143D01*
X153494048Y-94529762D01*
X153398810Y-94577381D01*
X153303571Y-94577381D01*
X153208333Y-94529762D01*
X153160714Y-94482143D01*
X153113095Y-94386905D01*
X153065476Y-94196429D01*
X153065476Y-93958333D01*
X153113095Y-93767857D01*
X153160714Y-93672619D01*
X153208333Y-93625000D01*
X153303571Y-93577381D01*
X154541667Y-93577381D02*
X154065476Y-93577381D01*
X154017857Y-94053571D01*
X154065476Y-94005952D01*
X154160714Y-93958333D01*
X154398810Y-93958333D01*
X154494048Y-94005952D01*
X154541667Y-94053571D01*
X154589286Y-94148810D01*
X154589286Y-94386905D01*
X154541667Y-94482143D01*
X154494048Y-94529762D01*
X154398810Y-94577381D01*
X154160714Y-94577381D01*
X154065476Y-94529762D01*
X154017857Y-94482143D01*
X155208333Y-93577381D02*
X155303572Y-93577381D01*
X155398810Y-93625000D01*
X155446429Y-93672619D01*
X155494048Y-93767857D01*
X155541667Y-93958333D01*
X155541667Y-94196429D01*
X155494048Y-94386905D01*
X155446429Y-94482143D01*
X155398810Y-94529762D01*
X155303572Y-94577381D01*
X155208333Y-94577381D01*
X155113095Y-94529762D01*
X155065476Y-94482143D01*
X155017857Y-94386905D01*
X154970238Y-94196429D01*
X154970238Y-93958333D01*
X155017857Y-93767857D01*
X155065476Y-93672619D01*
X155113095Y-93625000D01*
X155208333Y-93577381D01*
X168058333Y-94529762D02*
X168201190Y-94577381D01*
X168439286Y-94577381D01*
X168534524Y-94529762D01*
X168582143Y-94482143D01*
X168629762Y-94386905D01*
X168629762Y-94291667D01*
X168582143Y-94196429D01*
X168534524Y-94148810D01*
X168439286Y-94101190D01*
X168248809Y-94053571D01*
X168153571Y-94005952D01*
X168105952Y-93958333D01*
X168058333Y-93863095D01*
X168058333Y-93767857D01*
X168105952Y-93672619D01*
X168153571Y-93625000D01*
X168248809Y-93577381D01*
X168486905Y-93577381D01*
X168629762Y-93625000D01*
X169010714Y-94529762D02*
X169153571Y-94577381D01*
X169391667Y-94577381D01*
X169486905Y-94529762D01*
X169534524Y-94482143D01*
X169582143Y-94386905D01*
X169582143Y-94291667D01*
X169534524Y-94196429D01*
X169486905Y-94148810D01*
X169391667Y-94101190D01*
X169201190Y-94053571D01*
X169105952Y-94005952D01*
X169058333Y-93958333D01*
X169010714Y-93863095D01*
X169010714Y-93767857D01*
X169058333Y-93672619D01*
X169105952Y-93625000D01*
X169201190Y-93577381D01*
X169439286Y-93577381D01*
X169582143Y-93625000D01*
X170153571Y-94005952D02*
X170058333Y-93958333D01*
X170010714Y-93910714D01*
X169963095Y-93815476D01*
X169963095Y-93767857D01*
X170010714Y-93672619D01*
X170058333Y-93625000D01*
X170153571Y-93577381D01*
X170344048Y-93577381D01*
X170439286Y-93625000D01*
X170486905Y-93672619D01*
X170534524Y-93767857D01*
X170534524Y-93815476D01*
X170486905Y-93910714D01*
X170439286Y-93958333D01*
X170344048Y-94005952D01*
X170153571Y-94005952D01*
X170058333Y-94053571D01*
X170010714Y-94101190D01*
X169963095Y-94196429D01*
X169963095Y-94386905D01*
X170010714Y-94482143D01*
X170058333Y-94529762D01*
X170153571Y-94577381D01*
X170344048Y-94577381D01*
X170439286Y-94529762D01*
X170486905Y-94482143D01*
X170534524Y-94386905D01*
X170534524Y-94196429D01*
X170486905Y-94101190D01*
X170439286Y-94053571D01*
X170344048Y-94005952D01*
X171153571Y-93577381D02*
X171248810Y-93577381D01*
X171344048Y-93625000D01*
X171391667Y-93672619D01*
X171439286Y-93767857D01*
X171486905Y-93958333D01*
X171486905Y-94196429D01*
X171439286Y-94386905D01*
X171391667Y-94482143D01*
X171344048Y-94529762D01*
X171248810Y-94577381D01*
X171153571Y-94577381D01*
X171058333Y-94529762D01*
X171010714Y-94482143D01*
X170963095Y-94386905D01*
X170915476Y-94196429D01*
X170915476Y-93958333D01*
X170963095Y-93767857D01*
X171010714Y-93672619D01*
X171058333Y-93625000D01*
X171153571Y-93577381D01*
X172391667Y-93577381D02*
X171915476Y-93577381D01*
X171867857Y-94053571D01*
X171915476Y-94005952D01*
X172010714Y-93958333D01*
X172248810Y-93958333D01*
X172344048Y-94005952D01*
X172391667Y-94053571D01*
X172439286Y-94148810D01*
X172439286Y-94386905D01*
X172391667Y-94482143D01*
X172344048Y-94529762D01*
X172248810Y-94577381D01*
X172010714Y-94577381D01*
X171915476Y-94529762D01*
X171867857Y-94482143D01*
X173058333Y-93577381D02*
X173153572Y-93577381D01*
X173248810Y-93625000D01*
X173296429Y-93672619D01*
X173344048Y-93767857D01*
X173391667Y-93958333D01*
X173391667Y-94196429D01*
X173344048Y-94386905D01*
X173296429Y-94482143D01*
X173248810Y-94529762D01*
X173153572Y-94577381D01*
X173058333Y-94577381D01*
X172963095Y-94529762D01*
X172915476Y-94482143D01*
X172867857Y-94386905D01*
X172820238Y-94196429D01*
X172820238Y-93958333D01*
X172867857Y-93767857D01*
X172915476Y-93672619D01*
X172963095Y-93625000D01*
X173058333Y-93577381D01*
X114858333Y-127179762D02*
X115001190Y-127227381D01*
X115239286Y-127227381D01*
X115334524Y-127179762D01*
X115382143Y-127132143D01*
X115429762Y-127036905D01*
X115429762Y-126941667D01*
X115382143Y-126846429D01*
X115334524Y-126798810D01*
X115239286Y-126751190D01*
X115048809Y-126703571D01*
X114953571Y-126655952D01*
X114905952Y-126608333D01*
X114858333Y-126513095D01*
X114858333Y-126417857D01*
X114905952Y-126322619D01*
X114953571Y-126275000D01*
X115048809Y-126227381D01*
X115286905Y-126227381D01*
X115429762Y-126275000D01*
X115810714Y-127179762D02*
X115953571Y-127227381D01*
X116191667Y-127227381D01*
X116286905Y-127179762D01*
X116334524Y-127132143D01*
X116382143Y-127036905D01*
X116382143Y-126941667D01*
X116334524Y-126846429D01*
X116286905Y-126798810D01*
X116191667Y-126751190D01*
X116001190Y-126703571D01*
X115905952Y-126655952D01*
X115858333Y-126608333D01*
X115810714Y-126513095D01*
X115810714Y-126417857D01*
X115858333Y-126322619D01*
X115905952Y-126275000D01*
X116001190Y-126227381D01*
X116239286Y-126227381D01*
X116382143Y-126275000D01*
X116953571Y-126655952D02*
X116858333Y-126608333D01*
X116810714Y-126560714D01*
X116763095Y-126465476D01*
X116763095Y-126417857D01*
X116810714Y-126322619D01*
X116858333Y-126275000D01*
X116953571Y-126227381D01*
X117144048Y-126227381D01*
X117239286Y-126275000D01*
X117286905Y-126322619D01*
X117334524Y-126417857D01*
X117334524Y-126465476D01*
X117286905Y-126560714D01*
X117239286Y-126608333D01*
X117144048Y-126655952D01*
X116953571Y-126655952D01*
X116858333Y-126703571D01*
X116810714Y-126751190D01*
X116763095Y-126846429D01*
X116763095Y-127036905D01*
X116810714Y-127132143D01*
X116858333Y-127179762D01*
X116953571Y-127227381D01*
X117144048Y-127227381D01*
X117239286Y-127179762D01*
X117286905Y-127132143D01*
X117334524Y-127036905D01*
X117334524Y-126846429D01*
X117286905Y-126751190D01*
X117239286Y-126703571D01*
X117144048Y-126655952D01*
X117953571Y-126227381D02*
X118048810Y-126227381D01*
X118144048Y-126275000D01*
X118191667Y-126322619D01*
X118239286Y-126417857D01*
X118286905Y-126608333D01*
X118286905Y-126846429D01*
X118239286Y-127036905D01*
X118191667Y-127132143D01*
X118144048Y-127179762D01*
X118048810Y-127227381D01*
X117953571Y-127227381D01*
X117858333Y-127179762D01*
X117810714Y-127132143D01*
X117763095Y-127036905D01*
X117715476Y-126846429D01*
X117715476Y-126608333D01*
X117763095Y-126417857D01*
X117810714Y-126322619D01*
X117858333Y-126275000D01*
X117953571Y-126227381D01*
X119191667Y-126227381D02*
X118715476Y-126227381D01*
X118667857Y-126703571D01*
X118715476Y-126655952D01*
X118810714Y-126608333D01*
X119048810Y-126608333D01*
X119144048Y-126655952D01*
X119191667Y-126703571D01*
X119239286Y-126798810D01*
X119239286Y-127036905D01*
X119191667Y-127132143D01*
X119144048Y-127179762D01*
X119048810Y-127227381D01*
X118810714Y-127227381D01*
X118715476Y-127179762D01*
X118667857Y-127132143D01*
X119858333Y-126227381D02*
X119953572Y-126227381D01*
X120048810Y-126275000D01*
X120096429Y-126322619D01*
X120144048Y-126417857D01*
X120191667Y-126608333D01*
X120191667Y-126846429D01*
X120144048Y-127036905D01*
X120096429Y-127132143D01*
X120048810Y-127179762D01*
X119953572Y-127227381D01*
X119858333Y-127227381D01*
X119763095Y-127179762D01*
X119715476Y-127132143D01*
X119667857Y-127036905D01*
X119620238Y-126846429D01*
X119620238Y-126608333D01*
X119667857Y-126417857D01*
X119715476Y-126322619D01*
X119763095Y-126275000D01*
X119858333Y-126227381D01*
X132558333Y-127329762D02*
X132701190Y-127377381D01*
X132939286Y-127377381D01*
X133034524Y-127329762D01*
X133082143Y-127282143D01*
X133129762Y-127186905D01*
X133129762Y-127091667D01*
X133082143Y-126996429D01*
X133034524Y-126948810D01*
X132939286Y-126901190D01*
X132748809Y-126853571D01*
X132653571Y-126805952D01*
X132605952Y-126758333D01*
X132558333Y-126663095D01*
X132558333Y-126567857D01*
X132605952Y-126472619D01*
X132653571Y-126425000D01*
X132748809Y-126377381D01*
X132986905Y-126377381D01*
X133129762Y-126425000D01*
X133510714Y-127329762D02*
X133653571Y-127377381D01*
X133891667Y-127377381D01*
X133986905Y-127329762D01*
X134034524Y-127282143D01*
X134082143Y-127186905D01*
X134082143Y-127091667D01*
X134034524Y-126996429D01*
X133986905Y-126948810D01*
X133891667Y-126901190D01*
X133701190Y-126853571D01*
X133605952Y-126805952D01*
X133558333Y-126758333D01*
X133510714Y-126663095D01*
X133510714Y-126567857D01*
X133558333Y-126472619D01*
X133605952Y-126425000D01*
X133701190Y-126377381D01*
X133939286Y-126377381D01*
X134082143Y-126425000D01*
X134653571Y-126805952D02*
X134558333Y-126758333D01*
X134510714Y-126710714D01*
X134463095Y-126615476D01*
X134463095Y-126567857D01*
X134510714Y-126472619D01*
X134558333Y-126425000D01*
X134653571Y-126377381D01*
X134844048Y-126377381D01*
X134939286Y-126425000D01*
X134986905Y-126472619D01*
X135034524Y-126567857D01*
X135034524Y-126615476D01*
X134986905Y-126710714D01*
X134939286Y-126758333D01*
X134844048Y-126805952D01*
X134653571Y-126805952D01*
X134558333Y-126853571D01*
X134510714Y-126901190D01*
X134463095Y-126996429D01*
X134463095Y-127186905D01*
X134510714Y-127282143D01*
X134558333Y-127329762D01*
X134653571Y-127377381D01*
X134844048Y-127377381D01*
X134939286Y-127329762D01*
X134986905Y-127282143D01*
X135034524Y-127186905D01*
X135034524Y-126996429D01*
X134986905Y-126901190D01*
X134939286Y-126853571D01*
X134844048Y-126805952D01*
X135653571Y-126377381D02*
X135748810Y-126377381D01*
X135844048Y-126425000D01*
X135891667Y-126472619D01*
X135939286Y-126567857D01*
X135986905Y-126758333D01*
X135986905Y-126996429D01*
X135939286Y-127186905D01*
X135891667Y-127282143D01*
X135844048Y-127329762D01*
X135748810Y-127377381D01*
X135653571Y-127377381D01*
X135558333Y-127329762D01*
X135510714Y-127282143D01*
X135463095Y-127186905D01*
X135415476Y-126996429D01*
X135415476Y-126758333D01*
X135463095Y-126567857D01*
X135510714Y-126472619D01*
X135558333Y-126425000D01*
X135653571Y-126377381D01*
X136891667Y-126377381D02*
X136415476Y-126377381D01*
X136367857Y-126853571D01*
X136415476Y-126805952D01*
X136510714Y-126758333D01*
X136748810Y-126758333D01*
X136844048Y-126805952D01*
X136891667Y-126853571D01*
X136939286Y-126948810D01*
X136939286Y-127186905D01*
X136891667Y-127282143D01*
X136844048Y-127329762D01*
X136748810Y-127377381D01*
X136510714Y-127377381D01*
X136415476Y-127329762D01*
X136367857Y-127282143D01*
X137558333Y-126377381D02*
X137653572Y-126377381D01*
X137748810Y-126425000D01*
X137796429Y-126472619D01*
X137844048Y-126567857D01*
X137891667Y-126758333D01*
X137891667Y-126996429D01*
X137844048Y-127186905D01*
X137796429Y-127282143D01*
X137748810Y-127329762D01*
X137653572Y-127377381D01*
X137558333Y-127377381D01*
X137463095Y-127329762D01*
X137415476Y-127282143D01*
X137367857Y-127186905D01*
X137320238Y-126996429D01*
X137320238Y-126758333D01*
X137367857Y-126567857D01*
X137415476Y-126472619D01*
X137463095Y-126425000D01*
X137558333Y-126377381D01*
X149358333Y-127729762D02*
X149501190Y-127777381D01*
X149739286Y-127777381D01*
X149834524Y-127729762D01*
X149882143Y-127682143D01*
X149929762Y-127586905D01*
X149929762Y-127491667D01*
X149882143Y-127396429D01*
X149834524Y-127348810D01*
X149739286Y-127301190D01*
X149548809Y-127253571D01*
X149453571Y-127205952D01*
X149405952Y-127158333D01*
X149358333Y-127063095D01*
X149358333Y-126967857D01*
X149405952Y-126872619D01*
X149453571Y-126825000D01*
X149548809Y-126777381D01*
X149786905Y-126777381D01*
X149929762Y-126825000D01*
X150310714Y-127729762D02*
X150453571Y-127777381D01*
X150691667Y-127777381D01*
X150786905Y-127729762D01*
X150834524Y-127682143D01*
X150882143Y-127586905D01*
X150882143Y-127491667D01*
X150834524Y-127396429D01*
X150786905Y-127348810D01*
X150691667Y-127301190D01*
X150501190Y-127253571D01*
X150405952Y-127205952D01*
X150358333Y-127158333D01*
X150310714Y-127063095D01*
X150310714Y-126967857D01*
X150358333Y-126872619D01*
X150405952Y-126825000D01*
X150501190Y-126777381D01*
X150739286Y-126777381D01*
X150882143Y-126825000D01*
X151453571Y-127205952D02*
X151358333Y-127158333D01*
X151310714Y-127110714D01*
X151263095Y-127015476D01*
X151263095Y-126967857D01*
X151310714Y-126872619D01*
X151358333Y-126825000D01*
X151453571Y-126777381D01*
X151644048Y-126777381D01*
X151739286Y-126825000D01*
X151786905Y-126872619D01*
X151834524Y-126967857D01*
X151834524Y-127015476D01*
X151786905Y-127110714D01*
X151739286Y-127158333D01*
X151644048Y-127205952D01*
X151453571Y-127205952D01*
X151358333Y-127253571D01*
X151310714Y-127301190D01*
X151263095Y-127396429D01*
X151263095Y-127586905D01*
X151310714Y-127682143D01*
X151358333Y-127729762D01*
X151453571Y-127777381D01*
X151644048Y-127777381D01*
X151739286Y-127729762D01*
X151786905Y-127682143D01*
X151834524Y-127586905D01*
X151834524Y-127396429D01*
X151786905Y-127301190D01*
X151739286Y-127253571D01*
X151644048Y-127205952D01*
X152453571Y-126777381D02*
X152548810Y-126777381D01*
X152644048Y-126825000D01*
X152691667Y-126872619D01*
X152739286Y-126967857D01*
X152786905Y-127158333D01*
X152786905Y-127396429D01*
X152739286Y-127586905D01*
X152691667Y-127682143D01*
X152644048Y-127729762D01*
X152548810Y-127777381D01*
X152453571Y-127777381D01*
X152358333Y-127729762D01*
X152310714Y-127682143D01*
X152263095Y-127586905D01*
X152215476Y-127396429D01*
X152215476Y-127158333D01*
X152263095Y-126967857D01*
X152310714Y-126872619D01*
X152358333Y-126825000D01*
X152453571Y-126777381D01*
X153691667Y-126777381D02*
X153215476Y-126777381D01*
X153167857Y-127253571D01*
X153215476Y-127205952D01*
X153310714Y-127158333D01*
X153548810Y-127158333D01*
X153644048Y-127205952D01*
X153691667Y-127253571D01*
X153739286Y-127348810D01*
X153739286Y-127586905D01*
X153691667Y-127682143D01*
X153644048Y-127729762D01*
X153548810Y-127777381D01*
X153310714Y-127777381D01*
X153215476Y-127729762D01*
X153167857Y-127682143D01*
X154358333Y-126777381D02*
X154453572Y-126777381D01*
X154548810Y-126825000D01*
X154596429Y-126872619D01*
X154644048Y-126967857D01*
X154691667Y-127158333D01*
X154691667Y-127396429D01*
X154644048Y-127586905D01*
X154596429Y-127682143D01*
X154548810Y-127729762D01*
X154453572Y-127777381D01*
X154358333Y-127777381D01*
X154263095Y-127729762D01*
X154215476Y-127682143D01*
X154167857Y-127586905D01*
X154120238Y-127396429D01*
X154120238Y-127158333D01*
X154167857Y-126967857D01*
X154215476Y-126872619D01*
X154263095Y-126825000D01*
X154358333Y-126777381D01*
X167658333Y-127479762D02*
X167801190Y-127527381D01*
X168039286Y-127527381D01*
X168134524Y-127479762D01*
X168182143Y-127432143D01*
X168229762Y-127336905D01*
X168229762Y-127241667D01*
X168182143Y-127146429D01*
X168134524Y-127098810D01*
X168039286Y-127051190D01*
X167848809Y-127003571D01*
X167753571Y-126955952D01*
X167705952Y-126908333D01*
X167658333Y-126813095D01*
X167658333Y-126717857D01*
X167705952Y-126622619D01*
X167753571Y-126575000D01*
X167848809Y-126527381D01*
X168086905Y-126527381D01*
X168229762Y-126575000D01*
X168610714Y-127479762D02*
X168753571Y-127527381D01*
X168991667Y-127527381D01*
X169086905Y-127479762D01*
X169134524Y-127432143D01*
X169182143Y-127336905D01*
X169182143Y-127241667D01*
X169134524Y-127146429D01*
X169086905Y-127098810D01*
X168991667Y-127051190D01*
X168801190Y-127003571D01*
X168705952Y-126955952D01*
X168658333Y-126908333D01*
X168610714Y-126813095D01*
X168610714Y-126717857D01*
X168658333Y-126622619D01*
X168705952Y-126575000D01*
X168801190Y-126527381D01*
X169039286Y-126527381D01*
X169182143Y-126575000D01*
X169753571Y-126955952D02*
X169658333Y-126908333D01*
X169610714Y-126860714D01*
X169563095Y-126765476D01*
X169563095Y-126717857D01*
X169610714Y-126622619D01*
X169658333Y-126575000D01*
X169753571Y-126527381D01*
X169944048Y-126527381D01*
X170039286Y-126575000D01*
X170086905Y-126622619D01*
X170134524Y-126717857D01*
X170134524Y-126765476D01*
X170086905Y-126860714D01*
X170039286Y-126908333D01*
X169944048Y-126955952D01*
X169753571Y-126955952D01*
X169658333Y-127003571D01*
X169610714Y-127051190D01*
X169563095Y-127146429D01*
X169563095Y-127336905D01*
X169610714Y-127432143D01*
X169658333Y-127479762D01*
X169753571Y-127527381D01*
X169944048Y-127527381D01*
X170039286Y-127479762D01*
X170086905Y-127432143D01*
X170134524Y-127336905D01*
X170134524Y-127146429D01*
X170086905Y-127051190D01*
X170039286Y-127003571D01*
X169944048Y-126955952D01*
X170753571Y-126527381D02*
X170848810Y-126527381D01*
X170944048Y-126575000D01*
X170991667Y-126622619D01*
X171039286Y-126717857D01*
X171086905Y-126908333D01*
X171086905Y-127146429D01*
X171039286Y-127336905D01*
X170991667Y-127432143D01*
X170944048Y-127479762D01*
X170848810Y-127527381D01*
X170753571Y-127527381D01*
X170658333Y-127479762D01*
X170610714Y-127432143D01*
X170563095Y-127336905D01*
X170515476Y-127146429D01*
X170515476Y-126908333D01*
X170563095Y-126717857D01*
X170610714Y-126622619D01*
X170658333Y-126575000D01*
X170753571Y-126527381D01*
X171991667Y-126527381D02*
X171515476Y-126527381D01*
X171467857Y-127003571D01*
X171515476Y-126955952D01*
X171610714Y-126908333D01*
X171848810Y-126908333D01*
X171944048Y-126955952D01*
X171991667Y-127003571D01*
X172039286Y-127098810D01*
X172039286Y-127336905D01*
X171991667Y-127432143D01*
X171944048Y-127479762D01*
X171848810Y-127527381D01*
X171610714Y-127527381D01*
X171515476Y-127479762D01*
X171467857Y-127432143D01*
X172658333Y-126527381D02*
X172753572Y-126527381D01*
X172848810Y-126575000D01*
X172896429Y-126622619D01*
X172944048Y-126717857D01*
X172991667Y-126908333D01*
X172991667Y-127146429D01*
X172944048Y-127336905D01*
X172896429Y-127432143D01*
X172848810Y-127479762D01*
X172753572Y-127527381D01*
X172658333Y-127527381D01*
X172563095Y-127479762D01*
X172515476Y-127432143D01*
X172467857Y-127336905D01*
X172420238Y-127146429D01*
X172420238Y-126908333D01*
X172467857Y-126717857D01*
X172515476Y-126622619D01*
X172563095Y-126575000D01*
X172658333Y-126527381D01*
X172209524Y-109127381D02*
X171638095Y-109127381D01*
X171923809Y-109127381D02*
X171923809Y-108127381D01*
X171828571Y-108270238D01*
X171733333Y-108365476D01*
X171638095Y-108413095D01*
X172828571Y-108127381D02*
X172923810Y-108127381D01*
X173019048Y-108175000D01*
X173066667Y-108222619D01*
X173114286Y-108317857D01*
X173161905Y-108508333D01*
X173161905Y-108746429D01*
X173114286Y-108936905D01*
X173066667Y-109032143D01*
X173019048Y-109079762D01*
X172923810Y-109127381D01*
X172828571Y-109127381D01*
X172733333Y-109079762D01*
X172685714Y-109032143D01*
X172638095Y-108936905D01*
X172590476Y-108746429D01*
X172590476Y-108508333D01*
X172638095Y-108317857D01*
X172685714Y-108222619D01*
X172733333Y-108175000D01*
X172828571Y-108127381D01*
X173590476Y-109127381D02*
X173590476Y-108127381D01*
X174161905Y-109127381D02*
X173733333Y-108555952D01*
X174161905Y-108127381D02*
X173590476Y-108698810D01*
X166489286Y-95577381D02*
X165917857Y-95577381D01*
X166203571Y-95577381D02*
X166203571Y-94577381D01*
X166108333Y-94720238D01*
X166013095Y-94815476D01*
X165917857Y-94863095D01*
X166917857Y-95577381D02*
X166917857Y-94577381D01*
X167251191Y-95291667D01*
X167584524Y-94577381D01*
X167584524Y-95577381D01*
X148784524Y-114027381D02*
X148213095Y-114027381D01*
X148498809Y-114027381D02*
X148498809Y-113027381D01*
X148403571Y-113170238D01*
X148308333Y-113265476D01*
X148213095Y-113313095D01*
X149403571Y-113027381D02*
X149498810Y-113027381D01*
X149594048Y-113075000D01*
X149641667Y-113122619D01*
X149689286Y-113217857D01*
X149736905Y-113408333D01*
X149736905Y-113646429D01*
X149689286Y-113836905D01*
X149641667Y-113932143D01*
X149594048Y-113979762D01*
X149498810Y-114027381D01*
X149403571Y-114027381D01*
X149308333Y-113979762D01*
X149260714Y-113932143D01*
X149213095Y-113836905D01*
X149165476Y-113646429D01*
X149165476Y-113408333D01*
X149213095Y-113217857D01*
X149260714Y-113122619D01*
X149308333Y-113075000D01*
X149403571Y-113027381D01*
X150165476Y-114027381D02*
X150165476Y-113027381D01*
X150736905Y-114027381D02*
X150308333Y-113455952D01*
X150736905Y-113027381D02*
X150165476Y-113598810D01*
X128327234Y-95127381D02*
X127755805Y-95127381D01*
X128041519Y-95127381D02*
X128041519Y-94127381D01*
X127946281Y-94270238D01*
X127851043Y-94365476D01*
X127755805Y-94413095D01*
X128946281Y-94127381D02*
X129041520Y-94127381D01*
X129136758Y-94175000D01*
X129184377Y-94222619D01*
X129231996Y-94317857D01*
X129279615Y-94508333D01*
X129279615Y-94746429D01*
X129231996Y-94936905D01*
X129184377Y-95032143D01*
X129136758Y-95079762D01*
X129041520Y-95127381D01*
X128946281Y-95127381D01*
X128851043Y-95079762D01*
X128803424Y-95032143D01*
X128755805Y-94936905D01*
X128708186Y-94746429D01*
X128708186Y-94508333D01*
X128755805Y-94317857D01*
X128803424Y-94222619D01*
X128851043Y-94175000D01*
X128946281Y-94127381D01*
X129898662Y-94127381D02*
X129993901Y-94127381D01*
X130089139Y-94175000D01*
X130136758Y-94222619D01*
X130184377Y-94317857D01*
X130231996Y-94508333D01*
X130231996Y-94746429D01*
X130184377Y-94936905D01*
X130136758Y-95032143D01*
X130089139Y-95079762D01*
X129993901Y-95127381D01*
X129898662Y-95127381D01*
X129803424Y-95079762D01*
X129755805Y-95032143D01*
X129708186Y-94936905D01*
X129660567Y-94746429D01*
X129660567Y-94508333D01*
X129708186Y-94317857D01*
X129755805Y-94222619D01*
X129803424Y-94175000D01*
X129898662Y-94127381D01*
X146081834Y-94986181D02*
X145510405Y-94986181D01*
X145796119Y-94986181D02*
X145796119Y-93986181D01*
X145700881Y-94129038D01*
X145605643Y-94224276D01*
X145510405Y-94271895D01*
X146700881Y-93986181D02*
X146796120Y-93986181D01*
X146891358Y-94033800D01*
X146938977Y-94081419D01*
X146986596Y-94176657D01*
X147034215Y-94367133D01*
X147034215Y-94605229D01*
X146986596Y-94795705D01*
X146938977Y-94890943D01*
X146891358Y-94938562D01*
X146796120Y-94986181D01*
X146700881Y-94986181D01*
X146605643Y-94938562D01*
X146558024Y-94890943D01*
X146510405Y-94795705D01*
X146462786Y-94605229D01*
X146462786Y-94367133D01*
X146510405Y-94176657D01*
X146558024Y-94081419D01*
X146605643Y-94033800D01*
X146700881Y-93986181D01*
X147653262Y-93986181D02*
X147748501Y-93986181D01*
X147843739Y-94033800D01*
X147891358Y-94081419D01*
X147938977Y-94176657D01*
X147986596Y-94367133D01*
X147986596Y-94605229D01*
X147938977Y-94795705D01*
X147891358Y-94890943D01*
X147843739Y-94938562D01*
X147748501Y-94986181D01*
X147653262Y-94986181D01*
X147558024Y-94938562D01*
X147510405Y-94890943D01*
X147462786Y-94795705D01*
X147415167Y-94605229D01*
X147415167Y-94367133D01*
X147462786Y-94176657D01*
X147510405Y-94081419D01*
X147558024Y-94033800D01*
X147653262Y-93986181D01*
X163783334Y-94852381D02*
X163211905Y-94852381D01*
X163497619Y-94852381D02*
X163497619Y-93852381D01*
X163402381Y-93995238D01*
X163307143Y-94090476D01*
X163211905Y-94138095D01*
X164402381Y-93852381D02*
X164497620Y-93852381D01*
X164592858Y-93900000D01*
X164640477Y-93947619D01*
X164688096Y-94042857D01*
X164735715Y-94233333D01*
X164735715Y-94471429D01*
X164688096Y-94661905D01*
X164640477Y-94757143D01*
X164592858Y-94804762D01*
X164497620Y-94852381D01*
X164402381Y-94852381D01*
X164307143Y-94804762D01*
X164259524Y-94757143D01*
X164211905Y-94661905D01*
X164164286Y-94471429D01*
X164164286Y-94233333D01*
X164211905Y-94042857D01*
X164259524Y-93947619D01*
X164307143Y-93900000D01*
X164402381Y-93852381D01*
X165354762Y-93852381D02*
X165450001Y-93852381D01*
X165545239Y-93900000D01*
X165592858Y-93947619D01*
X165640477Y-94042857D01*
X165688096Y-94233333D01*
X165688096Y-94471429D01*
X165640477Y-94661905D01*
X165592858Y-94757143D01*
X165545239Y-94804762D01*
X165450001Y-94852381D01*
X165354762Y-94852381D01*
X165259524Y-94804762D01*
X165211905Y-94757143D01*
X165164286Y-94661905D01*
X165116667Y-94471429D01*
X165116667Y-94233333D01*
X165164286Y-94042857D01*
X165211905Y-93947619D01*
X165259524Y-93900000D01*
X165354762Y-93852381D01*
X181483334Y-94677381D02*
X180911905Y-94677381D01*
X181197619Y-94677381D02*
X181197619Y-93677381D01*
X181102381Y-93820238D01*
X181007143Y-93915476D01*
X180911905Y-93963095D01*
X182102381Y-93677381D02*
X182197620Y-93677381D01*
X182292858Y-93725000D01*
X182340477Y-93772619D01*
X182388096Y-93867857D01*
X182435715Y-94058333D01*
X182435715Y-94296429D01*
X182388096Y-94486905D01*
X182340477Y-94582143D01*
X182292858Y-94629762D01*
X182197620Y-94677381D01*
X182102381Y-94677381D01*
X182007143Y-94629762D01*
X181959524Y-94582143D01*
X181911905Y-94486905D01*
X181864286Y-94296429D01*
X181864286Y-94058333D01*
X181911905Y-93867857D01*
X181959524Y-93772619D01*
X182007143Y-93725000D01*
X182102381Y-93677381D01*
X183054762Y-93677381D02*
X183150001Y-93677381D01*
X183245239Y-93725000D01*
X183292858Y-93772619D01*
X183340477Y-93867857D01*
X183388096Y-94058333D01*
X183388096Y-94296429D01*
X183340477Y-94486905D01*
X183292858Y-94582143D01*
X183245239Y-94629762D01*
X183150001Y-94677381D01*
X183054762Y-94677381D01*
X182959524Y-94629762D01*
X182911905Y-94582143D01*
X182864286Y-94486905D01*
X182816667Y-94296429D01*
X182816667Y-94058333D01*
X182864286Y-93867857D01*
X182911905Y-93772619D01*
X182959524Y-93725000D01*
X183054762Y-93677381D01*
X161784524Y-104027381D02*
X161213095Y-104027381D01*
X161498809Y-104027381D02*
X161498809Y-103027381D01*
X161403571Y-103170238D01*
X161308333Y-103265476D01*
X161213095Y-103313095D01*
X162403571Y-103027381D02*
X162498810Y-103027381D01*
X162594048Y-103075000D01*
X162641667Y-103122619D01*
X162689286Y-103217857D01*
X162736905Y-103408333D01*
X162736905Y-103646429D01*
X162689286Y-103836905D01*
X162641667Y-103932143D01*
X162594048Y-103979762D01*
X162498810Y-104027381D01*
X162403571Y-104027381D01*
X162308333Y-103979762D01*
X162260714Y-103932143D01*
X162213095Y-103836905D01*
X162165476Y-103646429D01*
X162165476Y-103408333D01*
X162213095Y-103217857D01*
X162260714Y-103122619D01*
X162308333Y-103075000D01*
X162403571Y-103027381D01*
X163165476Y-104027381D02*
X163165476Y-103027381D01*
X163736905Y-104027381D02*
X163308333Y-103455952D01*
X163736905Y-103027381D02*
X163165476Y-103598810D01*
X128333334Y-127727381D02*
X127761905Y-127727381D01*
X128047619Y-127727381D02*
X128047619Y-126727381D01*
X127952381Y-126870238D01*
X127857143Y-126965476D01*
X127761905Y-127013095D01*
X128952381Y-126727381D02*
X129047620Y-126727381D01*
X129142858Y-126775000D01*
X129190477Y-126822619D01*
X129238096Y-126917857D01*
X129285715Y-127108333D01*
X129285715Y-127346429D01*
X129238096Y-127536905D01*
X129190477Y-127632143D01*
X129142858Y-127679762D01*
X129047620Y-127727381D01*
X128952381Y-127727381D01*
X128857143Y-127679762D01*
X128809524Y-127632143D01*
X128761905Y-127536905D01*
X128714286Y-127346429D01*
X128714286Y-127108333D01*
X128761905Y-126917857D01*
X128809524Y-126822619D01*
X128857143Y-126775000D01*
X128952381Y-126727381D01*
X129904762Y-126727381D02*
X130000001Y-126727381D01*
X130095239Y-126775000D01*
X130142858Y-126822619D01*
X130190477Y-126917857D01*
X130238096Y-127108333D01*
X130238096Y-127346429D01*
X130190477Y-127536905D01*
X130142858Y-127632143D01*
X130095239Y-127679762D01*
X130000001Y-127727381D01*
X129904762Y-127727381D01*
X129809524Y-127679762D01*
X129761905Y-127632143D01*
X129714286Y-127536905D01*
X129666667Y-127346429D01*
X129666667Y-127108333D01*
X129714286Y-126917857D01*
X129761905Y-126822619D01*
X129809524Y-126775000D01*
X129904762Y-126727381D01*
X146008334Y-127777381D02*
X145436905Y-127777381D01*
X145722619Y-127777381D02*
X145722619Y-126777381D01*
X145627381Y-126920238D01*
X145532143Y-127015476D01*
X145436905Y-127063095D01*
X146627381Y-126777381D02*
X146722620Y-126777381D01*
X146817858Y-126825000D01*
X146865477Y-126872619D01*
X146913096Y-126967857D01*
X146960715Y-127158333D01*
X146960715Y-127396429D01*
X146913096Y-127586905D01*
X146865477Y-127682143D01*
X146817858Y-127729762D01*
X146722620Y-127777381D01*
X146627381Y-127777381D01*
X146532143Y-127729762D01*
X146484524Y-127682143D01*
X146436905Y-127586905D01*
X146389286Y-127396429D01*
X146389286Y-127158333D01*
X146436905Y-126967857D01*
X146484524Y-126872619D01*
X146532143Y-126825000D01*
X146627381Y-126777381D01*
X147579762Y-126777381D02*
X147675001Y-126777381D01*
X147770239Y-126825000D01*
X147817858Y-126872619D01*
X147865477Y-126967857D01*
X147913096Y-127158333D01*
X147913096Y-127396429D01*
X147865477Y-127586905D01*
X147817858Y-127682143D01*
X147770239Y-127729762D01*
X147675001Y-127777381D01*
X147579762Y-127777381D01*
X147484524Y-127729762D01*
X147436905Y-127682143D01*
X147389286Y-127586905D01*
X147341667Y-127396429D01*
X147341667Y-127158333D01*
X147389286Y-126967857D01*
X147436905Y-126872619D01*
X147484524Y-126825000D01*
X147579762Y-126777381D01*
X163658334Y-127777381D02*
X163086905Y-127777381D01*
X163372619Y-127777381D02*
X163372619Y-126777381D01*
X163277381Y-126920238D01*
X163182143Y-127015476D01*
X163086905Y-127063095D01*
X164277381Y-126777381D02*
X164372620Y-126777381D01*
X164467858Y-126825000D01*
X164515477Y-126872619D01*
X164563096Y-126967857D01*
X164610715Y-127158333D01*
X164610715Y-127396429D01*
X164563096Y-127586905D01*
X164515477Y-127682143D01*
X164467858Y-127729762D01*
X164372620Y-127777381D01*
X164277381Y-127777381D01*
X164182143Y-127729762D01*
X164134524Y-127682143D01*
X164086905Y-127586905D01*
X164039286Y-127396429D01*
X164039286Y-127158333D01*
X164086905Y-126967857D01*
X164134524Y-126872619D01*
X164182143Y-126825000D01*
X164277381Y-126777381D01*
X165229762Y-126777381D02*
X165325001Y-126777381D01*
X165420239Y-126825000D01*
X165467858Y-126872619D01*
X165515477Y-126967857D01*
X165563096Y-127158333D01*
X165563096Y-127396429D01*
X165515477Y-127586905D01*
X165467858Y-127682143D01*
X165420239Y-127729762D01*
X165325001Y-127777381D01*
X165229762Y-127777381D01*
X165134524Y-127729762D01*
X165086905Y-127682143D01*
X165039286Y-127586905D01*
X164991667Y-127396429D01*
X164991667Y-127158333D01*
X165039286Y-126967857D01*
X165086905Y-126872619D01*
X165134524Y-126825000D01*
X165229762Y-126777381D01*
X181283334Y-127802381D02*
X180711905Y-127802381D01*
X180997619Y-127802381D02*
X180997619Y-126802381D01*
X180902381Y-126945238D01*
X180807143Y-127040476D01*
X180711905Y-127088095D01*
X181902381Y-126802381D02*
X181997620Y-126802381D01*
X182092858Y-126850000D01*
X182140477Y-126897619D01*
X182188096Y-126992857D01*
X182235715Y-127183333D01*
X182235715Y-127421429D01*
X182188096Y-127611905D01*
X182140477Y-127707143D01*
X182092858Y-127754762D01*
X181997620Y-127802381D01*
X181902381Y-127802381D01*
X181807143Y-127754762D01*
X181759524Y-127707143D01*
X181711905Y-127611905D01*
X181664286Y-127421429D01*
X181664286Y-127183333D01*
X181711905Y-126992857D01*
X181759524Y-126897619D01*
X181807143Y-126850000D01*
X181902381Y-126802381D01*
X182854762Y-126802381D02*
X182950001Y-126802381D01*
X183045239Y-126850000D01*
X183092858Y-126897619D01*
X183140477Y-126992857D01*
X183188096Y-127183333D01*
X183188096Y-127421429D01*
X183140477Y-127611905D01*
X183092858Y-127707143D01*
X183045239Y-127754762D01*
X182950001Y-127802381D01*
X182854762Y-127802381D01*
X182759524Y-127754762D01*
X182711905Y-127707143D01*
X182664286Y-127611905D01*
X182616667Y-127421429D01*
X182616667Y-127183333D01*
X182664286Y-126992857D01*
X182711905Y-126897619D01*
X182759524Y-126850000D01*
X182854762Y-126802381D01*
X117588096Y-88654281D02*
X117111905Y-88654281D01*
X117064286Y-89130471D01*
X117111905Y-89082852D01*
X117207143Y-89035233D01*
X117445239Y-89035233D01*
X117540477Y-89082852D01*
X117588096Y-89130471D01*
X117635715Y-89225710D01*
X117635715Y-89463805D01*
X117588096Y-89559043D01*
X117540477Y-89606662D01*
X117445239Y-89654281D01*
X117207143Y-89654281D01*
X117111905Y-89606662D01*
X117064286Y-89559043D01*
X118635715Y-89654281D02*
X118302381Y-89178090D01*
X118064286Y-89654281D02*
X118064286Y-88654281D01*
X118445239Y-88654281D01*
X118540477Y-88701900D01*
X118588096Y-88749519D01*
X118635715Y-88844757D01*
X118635715Y-88987614D01*
X118588096Y-89082852D01*
X118540477Y-89130471D01*
X118445239Y-89178090D01*
X118064286Y-89178090D01*
X135463096Y-88527381D02*
X134986905Y-88527381D01*
X134939286Y-89003571D01*
X134986905Y-88955952D01*
X135082143Y-88908333D01*
X135320239Y-88908333D01*
X135415477Y-88955952D01*
X135463096Y-89003571D01*
X135510715Y-89098810D01*
X135510715Y-89336905D01*
X135463096Y-89432143D01*
X135415477Y-89479762D01*
X135320239Y-89527381D01*
X135082143Y-89527381D01*
X134986905Y-89479762D01*
X134939286Y-89432143D01*
X136510715Y-89527381D02*
X136177381Y-89051190D01*
X135939286Y-89527381D02*
X135939286Y-88527381D01*
X136320239Y-88527381D01*
X136415477Y-88575000D01*
X136463096Y-88622619D01*
X136510715Y-88717857D01*
X136510715Y-88860714D01*
X136463096Y-88955952D01*
X136415477Y-89003571D01*
X136320239Y-89051190D01*
X135939286Y-89051190D01*
X153038096Y-88502381D02*
X152561905Y-88502381D01*
X152514286Y-88978571D01*
X152561905Y-88930952D01*
X152657143Y-88883333D01*
X152895239Y-88883333D01*
X152990477Y-88930952D01*
X153038096Y-88978571D01*
X153085715Y-89073810D01*
X153085715Y-89311905D01*
X153038096Y-89407143D01*
X152990477Y-89454762D01*
X152895239Y-89502381D01*
X152657143Y-89502381D01*
X152561905Y-89454762D01*
X152514286Y-89407143D01*
X154085715Y-89502381D02*
X153752381Y-89026190D01*
X153514286Y-89502381D02*
X153514286Y-88502381D01*
X153895239Y-88502381D01*
X153990477Y-88550000D01*
X154038096Y-88597619D01*
X154085715Y-88692857D01*
X154085715Y-88835714D01*
X154038096Y-88930952D01*
X153990477Y-88978571D01*
X153895239Y-89026190D01*
X153514286Y-89026190D01*
X170813096Y-88527381D02*
X170336905Y-88527381D01*
X170289286Y-89003571D01*
X170336905Y-88955952D01*
X170432143Y-88908333D01*
X170670239Y-88908333D01*
X170765477Y-88955952D01*
X170813096Y-89003571D01*
X170860715Y-89098810D01*
X170860715Y-89336905D01*
X170813096Y-89432143D01*
X170765477Y-89479762D01*
X170670239Y-89527381D01*
X170432143Y-89527381D01*
X170336905Y-89479762D01*
X170289286Y-89432143D01*
X171860715Y-89527381D02*
X171527381Y-89051190D01*
X171289286Y-89527381D02*
X171289286Y-88527381D01*
X171670239Y-88527381D01*
X171765477Y-88575000D01*
X171813096Y-88622619D01*
X171860715Y-88717857D01*
X171860715Y-88860714D01*
X171813096Y-88955952D01*
X171765477Y-89003571D01*
X171670239Y-89051190D01*
X171289286Y-89051190D01*
X149160715Y-107202381D02*
X148589286Y-107202381D01*
X148875000Y-107202381D02*
X148875000Y-106202381D01*
X148779762Y-106345238D01*
X148684524Y-106440476D01*
X148589286Y-106488095D01*
X149589286Y-107202381D02*
X149589286Y-106202381D01*
X150160715Y-107202381D02*
X149732143Y-106630952D01*
X150160715Y-106202381D02*
X149589286Y-106773810D01*
X149160715Y-108827381D02*
X148589286Y-108827381D01*
X148875000Y-108827381D02*
X148875000Y-107827381D01*
X148779762Y-107970238D01*
X148684524Y-108065476D01*
X148589286Y-108113095D01*
X149589286Y-108827381D02*
X149589286Y-107827381D01*
X150160715Y-108827381D02*
X149732143Y-108255952D01*
X150160715Y-107827381D02*
X149589286Y-108398810D01*
X149160715Y-110427381D02*
X148589286Y-110427381D01*
X148875000Y-110427381D02*
X148875000Y-109427381D01*
X148779762Y-109570238D01*
X148684524Y-109665476D01*
X148589286Y-109713095D01*
X149589286Y-110427381D02*
X149589286Y-109427381D01*
X150160715Y-110427381D02*
X149732143Y-109855952D01*
X150160715Y-109427381D02*
X149589286Y-109998810D01*
X149135715Y-112002381D02*
X148564286Y-112002381D01*
X148850000Y-112002381D02*
X148850000Y-111002381D01*
X148754762Y-111145238D01*
X148659524Y-111240476D01*
X148564286Y-111288095D01*
X149564286Y-112002381D02*
X149564286Y-111002381D01*
X150135715Y-112002381D02*
X149707143Y-111430952D01*
X150135715Y-111002381D02*
X149564286Y-111573810D01*
X117638096Y-131727381D02*
X117161905Y-131727381D01*
X117114286Y-132203571D01*
X117161905Y-132155952D01*
X117257143Y-132108333D01*
X117495239Y-132108333D01*
X117590477Y-132155952D01*
X117638096Y-132203571D01*
X117685715Y-132298810D01*
X117685715Y-132536905D01*
X117638096Y-132632143D01*
X117590477Y-132679762D01*
X117495239Y-132727381D01*
X117257143Y-132727381D01*
X117161905Y-132679762D01*
X117114286Y-132632143D01*
X118685715Y-132727381D02*
X118352381Y-132251190D01*
X118114286Y-132727381D02*
X118114286Y-131727381D01*
X118495239Y-131727381D01*
X118590477Y-131775000D01*
X118638096Y-131822619D01*
X118685715Y-131917857D01*
X118685715Y-132060714D01*
X118638096Y-132155952D01*
X118590477Y-132203571D01*
X118495239Y-132251190D01*
X118114286Y-132251190D01*
X135388096Y-131752381D02*
X134911905Y-131752381D01*
X134864286Y-132228571D01*
X134911905Y-132180952D01*
X135007143Y-132133333D01*
X135245239Y-132133333D01*
X135340477Y-132180952D01*
X135388096Y-132228571D01*
X135435715Y-132323810D01*
X135435715Y-132561905D01*
X135388096Y-132657143D01*
X135340477Y-132704762D01*
X135245239Y-132752381D01*
X135007143Y-132752381D01*
X134911905Y-132704762D01*
X134864286Y-132657143D01*
X136435715Y-132752381D02*
X136102381Y-132276190D01*
X135864286Y-132752381D02*
X135864286Y-131752381D01*
X136245239Y-131752381D01*
X136340477Y-131800000D01*
X136388096Y-131847619D01*
X136435715Y-131942857D01*
X136435715Y-132085714D01*
X136388096Y-132180952D01*
X136340477Y-132228571D01*
X136245239Y-132276190D01*
X135864286Y-132276190D01*
X153038096Y-131727381D02*
X152561905Y-131727381D01*
X152514286Y-132203571D01*
X152561905Y-132155952D01*
X152657143Y-132108333D01*
X152895239Y-132108333D01*
X152990477Y-132155952D01*
X153038096Y-132203571D01*
X153085715Y-132298810D01*
X153085715Y-132536905D01*
X153038096Y-132632143D01*
X152990477Y-132679762D01*
X152895239Y-132727381D01*
X152657143Y-132727381D01*
X152561905Y-132679762D01*
X152514286Y-132632143D01*
X154085715Y-132727381D02*
X153752381Y-132251190D01*
X153514286Y-132727381D02*
X153514286Y-131727381D01*
X153895239Y-131727381D01*
X153990477Y-131775000D01*
X154038096Y-131822619D01*
X154085715Y-131917857D01*
X154085715Y-132060714D01*
X154038096Y-132155952D01*
X153990477Y-132203571D01*
X153895239Y-132251190D01*
X153514286Y-132251190D01*
X170688096Y-131752381D02*
X170211905Y-131752381D01*
X170164286Y-132228571D01*
X170211905Y-132180952D01*
X170307143Y-132133333D01*
X170545239Y-132133333D01*
X170640477Y-132180952D01*
X170688096Y-132228571D01*
X170735715Y-132323810D01*
X170735715Y-132561905D01*
X170688096Y-132657143D01*
X170640477Y-132704762D01*
X170545239Y-132752381D01*
X170307143Y-132752381D01*
X170211905Y-132704762D01*
X170164286Y-132657143D01*
X171735715Y-132752381D02*
X171402381Y-132276190D01*
X171164286Y-132752381D02*
X171164286Y-131752381D01*
X171545239Y-131752381D01*
X171640477Y-131800000D01*
X171688096Y-131847619D01*
X171735715Y-131942857D01*
X171735715Y-132085714D01*
X171688096Y-132180952D01*
X171640477Y-132228571D01*
X171545239Y-132276190D01*
X171164286Y-132276190D01*
X173460715Y-115877381D02*
X172889286Y-115877381D01*
X173175000Y-115877381D02*
X173175000Y-114877381D01*
X173079762Y-115020238D01*
X172984524Y-115115476D01*
X172889286Y-115163095D01*
X173889286Y-115877381D02*
X173889286Y-114877381D01*
X174460715Y-115877381D02*
X174032143Y-115305952D01*
X174460715Y-114877381D02*
X173889286Y-115448810D01*
X173410715Y-114277381D02*
X172839286Y-114277381D01*
X173125000Y-114277381D02*
X173125000Y-113277381D01*
X173029762Y-113420238D01*
X172934524Y-113515476D01*
X172839286Y-113563095D01*
X173839286Y-114277381D02*
X173839286Y-113277381D01*
X174410715Y-114277381D02*
X173982143Y-113705952D01*
X174410715Y-113277381D02*
X173839286Y-113848810D01*
X173360715Y-112677381D02*
X172789286Y-112677381D01*
X173075000Y-112677381D02*
X173075000Y-111677381D01*
X172979762Y-111820238D01*
X172884524Y-111915476D01*
X172789286Y-111963095D01*
X173789286Y-112677381D02*
X173789286Y-111677381D01*
X174360715Y-112677381D02*
X173932143Y-112105952D01*
X174360715Y-111677381D02*
X173789286Y-112248810D01*
X173260715Y-110427381D02*
X172689286Y-110427381D01*
X172975000Y-110427381D02*
X172975000Y-109427381D01*
X172879762Y-109570238D01*
X172784524Y-109665476D01*
X172689286Y-109713095D01*
X173689286Y-110427381D02*
X173689286Y-109427381D01*
X174260715Y-110427381D02*
X173832143Y-109855952D01*
X174260715Y-109427381D02*
X173689286Y-109998810D01*
X173661905Y-110527381D02*
X174328572Y-111527381D01*
X174328572Y-110527381D02*
X173661905Y-111527381D01*
X175280953Y-111432143D02*
X175233334Y-111479762D01*
X175090477Y-111527381D01*
X174995239Y-111527381D01*
X174852381Y-111479762D01*
X174757143Y-111384524D01*
X174709524Y-111289286D01*
X174661905Y-111098810D01*
X174661905Y-110955952D01*
X174709524Y-110765476D01*
X174757143Y-110670238D01*
X174852381Y-110575000D01*
X174995239Y-110527381D01*
X175090477Y-110527381D01*
X175233334Y-110575000D01*
X175280953Y-110622619D01*
X176138096Y-110527381D02*
X175947619Y-110527381D01*
X175852381Y-110575000D01*
X175804762Y-110622619D01*
X175709524Y-110765476D01*
X175661905Y-110955952D01*
X175661905Y-111336905D01*
X175709524Y-111432143D01*
X175757143Y-111479762D01*
X175852381Y-111527381D01*
X176042858Y-111527381D01*
X176138096Y-111479762D01*
X176185715Y-111432143D01*
X176233334Y-111336905D01*
X176233334Y-111098810D01*
X176185715Y-111003571D01*
X176138096Y-110955952D01*
X176042858Y-110908333D01*
X175852381Y-110908333D01*
X175757143Y-110955952D01*
X175709524Y-111003571D01*
X175661905Y-111098810D01*
X176614286Y-110622619D02*
X176661905Y-110575000D01*
X176757143Y-110527381D01*
X176995239Y-110527381D01*
X177090477Y-110575000D01*
X177138096Y-110622619D01*
X177185715Y-110717857D01*
X177185715Y-110813095D01*
X177138096Y-110955952D01*
X176566667Y-111527381D01*
X177185715Y-111527381D01*
X177804762Y-110527381D02*
X177900001Y-110527381D01*
X177995239Y-110575000D01*
X178042858Y-110622619D01*
X178090477Y-110717857D01*
X178138096Y-110908333D01*
X178138096Y-111146429D01*
X178090477Y-111336905D01*
X178042858Y-111432143D01*
X177995239Y-111479762D01*
X177900001Y-111527381D01*
X177804762Y-111527381D01*
X177709524Y-111479762D01*
X177661905Y-111432143D01*
X177614286Y-111336905D01*
X177566667Y-111146429D01*
X177566667Y-110908333D01*
X177614286Y-110717857D01*
X177661905Y-110622619D01*
X177709524Y-110575000D01*
X177804762Y-110527381D01*
X178995239Y-110527381D02*
X178804762Y-110527381D01*
X178709524Y-110575000D01*
X178661905Y-110622619D01*
X178566667Y-110765476D01*
X178519048Y-110955952D01*
X178519048Y-111336905D01*
X178566667Y-111432143D01*
X178614286Y-111479762D01*
X178709524Y-111527381D01*
X178900001Y-111527381D01*
X178995239Y-111479762D01*
X179042858Y-111432143D01*
X179090477Y-111336905D01*
X179090477Y-111098810D01*
X179042858Y-111003571D01*
X178995239Y-110955952D01*
X178900001Y-110908333D01*
X178709524Y-110908333D01*
X178614286Y-110955952D01*
X178566667Y-111003571D01*
X178519048Y-111098810D01*
X179519048Y-111527381D02*
X179519048Y-110527381D01*
X179900001Y-110527381D01*
X179995239Y-110575000D01*
X180042858Y-110622619D01*
X180090477Y-110717857D01*
X180090477Y-110860714D01*
X180042858Y-110955952D01*
X179995239Y-111003571D01*
X179900001Y-111051190D01*
X179519048Y-111051190D01*
X180423810Y-110527381D02*
X181042858Y-110527381D01*
X180709524Y-110908333D01*
X180852382Y-110908333D01*
X180947620Y-110955952D01*
X180995239Y-111003571D01*
X181042858Y-111098810D01*
X181042858Y-111336905D01*
X180995239Y-111432143D01*
X180947620Y-111479762D01*
X180852382Y-111527381D01*
X180566667Y-111527381D01*
X180471429Y-111479762D01*
X180423810Y-111432143D01*
X181376191Y-110527381D02*
X181995239Y-110527381D01*
X181661905Y-110908333D01*
X181804763Y-110908333D01*
X181900001Y-110955952D01*
X181947620Y-111003571D01*
X181995239Y-111098810D01*
X181995239Y-111336905D01*
X181947620Y-111432143D01*
X181900001Y-111479762D01*
X181804763Y-111527381D01*
X181519048Y-111527381D01*
X181423810Y-111479762D01*
X181376191Y-111432143D01*
X182376191Y-110622619D02*
X182423810Y-110575000D01*
X182519048Y-110527381D01*
X182757144Y-110527381D01*
X182852382Y-110575000D01*
X182900001Y-110622619D01*
X182947620Y-110717857D01*
X182947620Y-110813095D01*
X182900001Y-110955952D01*
X182328572Y-111527381D01*
X182947620Y-111527381D01*
X183376191Y-111527381D02*
X183376191Y-110527381D01*
X183709525Y-111241667D01*
X184042858Y-110527381D01*
X184042858Y-111527381D01*
X185090477Y-111527381D02*
X184757143Y-111051190D01*
X184519048Y-111527381D02*
X184519048Y-110527381D01*
X184900001Y-110527381D01*
X184995239Y-110575000D01*
X185042858Y-110622619D01*
X185090477Y-110717857D01*
X185090477Y-110860714D01*
X185042858Y-110955952D01*
X184995239Y-111003571D01*
X184900001Y-111051190D01*
X184519048Y-111051190D01*
X154495238Y-115854762D02*
X154638095Y-115902381D01*
X154876191Y-115902381D01*
X154971429Y-115854762D01*
X155019048Y-115807143D01*
X155066667Y-115711905D01*
X155066667Y-115616667D01*
X155019048Y-115521429D01*
X154971429Y-115473810D01*
X154876191Y-115426190D01*
X154685714Y-115378571D01*
X154590476Y-115330952D01*
X154542857Y-115283333D01*
X154495238Y-115188095D01*
X154495238Y-115092857D01*
X154542857Y-114997619D01*
X154590476Y-114950000D01*
X154685714Y-114902381D01*
X154923810Y-114902381D01*
X155066667Y-114950000D01*
X155352381Y-114902381D02*
X155923810Y-114902381D01*
X155638095Y-115902381D02*
X155638095Y-114902381D01*
X156257143Y-115902381D02*
X156257143Y-114902381D01*
X156590477Y-115616667D01*
X156923810Y-114902381D01*
X156923810Y-115902381D01*
X157304762Y-114902381D02*
X157923810Y-114902381D01*
X157590476Y-115283333D01*
X157733334Y-115283333D01*
X157828572Y-115330952D01*
X157876191Y-115378571D01*
X157923810Y-115473810D01*
X157923810Y-115711905D01*
X157876191Y-115807143D01*
X157828572Y-115854762D01*
X157733334Y-115902381D01*
X157447619Y-115902381D01*
X157352381Y-115854762D01*
X157304762Y-115807143D01*
X158304762Y-114997619D02*
X158352381Y-114950000D01*
X158447619Y-114902381D01*
X158685715Y-114902381D01*
X158780953Y-114950000D01*
X158828572Y-114997619D01*
X158876191Y-115092857D01*
X158876191Y-115188095D01*
X158828572Y-115330952D01*
X158257143Y-115902381D01*
X158876191Y-115902381D01*
X159638096Y-115378571D02*
X159304762Y-115378571D01*
X159304762Y-115902381D02*
X159304762Y-114902381D01*
X159780953Y-114902381D01*
X160685715Y-115902381D02*
X160114286Y-115902381D01*
X160400000Y-115902381D02*
X160400000Y-114902381D01*
X160304762Y-115045238D01*
X160209524Y-115140476D01*
X160114286Y-115188095D01*
X161304762Y-114902381D02*
X161400001Y-114902381D01*
X161495239Y-114950000D01*
X161542858Y-114997619D01*
X161590477Y-115092857D01*
X161638096Y-115283333D01*
X161638096Y-115521429D01*
X161590477Y-115711905D01*
X161542858Y-115807143D01*
X161495239Y-115854762D01*
X161400001Y-115902381D01*
X161304762Y-115902381D01*
X161209524Y-115854762D01*
X161161905Y-115807143D01*
X161114286Y-115711905D01*
X161066667Y-115521429D01*
X161066667Y-115283333D01*
X161114286Y-115092857D01*
X161161905Y-114997619D01*
X161209524Y-114950000D01*
X161304762Y-114902381D01*
X161971429Y-114902381D02*
X162590477Y-114902381D01*
X162257143Y-115283333D01*
X162400001Y-115283333D01*
X162495239Y-115330952D01*
X162542858Y-115378571D01*
X162590477Y-115473810D01*
X162590477Y-115711905D01*
X162542858Y-115807143D01*
X162495239Y-115854762D01*
X162400001Y-115902381D01*
X162114286Y-115902381D01*
X162019048Y-115854762D01*
X161971429Y-115807143D01*
X163590477Y-115902381D02*
X163257143Y-115426190D01*
X163019048Y-115902381D02*
X163019048Y-114902381D01*
X163400001Y-114902381D01*
X163495239Y-114950000D01*
X163542858Y-114997619D01*
X163590477Y-115092857D01*
X163590477Y-115235714D01*
X163542858Y-115330952D01*
X163495239Y-115378571D01*
X163400001Y-115426190D01*
X163019048Y-115426190D01*
X164590477Y-115807143D02*
X164542858Y-115854762D01*
X164400001Y-115902381D01*
X164304763Y-115902381D01*
X164161905Y-115854762D01*
X164066667Y-115759524D01*
X164019048Y-115664286D01*
X163971429Y-115473810D01*
X163971429Y-115330952D01*
X164019048Y-115140476D01*
X164066667Y-115045238D01*
X164161905Y-114950000D01*
X164304763Y-114902381D01*
X164400001Y-114902381D01*
X164542858Y-114950000D01*
X164590477Y-114997619D01*
X164876191Y-114902381D02*
X165447620Y-114902381D01*
X165161905Y-115902381D02*
X165161905Y-114902381D01*
X166209525Y-114902381D02*
X166019048Y-114902381D01*
X165923810Y-114950000D01*
X165876191Y-114997619D01*
X165780953Y-115140476D01*
X165733334Y-115330952D01*
X165733334Y-115711905D01*
X165780953Y-115807143D01*
X165828572Y-115854762D01*
X165923810Y-115902381D01*
X166114287Y-115902381D01*
X166209525Y-115854762D01*
X166257144Y-115807143D01*
X166304763Y-115711905D01*
X166304763Y-115473810D01*
X166257144Y-115378571D01*
X166209525Y-115330952D01*
X166114287Y-115283333D01*
X165923810Y-115283333D01*
X165828572Y-115330952D01*
X165780953Y-115378571D01*
X165733334Y-115473810D01*
X159286905Y-98902381D02*
X159953572Y-99902381D01*
X159953572Y-98902381D02*
X159286905Y-99902381D01*
X160810715Y-98902381D02*
X160334524Y-98902381D01*
X160286905Y-99378571D01*
X160334524Y-99330952D01*
X160429762Y-99283333D01*
X160667858Y-99283333D01*
X160763096Y-99330952D01*
X160810715Y-99378571D01*
X160858334Y-99473810D01*
X160858334Y-99711905D01*
X160810715Y-99807143D01*
X160763096Y-99854762D01*
X160667858Y-99902381D01*
X160429762Y-99902381D01*
X160334524Y-99854762D01*
X160286905Y-99807143D01*
X161477381Y-98902381D02*
X161572620Y-98902381D01*
X161667858Y-98950000D01*
X161715477Y-98997619D01*
X161763096Y-99092857D01*
X161810715Y-99283333D01*
X161810715Y-99521429D01*
X161763096Y-99711905D01*
X161715477Y-99807143D01*
X161667858Y-99854762D01*
X161572620Y-99902381D01*
X161477381Y-99902381D01*
X161382143Y-99854762D01*
X161334524Y-99807143D01*
X161286905Y-99711905D01*
X161239286Y-99521429D01*
X161239286Y-99283333D01*
X161286905Y-99092857D01*
X161334524Y-98997619D01*
X161382143Y-98950000D01*
X161477381Y-98902381D01*
X162144048Y-98902381D02*
X162763096Y-98902381D01*
X162429762Y-99283333D01*
X162572620Y-99283333D01*
X162667858Y-99330952D01*
X162715477Y-99378571D01*
X162763096Y-99473810D01*
X162763096Y-99711905D01*
X162715477Y-99807143D01*
X162667858Y-99854762D01*
X162572620Y-99902381D01*
X162286905Y-99902381D01*
X162191667Y-99854762D01*
X162144048Y-99807143D01*
X163144048Y-98997619D02*
X163191667Y-98950000D01*
X163286905Y-98902381D01*
X163525001Y-98902381D01*
X163620239Y-98950000D01*
X163667858Y-98997619D01*
X163715477Y-99092857D01*
X163715477Y-99188095D01*
X163667858Y-99330952D01*
X163096429Y-99902381D01*
X163715477Y-99902381D01*
X164286905Y-99330952D02*
X164191667Y-99283333D01*
X164144048Y-99235714D01*
X164096429Y-99140476D01*
X164096429Y-99092857D01*
X164144048Y-98997619D01*
X164191667Y-98950000D01*
X164286905Y-98902381D01*
X164477382Y-98902381D01*
X164572620Y-98950000D01*
X164620239Y-98997619D01*
X164667858Y-99092857D01*
X164667858Y-99140476D01*
X164620239Y-99235714D01*
X164572620Y-99283333D01*
X164477382Y-99330952D01*
X164286905Y-99330952D01*
X164191667Y-99378571D01*
X164144048Y-99426190D01*
X164096429Y-99521429D01*
X164096429Y-99711905D01*
X164144048Y-99807143D01*
X164191667Y-99854762D01*
X164286905Y-99902381D01*
X164477382Y-99902381D01*
X164572620Y-99854762D01*
X164620239Y-99807143D01*
X164667858Y-99711905D01*
X164667858Y-99521429D01*
X164620239Y-99426190D01*
X164572620Y-99378571D01*
X164477382Y-99330952D01*
X165096429Y-99902381D02*
X165096429Y-98902381D01*
X165429763Y-99616667D01*
X165763096Y-98902381D01*
X165763096Y-99902381D01*
X166191667Y-99854762D02*
X166334524Y-99902381D01*
X166572620Y-99902381D01*
X166667858Y-99854762D01*
X166715477Y-99807143D01*
X166763096Y-99711905D01*
X166763096Y-99616667D01*
X166715477Y-99521429D01*
X166667858Y-99473810D01*
X166572620Y-99426190D01*
X166382143Y-99378571D01*
X166286905Y-99330952D01*
X166239286Y-99283333D01*
X166191667Y-99188095D01*
X166191667Y-99092857D01*
X166239286Y-98997619D01*
X166286905Y-98950000D01*
X166382143Y-98902381D01*
X166620239Y-98902381D01*
X166763096Y-98950000D01*
X167191667Y-99902381D02*
X167191667Y-98902381D01*
X167429762Y-98902381D01*
X167572620Y-98950000D01*
X167667858Y-99045238D01*
X167715477Y-99140476D01*
X167763096Y-99330952D01*
X167763096Y-99473810D01*
X167715477Y-99664286D01*
X167667858Y-99759524D01*
X167572620Y-99854762D01*
X167429762Y-99902381D01*
X167191667Y-99902381D01*
X168144048Y-98997619D02*
X168191667Y-98950000D01*
X168286905Y-98902381D01*
X168525001Y-98902381D01*
X168620239Y-98950000D01*
X168667858Y-98997619D01*
X168715477Y-99092857D01*
X168715477Y-99188095D01*
X168667858Y-99330952D01*
X168096429Y-99902381D01*
X168715477Y-99902381D01*
X169667858Y-98950000D02*
X169572620Y-98902381D01*
X169429763Y-98902381D01*
X169286905Y-98950000D01*
X169191667Y-99045238D01*
X169144048Y-99140476D01*
X169096429Y-99330952D01*
X169096429Y-99473810D01*
X169144048Y-99664286D01*
X169191667Y-99759524D01*
X169286905Y-99854762D01*
X169429763Y-99902381D01*
X169525001Y-99902381D01*
X169667858Y-99854762D01*
X169715477Y-99807143D01*
X169715477Y-99473810D01*
X169525001Y-99473810D01*
X170715477Y-99807143D02*
X170667858Y-99854762D01*
X170525001Y-99902381D01*
X170429763Y-99902381D01*
X170286905Y-99854762D01*
X170191667Y-99759524D01*
X170144048Y-99664286D01*
X170096429Y-99473810D01*
X170096429Y-99330952D01*
X170144048Y-99140476D01*
X170191667Y-99045238D01*
X170286905Y-98950000D01*
X170429763Y-98902381D01*
X170525001Y-98902381D01*
X170667858Y-98950000D01*
X170715477Y-98997619D01*
M02*
