G04 #@! TF.FileFunction,Paste,Top*
%FSLAX46Y46*%
G04 Gerber Fmt 4.6, Leading zero omitted, Abs format (unit mm)*
G04 Created by KiCad (PCBNEW 4.0.2-stable) date 2017年04月18日 星期二 03:54:15*
%MOMM*%
G01*
G04 APERTURE LIST*
%ADD10C,0.100000*%
%ADD11R,0.800000X0.750000*%
%ADD12R,0.800100X0.800100*%
%ADD13R,0.500000X0.900000*%
%ADD14R,0.250000X1.000000*%
%ADD15R,1.000000X0.250000*%
%ADD16R,1.700000X2.400000*%
G04 APERTURE END LIST*
D10*
D11*
X163125000Y-97925000D03*
X161625000Y-97925000D03*
X167275000Y-97925000D03*
X168775000Y-97925000D03*
X187600000Y-114975000D03*
X186100000Y-114975000D03*
X187600000Y-113475000D03*
X186100000Y-113475000D03*
X186050000Y-108475000D03*
X187550000Y-108475000D03*
X186050000Y-106975000D03*
X187550000Y-106975000D03*
X169200000Y-107075000D03*
X167700000Y-107075000D03*
X156175000Y-103525000D03*
X154675000Y-103525000D03*
X160475000Y-101825000D03*
X158975000Y-101825000D03*
X153125000Y-108075000D03*
X151625000Y-108075000D03*
X162675000Y-118150000D03*
X164175000Y-118150000D03*
X128400000Y-91125000D03*
X129900000Y-91125000D03*
X146151600Y-90995500D03*
X147651600Y-90995500D03*
X163850000Y-91000000D03*
X165350000Y-91000000D03*
X181525000Y-91000000D03*
X183025000Y-91000000D03*
X152750000Y-115150000D03*
X151250000Y-115150000D03*
X128400000Y-130325000D03*
X129900000Y-130325000D03*
X146075000Y-130350000D03*
X147575000Y-130350000D03*
X163725000Y-130325000D03*
X165225000Y-130325000D03*
X181350000Y-130350000D03*
X182850000Y-130350000D03*
D12*
X118292760Y-92832000D03*
X118292760Y-90932000D03*
X116293780Y-91882000D03*
X136039860Y-92732900D03*
X136039860Y-90832900D03*
X134040880Y-91782900D03*
X153775760Y-92650000D03*
X153775760Y-90750000D03*
X151776780Y-91700000D03*
X171450760Y-92650000D03*
X171450760Y-90750000D03*
X169451780Y-91700000D03*
X116299240Y-128725000D03*
X116299240Y-130625000D03*
X118298220Y-129675000D03*
X134024240Y-128725000D03*
X134024240Y-130625000D03*
X136023220Y-129675000D03*
X151674240Y-128725000D03*
X151674240Y-130625000D03*
X153673220Y-129675000D03*
X169299240Y-128725000D03*
X169299240Y-130625000D03*
X171298220Y-129675000D03*
D13*
X169200000Y-108675000D03*
X167700000Y-108675000D03*
X165950000Y-97925000D03*
X164450000Y-97925000D03*
X152875000Y-113575000D03*
X151375000Y-113575000D03*
X128243900Y-92775000D03*
X129743900Y-92775000D03*
X145998500Y-92633800D03*
X147498500Y-92633800D03*
X163700000Y-92625000D03*
X165200000Y-92625000D03*
X181375000Y-92625000D03*
X182875000Y-92625000D03*
X158975000Y-103450000D03*
X160475000Y-103450000D03*
X128250000Y-128700000D03*
X129750000Y-128700000D03*
X145925000Y-128725000D03*
X147425000Y-128725000D03*
X163575000Y-128700000D03*
X165075000Y-128700000D03*
X181200000Y-128725000D03*
X182700000Y-128725000D03*
X120900000Y-89176900D03*
X119400000Y-89176900D03*
X138684700Y-89065100D03*
X137184700Y-89065100D03*
X156400000Y-89050000D03*
X154900000Y-89050000D03*
X174050000Y-89050000D03*
X172550000Y-89050000D03*
X146400000Y-106775000D03*
X147900000Y-106775000D03*
X146400000Y-108375000D03*
X147900000Y-108375000D03*
X146400000Y-109975000D03*
X147900000Y-109975000D03*
X146400000Y-111575000D03*
X147900000Y-111575000D03*
X120900000Y-132275000D03*
X119400000Y-132275000D03*
X138625000Y-132300000D03*
X137125000Y-132300000D03*
X156275000Y-132275000D03*
X154775000Y-132275000D03*
X173900000Y-132300000D03*
X172400000Y-132300000D03*
X172100000Y-115425000D03*
X170600000Y-115425000D03*
X172100000Y-113825000D03*
X170600000Y-113825000D03*
X172100000Y-112225000D03*
X170600000Y-112225000D03*
X172100000Y-110625000D03*
X170600000Y-110625000D03*
D12*
X187775000Y-109974240D03*
X185875000Y-109974240D03*
X186825000Y-111973220D03*
D14*
X164175000Y-105125000D03*
X163675000Y-105125000D03*
X163175000Y-105125000D03*
X162675000Y-105125000D03*
X162175000Y-105125000D03*
X161675000Y-105125000D03*
X161175000Y-105125000D03*
X160675000Y-105125000D03*
X160175000Y-105125000D03*
X159675000Y-105125000D03*
X159175000Y-105125000D03*
X158675000Y-105125000D03*
X158175000Y-105125000D03*
X157675000Y-105125000D03*
X157175000Y-105125000D03*
X156675000Y-105125000D03*
D15*
X154725000Y-107075000D03*
X154725000Y-107575000D03*
X154725000Y-108075000D03*
X154725000Y-108575000D03*
X154725000Y-109075000D03*
X154725000Y-109575000D03*
X154725000Y-110075000D03*
X154725000Y-110575000D03*
X154725000Y-111075000D03*
X154725000Y-111575000D03*
X154725000Y-112075000D03*
X154725000Y-112575000D03*
X154725000Y-113075000D03*
X154725000Y-113575000D03*
X154725000Y-114075000D03*
X154725000Y-114575000D03*
D14*
X156675000Y-116525000D03*
X157175000Y-116525000D03*
X157675000Y-116525000D03*
X158175000Y-116525000D03*
X158675000Y-116525000D03*
X159175000Y-116525000D03*
X159675000Y-116525000D03*
X160175000Y-116525000D03*
X160675000Y-116525000D03*
X161175000Y-116525000D03*
X161675000Y-116525000D03*
X162175000Y-116525000D03*
X162675000Y-116525000D03*
X163175000Y-116525000D03*
X163675000Y-116525000D03*
X164175000Y-116525000D03*
D15*
X166125000Y-114575000D03*
X166125000Y-114075000D03*
X166125000Y-113575000D03*
X166125000Y-113075000D03*
X166125000Y-112575000D03*
X166125000Y-112075000D03*
X166125000Y-111575000D03*
X166125000Y-111075000D03*
X166125000Y-110575000D03*
X166125000Y-110075000D03*
X166125000Y-109575000D03*
X166125000Y-109075000D03*
X166125000Y-108575000D03*
X166125000Y-108075000D03*
X166125000Y-107575000D03*
X166125000Y-107075000D03*
D16*
X163350000Y-101450000D03*
X167050000Y-101450000D03*
M02*
