G04 #@! TF.FileFunction,Legend,Top*
%FSLAX46Y46*%
G04 Gerber Fmt 4.6, Leading zero omitted, Abs format (unit mm)*
G04 Created by KiCad (PCBNEW 4.0.2-stable) date 2017年04月18日 星期二 05:20:49*
%MOMM*%
G01*
G04 APERTURE LIST*
%ADD10C,0.100000*%
%ADD11C,0.150000*%
G04 APERTURE END LIST*
D10*
D11*
X162725000Y-98525000D02*
X162025000Y-98525000D01*
X162025000Y-97325000D02*
X162725000Y-97325000D01*
X167675000Y-97325000D02*
X168375000Y-97325000D01*
X168375000Y-98525000D02*
X167675000Y-98525000D01*
X187200000Y-115575000D02*
X186500000Y-115575000D01*
X186500000Y-114375000D02*
X187200000Y-114375000D01*
X187200000Y-114075000D02*
X186500000Y-114075000D01*
X186500000Y-112875000D02*
X187200000Y-112875000D01*
X186450000Y-107875000D02*
X187150000Y-107875000D01*
X187150000Y-109075000D02*
X186450000Y-109075000D01*
X186450000Y-106375000D02*
X187150000Y-106375000D01*
X187150000Y-107575000D02*
X186450000Y-107575000D01*
X168800000Y-107675000D02*
X168100000Y-107675000D01*
X168100000Y-106475000D02*
X168800000Y-106475000D01*
X155775000Y-104125000D02*
X155075000Y-104125000D01*
X155075000Y-102925000D02*
X155775000Y-102925000D01*
X160075000Y-102425000D02*
X159375000Y-102425000D01*
X159375000Y-101225000D02*
X160075000Y-101225000D01*
X152725000Y-108675000D02*
X152025000Y-108675000D01*
X152025000Y-107475000D02*
X152725000Y-107475000D01*
X163075000Y-117550000D02*
X163775000Y-117550000D01*
X163775000Y-118750000D02*
X163075000Y-118750000D01*
X128800000Y-90525000D02*
X129500000Y-90525000D01*
X129500000Y-91725000D02*
X128800000Y-91725000D01*
X146551600Y-90395500D02*
X147251600Y-90395500D01*
X147251600Y-91595500D02*
X146551600Y-91595500D01*
X164250000Y-90400000D02*
X164950000Y-90400000D01*
X164950000Y-91600000D02*
X164250000Y-91600000D01*
X181925000Y-90400000D02*
X182625000Y-90400000D01*
X182625000Y-91600000D02*
X181925000Y-91600000D01*
X152350000Y-115750000D02*
X151650000Y-115750000D01*
X151650000Y-114550000D02*
X152350000Y-114550000D01*
X128800000Y-129725000D02*
X129500000Y-129725000D01*
X129500000Y-130925000D02*
X128800000Y-130925000D01*
X146475000Y-129750000D02*
X147175000Y-129750000D01*
X147175000Y-130950000D02*
X146475000Y-130950000D01*
X164125000Y-129725000D02*
X164825000Y-129725000D01*
X164825000Y-130925000D02*
X164125000Y-130925000D01*
X181750000Y-129750000D02*
X182450000Y-129750000D01*
X182450000Y-130950000D02*
X181750000Y-130950000D01*
X121710000Y-89775000D02*
X123260000Y-89775000D01*
X127070000Y-89495000D02*
X124530000Y-89495000D01*
X124530000Y-89495000D02*
X124530000Y-86955000D01*
X123260000Y-86675000D02*
X121710000Y-86675000D01*
X121710000Y-86675000D02*
X121710000Y-89775000D01*
X124530000Y-86955000D02*
X127070000Y-86955000D01*
X127070000Y-86955000D02*
X127070000Y-89495000D01*
X139508900Y-89662600D02*
X141058900Y-89662600D01*
X144868900Y-89382600D02*
X142328900Y-89382600D01*
X142328900Y-89382600D02*
X142328900Y-86842600D01*
X141058900Y-86562600D02*
X139508900Y-86562600D01*
X139508900Y-86562600D02*
X139508900Y-89662600D01*
X142328900Y-86842600D02*
X144868900Y-86842600D01*
X144868900Y-86842600D02*
X144868900Y-89382600D01*
X157225000Y-89650000D02*
X158775000Y-89650000D01*
X162585000Y-89370000D02*
X160045000Y-89370000D01*
X160045000Y-89370000D02*
X160045000Y-86830000D01*
X158775000Y-86550000D02*
X157225000Y-86550000D01*
X157225000Y-86550000D02*
X157225000Y-89650000D01*
X160045000Y-86830000D02*
X162585000Y-86830000D01*
X162585000Y-86830000D02*
X162585000Y-89370000D01*
X174875000Y-89650000D02*
X176425000Y-89650000D01*
X180235000Y-89370000D02*
X177695000Y-89370000D01*
X177695000Y-89370000D02*
X177695000Y-86830000D01*
X176425000Y-86550000D02*
X174875000Y-86550000D01*
X174875000Y-86550000D02*
X174875000Y-89650000D01*
X177695000Y-86830000D02*
X180235000Y-86830000D01*
X180235000Y-86830000D02*
X180235000Y-89370000D01*
X121735000Y-134775000D02*
X123285000Y-134775000D01*
X127095000Y-134495000D02*
X124555000Y-134495000D01*
X124555000Y-134495000D02*
X124555000Y-131955000D01*
X123285000Y-131675000D02*
X121735000Y-131675000D01*
X121735000Y-131675000D02*
X121735000Y-134775000D01*
X124555000Y-131955000D02*
X127095000Y-131955000D01*
X127095000Y-131955000D02*
X127095000Y-134495000D01*
X139460000Y-134800000D02*
X141010000Y-134800000D01*
X144820000Y-134520000D02*
X142280000Y-134520000D01*
X142280000Y-134520000D02*
X142280000Y-131980000D01*
X141010000Y-131700000D02*
X139460000Y-131700000D01*
X139460000Y-131700000D02*
X139460000Y-134800000D01*
X142280000Y-131980000D02*
X144820000Y-131980000D01*
X144820000Y-131980000D02*
X144820000Y-134520000D01*
X157110000Y-134775000D02*
X158660000Y-134775000D01*
X162470000Y-134495000D02*
X159930000Y-134495000D01*
X159930000Y-134495000D02*
X159930000Y-131955000D01*
X158660000Y-131675000D02*
X157110000Y-131675000D01*
X157110000Y-131675000D02*
X157110000Y-134775000D01*
X159930000Y-131955000D02*
X162470000Y-131955000D01*
X162470000Y-131955000D02*
X162470000Y-134495000D01*
X174710000Y-134800000D02*
X176260000Y-134800000D01*
X180070000Y-134520000D02*
X177530000Y-134520000D01*
X177530000Y-134520000D02*
X177530000Y-131980000D01*
X176260000Y-131700000D02*
X174710000Y-131700000D01*
X174710000Y-131700000D02*
X174710000Y-134800000D01*
X177530000Y-131980000D02*
X180070000Y-131980000D01*
X180070000Y-131980000D02*
X180070000Y-134520000D01*
X202125000Y-105875000D02*
X193295000Y-105875000D01*
X202125000Y-108415000D02*
X202125000Y-105875000D01*
X193295000Y-108415000D02*
X193295000Y-105875000D01*
X193295000Y-110955000D02*
X193295000Y-108415000D01*
X202125000Y-110955000D02*
X202125000Y-108415000D01*
X202125000Y-108415000D02*
X193295000Y-108415000D01*
X202125000Y-110955000D02*
X193295000Y-110955000D01*
X202125000Y-113495000D02*
X202125000Y-110955000D01*
X193295000Y-113495000D02*
X202125000Y-113495000D01*
X193295000Y-113495000D02*
X193295000Y-110955000D01*
X193295000Y-116035000D02*
X193295000Y-113495000D01*
X190625000Y-114765000D02*
X190625000Y-116315000D01*
X190625000Y-116315000D02*
X192025000Y-116315000D01*
X193295000Y-116035000D02*
X202125000Y-116035000D01*
X202125000Y-116035000D02*
X202125000Y-113495000D01*
X202125000Y-113495000D02*
X193295000Y-113495000D01*
X120720000Y-90275000D02*
X119170000Y-90275000D01*
X119170000Y-90275000D02*
X119170000Y-93375000D01*
X119170000Y-93375000D02*
X120720000Y-93375000D01*
X121990000Y-90555000D02*
X127070000Y-90555000D01*
X127070000Y-90555000D02*
X127070000Y-93095000D01*
X127070000Y-93095000D02*
X121990000Y-93095000D01*
X121990000Y-93095000D02*
X121990000Y-90555000D01*
X138506200Y-90144000D02*
X136956200Y-90144000D01*
X136956200Y-90144000D02*
X136956200Y-93244000D01*
X136956200Y-93244000D02*
X138506200Y-93244000D01*
X139776200Y-90424000D02*
X144856200Y-90424000D01*
X144856200Y-90424000D02*
X144856200Y-92964000D01*
X144856200Y-92964000D02*
X139776200Y-92964000D01*
X139776200Y-92964000D02*
X139776200Y-90424000D01*
X156225000Y-90125000D02*
X154675000Y-90125000D01*
X154675000Y-90125000D02*
X154675000Y-93225000D01*
X154675000Y-93225000D02*
X156225000Y-93225000D01*
X157495000Y-90405000D02*
X162575000Y-90405000D01*
X162575000Y-90405000D02*
X162575000Y-92945000D01*
X162575000Y-92945000D02*
X157495000Y-92945000D01*
X157495000Y-92945000D02*
X157495000Y-90405000D01*
X173875000Y-90125000D02*
X172325000Y-90125000D01*
X172325000Y-90125000D02*
X172325000Y-93225000D01*
X172325000Y-93225000D02*
X173875000Y-93225000D01*
X175145000Y-90405000D02*
X180225000Y-90405000D01*
X180225000Y-90405000D02*
X180225000Y-92945000D01*
X180225000Y-92945000D02*
X175145000Y-92945000D01*
X175145000Y-92945000D02*
X175145000Y-90405000D01*
X120745000Y-128100000D02*
X119195000Y-128100000D01*
X119195000Y-128100000D02*
X119195000Y-131200000D01*
X119195000Y-131200000D02*
X120745000Y-131200000D01*
X122015000Y-128380000D02*
X127095000Y-128380000D01*
X127095000Y-128380000D02*
X127095000Y-130920000D01*
X127095000Y-130920000D02*
X122015000Y-130920000D01*
X122015000Y-130920000D02*
X122015000Y-128380000D01*
X138450000Y-128125000D02*
X136900000Y-128125000D01*
X136900000Y-128125000D02*
X136900000Y-131225000D01*
X136900000Y-131225000D02*
X138450000Y-131225000D01*
X139720000Y-128405000D02*
X144800000Y-128405000D01*
X144800000Y-128405000D02*
X144800000Y-130945000D01*
X144800000Y-130945000D02*
X139720000Y-130945000D01*
X139720000Y-130945000D02*
X139720000Y-128405000D01*
X156100000Y-128100000D02*
X154550000Y-128100000D01*
X154550000Y-128100000D02*
X154550000Y-131200000D01*
X154550000Y-131200000D02*
X156100000Y-131200000D01*
X157370000Y-128380000D02*
X162450000Y-128380000D01*
X162450000Y-128380000D02*
X162450000Y-130920000D01*
X162450000Y-130920000D02*
X157370000Y-130920000D01*
X157370000Y-130920000D02*
X157370000Y-128380000D01*
X173725000Y-128125000D02*
X172175000Y-128125000D01*
X172175000Y-128125000D02*
X172175000Y-131225000D01*
X172175000Y-131225000D02*
X173725000Y-131225000D01*
X174995000Y-128405000D02*
X180075000Y-128405000D01*
X180075000Y-128405000D02*
X180075000Y-130945000D01*
X180075000Y-130945000D02*
X174995000Y-130945000D01*
X174995000Y-130945000D02*
X174995000Y-128405000D01*
X116641760Y-90582840D02*
X116641760Y-90631100D01*
X117342800Y-93381820D02*
X116641760Y-93381820D01*
X116641760Y-93381820D02*
X116641760Y-93132900D01*
X116641760Y-90582840D02*
X116641760Y-90382180D01*
X116641760Y-90382180D02*
X117342800Y-90382180D01*
X134388860Y-90483740D02*
X134388860Y-90532000D01*
X135089900Y-93282720D02*
X134388860Y-93282720D01*
X134388860Y-93282720D02*
X134388860Y-93033800D01*
X134388860Y-90483740D02*
X134388860Y-90283080D01*
X134388860Y-90283080D02*
X135089900Y-90283080D01*
X152124760Y-90400840D02*
X152124760Y-90449100D01*
X152825800Y-93199820D02*
X152124760Y-93199820D01*
X152124760Y-93199820D02*
X152124760Y-92950900D01*
X152124760Y-90400840D02*
X152124760Y-90200180D01*
X152124760Y-90200180D02*
X152825800Y-90200180D01*
X169799760Y-90400840D02*
X169799760Y-90449100D01*
X170500800Y-93199820D02*
X169799760Y-93199820D01*
X169799760Y-93199820D02*
X169799760Y-92950900D01*
X169799760Y-90400840D02*
X169799760Y-90200180D01*
X169799760Y-90200180D02*
X170500800Y-90200180D01*
X117950240Y-130974160D02*
X117950240Y-130925900D01*
X117249200Y-128175180D02*
X117950240Y-128175180D01*
X117950240Y-128175180D02*
X117950240Y-128424100D01*
X117950240Y-130974160D02*
X117950240Y-131174820D01*
X117950240Y-131174820D02*
X117249200Y-131174820D01*
X135675240Y-130974160D02*
X135675240Y-130925900D01*
X134974200Y-128175180D02*
X135675240Y-128175180D01*
X135675240Y-128175180D02*
X135675240Y-128424100D01*
X135675240Y-130974160D02*
X135675240Y-131174820D01*
X135675240Y-131174820D02*
X134974200Y-131174820D01*
X153325240Y-130974160D02*
X153325240Y-130925900D01*
X152624200Y-128175180D02*
X153325240Y-128175180D01*
X153325240Y-128175180D02*
X153325240Y-128424100D01*
X153325240Y-130974160D02*
X153325240Y-131174820D01*
X153325240Y-131174820D02*
X152624200Y-131174820D01*
X170950240Y-130974160D02*
X170950240Y-130925900D01*
X170249200Y-128175180D02*
X170950240Y-128175180D01*
X170950240Y-128175180D02*
X170950240Y-128424100D01*
X170950240Y-130974160D02*
X170950240Y-131174820D01*
X170950240Y-131174820D02*
X170249200Y-131174820D01*
X167950000Y-108000000D02*
X168950000Y-108000000D01*
X168950000Y-109350000D02*
X167950000Y-109350000D01*
X164700000Y-97250000D02*
X165700000Y-97250000D01*
X165700000Y-98600000D02*
X164700000Y-98600000D01*
X151625000Y-112900000D02*
X152625000Y-112900000D01*
X152625000Y-114250000D02*
X151625000Y-114250000D01*
X129493900Y-93450000D02*
X128493900Y-93450000D01*
X128493900Y-92100000D02*
X129493900Y-92100000D01*
X147248500Y-93308800D02*
X146248500Y-93308800D01*
X146248500Y-91958800D02*
X147248500Y-91958800D01*
X164950000Y-93300000D02*
X163950000Y-93300000D01*
X163950000Y-91950000D02*
X164950000Y-91950000D01*
X182625000Y-93300000D02*
X181625000Y-93300000D01*
X181625000Y-91950000D02*
X182625000Y-91950000D01*
X160225000Y-104125000D02*
X159225000Y-104125000D01*
X159225000Y-102775000D02*
X160225000Y-102775000D01*
X129500000Y-129375000D02*
X128500000Y-129375000D01*
X128500000Y-128025000D02*
X129500000Y-128025000D01*
X147175000Y-129400000D02*
X146175000Y-129400000D01*
X146175000Y-128050000D02*
X147175000Y-128050000D01*
X164825000Y-129375000D02*
X163825000Y-129375000D01*
X163825000Y-128025000D02*
X164825000Y-128025000D01*
X182450000Y-129400000D02*
X181450000Y-129400000D01*
X181450000Y-128050000D02*
X182450000Y-128050000D01*
X119650000Y-88501900D02*
X120650000Y-88501900D01*
X120650000Y-89851900D02*
X119650000Y-89851900D01*
X137434700Y-88390100D02*
X138434700Y-88390100D01*
X138434700Y-89740100D02*
X137434700Y-89740100D01*
X155150000Y-88375000D02*
X156150000Y-88375000D01*
X156150000Y-89725000D02*
X155150000Y-89725000D01*
X172800000Y-88375000D02*
X173800000Y-88375000D01*
X173800000Y-89725000D02*
X172800000Y-89725000D01*
X147650000Y-107450000D02*
X146650000Y-107450000D01*
X146650000Y-106100000D02*
X147650000Y-106100000D01*
X147650000Y-109050000D02*
X146650000Y-109050000D01*
X146650000Y-107700000D02*
X147650000Y-107700000D01*
X147650000Y-110650000D02*
X146650000Y-110650000D01*
X146650000Y-109300000D02*
X147650000Y-109300000D01*
X147650000Y-112250000D02*
X146650000Y-112250000D01*
X146650000Y-110900000D02*
X147650000Y-110900000D01*
X119650000Y-131600000D02*
X120650000Y-131600000D01*
X120650000Y-132950000D02*
X119650000Y-132950000D01*
X137375000Y-131625000D02*
X138375000Y-131625000D01*
X138375000Y-132975000D02*
X137375000Y-132975000D01*
X155025000Y-131600000D02*
X156025000Y-131600000D01*
X156025000Y-132950000D02*
X155025000Y-132950000D01*
X172650000Y-131625000D02*
X173650000Y-131625000D01*
X173650000Y-132975000D02*
X172650000Y-132975000D01*
X170850000Y-114750000D02*
X171850000Y-114750000D01*
X171850000Y-116100000D02*
X170850000Y-116100000D01*
X170850000Y-113150000D02*
X171850000Y-113150000D01*
X171850000Y-114500000D02*
X170850000Y-114500000D01*
X170850000Y-111550000D02*
X171850000Y-111550000D01*
X171850000Y-112900000D02*
X170850000Y-112900000D01*
X170850000Y-109950000D02*
X171850000Y-109950000D01*
X171850000Y-111300000D02*
X170850000Y-111300000D01*
X185525840Y-111625240D02*
X185574100Y-111625240D01*
X188324820Y-110924200D02*
X188324820Y-111625240D01*
X188324820Y-111625240D02*
X188075900Y-111625240D01*
X185525840Y-111625240D02*
X185325180Y-111625240D01*
X185325180Y-111625240D02*
X185325180Y-110924200D01*
X165600000Y-105650000D02*
X164525000Y-105650000D01*
X165600000Y-116000000D02*
X164525000Y-116000000D01*
X155250000Y-116000000D02*
X156325000Y-116000000D01*
X155250000Y-105650000D02*
X156325000Y-105650000D01*
X165600000Y-105650000D02*
X165600000Y-106725000D01*
X155250000Y-105650000D02*
X155250000Y-106725000D01*
X155250000Y-116000000D02*
X155250000Y-114925000D01*
X165600000Y-116000000D02*
X165600000Y-114925000D01*
X164525000Y-105650000D02*
X164525000Y-104625000D01*
X168200000Y-99950000D02*
X162200000Y-99950000D01*
X168200000Y-102900000D02*
X168200000Y-99950000D01*
X162200000Y-102900000D02*
X168200000Y-102900000D01*
X162200000Y-99950000D02*
X162200000Y-102900000D01*
X159833334Y-98257143D02*
X159785715Y-98304762D01*
X159642858Y-98352381D01*
X159547620Y-98352381D01*
X159404762Y-98304762D01*
X159309524Y-98209524D01*
X159261905Y-98114286D01*
X159214286Y-97923810D01*
X159214286Y-97780952D01*
X159261905Y-97590476D01*
X159309524Y-97495238D01*
X159404762Y-97400000D01*
X159547620Y-97352381D01*
X159642858Y-97352381D01*
X159785715Y-97400000D01*
X159833334Y-97447619D01*
X160785715Y-98352381D02*
X160214286Y-98352381D01*
X160500000Y-98352381D02*
X160500000Y-97352381D01*
X160404762Y-97495238D01*
X160309524Y-97590476D01*
X160214286Y-97638095D01*
X170258334Y-98282143D02*
X170210715Y-98329762D01*
X170067858Y-98377381D01*
X169972620Y-98377381D01*
X169829762Y-98329762D01*
X169734524Y-98234524D01*
X169686905Y-98139286D01*
X169639286Y-97948810D01*
X169639286Y-97805952D01*
X169686905Y-97615476D01*
X169734524Y-97520238D01*
X169829762Y-97425000D01*
X169972620Y-97377381D01*
X170067858Y-97377381D01*
X170210715Y-97425000D01*
X170258334Y-97472619D01*
X170639286Y-97472619D02*
X170686905Y-97425000D01*
X170782143Y-97377381D01*
X171020239Y-97377381D01*
X171115477Y-97425000D01*
X171163096Y-97472619D01*
X171210715Y-97567857D01*
X171210715Y-97663095D01*
X171163096Y-97805952D01*
X170591667Y-98377381D01*
X171210715Y-98377381D01*
X189133334Y-115382143D02*
X189085715Y-115429762D01*
X188942858Y-115477381D01*
X188847620Y-115477381D01*
X188704762Y-115429762D01*
X188609524Y-115334524D01*
X188561905Y-115239286D01*
X188514286Y-115048810D01*
X188514286Y-114905952D01*
X188561905Y-114715476D01*
X188609524Y-114620238D01*
X188704762Y-114525000D01*
X188847620Y-114477381D01*
X188942858Y-114477381D01*
X189085715Y-114525000D01*
X189133334Y-114572619D01*
X189466667Y-114477381D02*
X190085715Y-114477381D01*
X189752381Y-114858333D01*
X189895239Y-114858333D01*
X189990477Y-114905952D01*
X190038096Y-114953571D01*
X190085715Y-115048810D01*
X190085715Y-115286905D01*
X190038096Y-115382143D01*
X189990477Y-115429762D01*
X189895239Y-115477381D01*
X189609524Y-115477381D01*
X189514286Y-115429762D01*
X189466667Y-115382143D01*
X189208334Y-113807143D02*
X189160715Y-113854762D01*
X189017858Y-113902381D01*
X188922620Y-113902381D01*
X188779762Y-113854762D01*
X188684524Y-113759524D01*
X188636905Y-113664286D01*
X188589286Y-113473810D01*
X188589286Y-113330952D01*
X188636905Y-113140476D01*
X188684524Y-113045238D01*
X188779762Y-112950000D01*
X188922620Y-112902381D01*
X189017858Y-112902381D01*
X189160715Y-112950000D01*
X189208334Y-112997619D01*
X190065477Y-113235714D02*
X190065477Y-113902381D01*
X189827381Y-112854762D02*
X189589286Y-113569048D01*
X190208334Y-113569048D01*
X189033334Y-108832143D02*
X188985715Y-108879762D01*
X188842858Y-108927381D01*
X188747620Y-108927381D01*
X188604762Y-108879762D01*
X188509524Y-108784524D01*
X188461905Y-108689286D01*
X188414286Y-108498810D01*
X188414286Y-108355952D01*
X188461905Y-108165476D01*
X188509524Y-108070238D01*
X188604762Y-107975000D01*
X188747620Y-107927381D01*
X188842858Y-107927381D01*
X188985715Y-107975000D01*
X189033334Y-108022619D01*
X189938096Y-107927381D02*
X189461905Y-107927381D01*
X189414286Y-108403571D01*
X189461905Y-108355952D01*
X189557143Y-108308333D01*
X189795239Y-108308333D01*
X189890477Y-108355952D01*
X189938096Y-108403571D01*
X189985715Y-108498810D01*
X189985715Y-108736905D01*
X189938096Y-108832143D01*
X189890477Y-108879762D01*
X189795239Y-108927381D01*
X189557143Y-108927381D01*
X189461905Y-108879762D01*
X189414286Y-108832143D01*
X189008334Y-107357143D02*
X188960715Y-107404762D01*
X188817858Y-107452381D01*
X188722620Y-107452381D01*
X188579762Y-107404762D01*
X188484524Y-107309524D01*
X188436905Y-107214286D01*
X188389286Y-107023810D01*
X188389286Y-106880952D01*
X188436905Y-106690476D01*
X188484524Y-106595238D01*
X188579762Y-106500000D01*
X188722620Y-106452381D01*
X188817858Y-106452381D01*
X188960715Y-106500000D01*
X189008334Y-106547619D01*
X189865477Y-106452381D02*
X189675000Y-106452381D01*
X189579762Y-106500000D01*
X189532143Y-106547619D01*
X189436905Y-106690476D01*
X189389286Y-106880952D01*
X189389286Y-107261905D01*
X189436905Y-107357143D01*
X189484524Y-107404762D01*
X189579762Y-107452381D01*
X189770239Y-107452381D01*
X189865477Y-107404762D01*
X189913096Y-107357143D01*
X189960715Y-107261905D01*
X189960715Y-107023810D01*
X189913096Y-106928571D01*
X189865477Y-106880952D01*
X189770239Y-106833333D01*
X189579762Y-106833333D01*
X189484524Y-106880952D01*
X189436905Y-106928571D01*
X189389286Y-107023810D01*
X170733334Y-107407143D02*
X170685715Y-107454762D01*
X170542858Y-107502381D01*
X170447620Y-107502381D01*
X170304762Y-107454762D01*
X170209524Y-107359524D01*
X170161905Y-107264286D01*
X170114286Y-107073810D01*
X170114286Y-106930952D01*
X170161905Y-106740476D01*
X170209524Y-106645238D01*
X170304762Y-106550000D01*
X170447620Y-106502381D01*
X170542858Y-106502381D01*
X170685715Y-106550000D01*
X170733334Y-106597619D01*
X171066667Y-106502381D02*
X171733334Y-106502381D01*
X171304762Y-107502381D01*
X152858334Y-103882143D02*
X152810715Y-103929762D01*
X152667858Y-103977381D01*
X152572620Y-103977381D01*
X152429762Y-103929762D01*
X152334524Y-103834524D01*
X152286905Y-103739286D01*
X152239286Y-103548810D01*
X152239286Y-103405952D01*
X152286905Y-103215476D01*
X152334524Y-103120238D01*
X152429762Y-103025000D01*
X152572620Y-102977381D01*
X152667858Y-102977381D01*
X152810715Y-103025000D01*
X152858334Y-103072619D01*
X153429762Y-103405952D02*
X153334524Y-103358333D01*
X153286905Y-103310714D01*
X153239286Y-103215476D01*
X153239286Y-103167857D01*
X153286905Y-103072619D01*
X153334524Y-103025000D01*
X153429762Y-102977381D01*
X153620239Y-102977381D01*
X153715477Y-103025000D01*
X153763096Y-103072619D01*
X153810715Y-103167857D01*
X153810715Y-103215476D01*
X153763096Y-103310714D01*
X153715477Y-103358333D01*
X153620239Y-103405952D01*
X153429762Y-103405952D01*
X153334524Y-103453571D01*
X153286905Y-103501190D01*
X153239286Y-103596429D01*
X153239286Y-103786905D01*
X153286905Y-103882143D01*
X153334524Y-103929762D01*
X153429762Y-103977381D01*
X153620239Y-103977381D01*
X153715477Y-103929762D01*
X153763096Y-103882143D01*
X153810715Y-103786905D01*
X153810715Y-103596429D01*
X153763096Y-103501190D01*
X153715477Y-103453571D01*
X153620239Y-103405952D01*
X157208334Y-102207143D02*
X157160715Y-102254762D01*
X157017858Y-102302381D01*
X156922620Y-102302381D01*
X156779762Y-102254762D01*
X156684524Y-102159524D01*
X156636905Y-102064286D01*
X156589286Y-101873810D01*
X156589286Y-101730952D01*
X156636905Y-101540476D01*
X156684524Y-101445238D01*
X156779762Y-101350000D01*
X156922620Y-101302381D01*
X157017858Y-101302381D01*
X157160715Y-101350000D01*
X157208334Y-101397619D01*
X157684524Y-102302381D02*
X157875000Y-102302381D01*
X157970239Y-102254762D01*
X158017858Y-102207143D01*
X158113096Y-102064286D01*
X158160715Y-101873810D01*
X158160715Y-101492857D01*
X158113096Y-101397619D01*
X158065477Y-101350000D01*
X157970239Y-101302381D01*
X157779762Y-101302381D01*
X157684524Y-101350000D01*
X157636905Y-101397619D01*
X157589286Y-101492857D01*
X157589286Y-101730952D01*
X157636905Y-101826190D01*
X157684524Y-101873810D01*
X157779762Y-101921429D01*
X157970239Y-101921429D01*
X158065477Y-101873810D01*
X158113096Y-101826190D01*
X158160715Y-101730952D01*
X151732143Y-109882143D02*
X151684524Y-109929762D01*
X151541667Y-109977381D01*
X151446429Y-109977381D01*
X151303571Y-109929762D01*
X151208333Y-109834524D01*
X151160714Y-109739286D01*
X151113095Y-109548810D01*
X151113095Y-109405952D01*
X151160714Y-109215476D01*
X151208333Y-109120238D01*
X151303571Y-109025000D01*
X151446429Y-108977381D01*
X151541667Y-108977381D01*
X151684524Y-109025000D01*
X151732143Y-109072619D01*
X152684524Y-109977381D02*
X152113095Y-109977381D01*
X152398809Y-109977381D02*
X152398809Y-108977381D01*
X152303571Y-109120238D01*
X152208333Y-109215476D01*
X152113095Y-109263095D01*
X153303571Y-108977381D02*
X153398810Y-108977381D01*
X153494048Y-109025000D01*
X153541667Y-109072619D01*
X153589286Y-109167857D01*
X153636905Y-109358333D01*
X153636905Y-109596429D01*
X153589286Y-109786905D01*
X153541667Y-109882143D01*
X153494048Y-109929762D01*
X153398810Y-109977381D01*
X153303571Y-109977381D01*
X153208333Y-109929762D01*
X153160714Y-109882143D01*
X153113095Y-109786905D01*
X153065476Y-109596429D01*
X153065476Y-109358333D01*
X153113095Y-109167857D01*
X153160714Y-109072619D01*
X153208333Y-109025000D01*
X153303571Y-108977381D01*
X160032143Y-118507143D02*
X159984524Y-118554762D01*
X159841667Y-118602381D01*
X159746429Y-118602381D01*
X159603571Y-118554762D01*
X159508333Y-118459524D01*
X159460714Y-118364286D01*
X159413095Y-118173810D01*
X159413095Y-118030952D01*
X159460714Y-117840476D01*
X159508333Y-117745238D01*
X159603571Y-117650000D01*
X159746429Y-117602381D01*
X159841667Y-117602381D01*
X159984524Y-117650000D01*
X160032143Y-117697619D01*
X160984524Y-118602381D02*
X160413095Y-118602381D01*
X160698809Y-118602381D02*
X160698809Y-117602381D01*
X160603571Y-117745238D01*
X160508333Y-117840476D01*
X160413095Y-117888095D01*
X161936905Y-118602381D02*
X161365476Y-118602381D01*
X161651190Y-118602381D02*
X161651190Y-117602381D01*
X161555952Y-117745238D01*
X161460714Y-117840476D01*
X161365476Y-117888095D01*
X128503443Y-90057243D02*
X128455824Y-90104862D01*
X128312967Y-90152481D01*
X128217729Y-90152481D01*
X128074871Y-90104862D01*
X127979633Y-90009624D01*
X127932014Y-89914386D01*
X127884395Y-89723910D01*
X127884395Y-89581052D01*
X127932014Y-89390576D01*
X127979633Y-89295338D01*
X128074871Y-89200100D01*
X128217729Y-89152481D01*
X128312967Y-89152481D01*
X128455824Y-89200100D01*
X128503443Y-89247719D01*
X129455824Y-90152481D02*
X128884395Y-90152481D01*
X129170109Y-90152481D02*
X129170109Y-89152481D01*
X129074871Y-89295338D01*
X128979633Y-89390576D01*
X128884395Y-89438195D01*
X129836776Y-89247719D02*
X129884395Y-89200100D01*
X129979633Y-89152481D01*
X130217729Y-89152481D01*
X130312967Y-89200100D01*
X130360586Y-89247719D01*
X130408205Y-89342957D01*
X130408205Y-89438195D01*
X130360586Y-89581052D01*
X129789157Y-90152481D01*
X130408205Y-90152481D01*
X146258743Y-89981043D02*
X146211124Y-90028662D01*
X146068267Y-90076281D01*
X145973029Y-90076281D01*
X145830171Y-90028662D01*
X145734933Y-89933424D01*
X145687314Y-89838186D01*
X145639695Y-89647710D01*
X145639695Y-89504852D01*
X145687314Y-89314376D01*
X145734933Y-89219138D01*
X145830171Y-89123900D01*
X145973029Y-89076281D01*
X146068267Y-89076281D01*
X146211124Y-89123900D01*
X146258743Y-89171519D01*
X147211124Y-90076281D02*
X146639695Y-90076281D01*
X146925409Y-90076281D02*
X146925409Y-89076281D01*
X146830171Y-89219138D01*
X146734933Y-89314376D01*
X146639695Y-89361995D01*
X147544457Y-89076281D02*
X148163505Y-89076281D01*
X147830171Y-89457233D01*
X147973029Y-89457233D01*
X148068267Y-89504852D01*
X148115886Y-89552471D01*
X148163505Y-89647710D01*
X148163505Y-89885805D01*
X148115886Y-89981043D01*
X148068267Y-90028662D01*
X147973029Y-90076281D01*
X147687314Y-90076281D01*
X147592076Y-90028662D01*
X147544457Y-89981043D01*
X163932143Y-89982143D02*
X163884524Y-90029762D01*
X163741667Y-90077381D01*
X163646429Y-90077381D01*
X163503571Y-90029762D01*
X163408333Y-89934524D01*
X163360714Y-89839286D01*
X163313095Y-89648810D01*
X163313095Y-89505952D01*
X163360714Y-89315476D01*
X163408333Y-89220238D01*
X163503571Y-89125000D01*
X163646429Y-89077381D01*
X163741667Y-89077381D01*
X163884524Y-89125000D01*
X163932143Y-89172619D01*
X164884524Y-90077381D02*
X164313095Y-90077381D01*
X164598809Y-90077381D02*
X164598809Y-89077381D01*
X164503571Y-89220238D01*
X164408333Y-89315476D01*
X164313095Y-89363095D01*
X165741667Y-89410714D02*
X165741667Y-90077381D01*
X165503571Y-89029762D02*
X165265476Y-89744048D01*
X165884524Y-89744048D01*
X181657143Y-89907143D02*
X181609524Y-89954762D01*
X181466667Y-90002381D01*
X181371429Y-90002381D01*
X181228571Y-89954762D01*
X181133333Y-89859524D01*
X181085714Y-89764286D01*
X181038095Y-89573810D01*
X181038095Y-89430952D01*
X181085714Y-89240476D01*
X181133333Y-89145238D01*
X181228571Y-89050000D01*
X181371429Y-89002381D01*
X181466667Y-89002381D01*
X181609524Y-89050000D01*
X181657143Y-89097619D01*
X182609524Y-90002381D02*
X182038095Y-90002381D01*
X182323809Y-90002381D02*
X182323809Y-89002381D01*
X182228571Y-89145238D01*
X182133333Y-89240476D01*
X182038095Y-89288095D01*
X183514286Y-89002381D02*
X183038095Y-89002381D01*
X182990476Y-89478571D01*
X183038095Y-89430952D01*
X183133333Y-89383333D01*
X183371429Y-89383333D01*
X183466667Y-89430952D01*
X183514286Y-89478571D01*
X183561905Y-89573810D01*
X183561905Y-89811905D01*
X183514286Y-89907143D01*
X183466667Y-89954762D01*
X183371429Y-90002381D01*
X183133333Y-90002381D01*
X183038095Y-89954762D01*
X182990476Y-89907143D01*
X151357143Y-117407143D02*
X151309524Y-117454762D01*
X151166667Y-117502381D01*
X151071429Y-117502381D01*
X150928571Y-117454762D01*
X150833333Y-117359524D01*
X150785714Y-117264286D01*
X150738095Y-117073810D01*
X150738095Y-116930952D01*
X150785714Y-116740476D01*
X150833333Y-116645238D01*
X150928571Y-116550000D01*
X151071429Y-116502381D01*
X151166667Y-116502381D01*
X151309524Y-116550000D01*
X151357143Y-116597619D01*
X152309524Y-117502381D02*
X151738095Y-117502381D01*
X152023809Y-117502381D02*
X152023809Y-116502381D01*
X151928571Y-116645238D01*
X151833333Y-116740476D01*
X151738095Y-116788095D01*
X153166667Y-116502381D02*
X152976190Y-116502381D01*
X152880952Y-116550000D01*
X152833333Y-116597619D01*
X152738095Y-116740476D01*
X152690476Y-116930952D01*
X152690476Y-117311905D01*
X152738095Y-117407143D01*
X152785714Y-117454762D01*
X152880952Y-117502381D01*
X153071429Y-117502381D01*
X153166667Y-117454762D01*
X153214286Y-117407143D01*
X153261905Y-117311905D01*
X153261905Y-117073810D01*
X153214286Y-116978571D01*
X153166667Y-116930952D01*
X153071429Y-116883333D01*
X152880952Y-116883333D01*
X152785714Y-116930952D01*
X152738095Y-116978571D01*
X152690476Y-117073810D01*
X128507143Y-132132143D02*
X128459524Y-132179762D01*
X128316667Y-132227381D01*
X128221429Y-132227381D01*
X128078571Y-132179762D01*
X127983333Y-132084524D01*
X127935714Y-131989286D01*
X127888095Y-131798810D01*
X127888095Y-131655952D01*
X127935714Y-131465476D01*
X127983333Y-131370238D01*
X128078571Y-131275000D01*
X128221429Y-131227381D01*
X128316667Y-131227381D01*
X128459524Y-131275000D01*
X128507143Y-131322619D01*
X129459524Y-132227381D02*
X128888095Y-132227381D01*
X129173809Y-132227381D02*
X129173809Y-131227381D01*
X129078571Y-131370238D01*
X128983333Y-131465476D01*
X128888095Y-131513095D01*
X129792857Y-131227381D02*
X130459524Y-131227381D01*
X130030952Y-132227381D01*
X146182143Y-132132143D02*
X146134524Y-132179762D01*
X145991667Y-132227381D01*
X145896429Y-132227381D01*
X145753571Y-132179762D01*
X145658333Y-132084524D01*
X145610714Y-131989286D01*
X145563095Y-131798810D01*
X145563095Y-131655952D01*
X145610714Y-131465476D01*
X145658333Y-131370238D01*
X145753571Y-131275000D01*
X145896429Y-131227381D01*
X145991667Y-131227381D01*
X146134524Y-131275000D01*
X146182143Y-131322619D01*
X147134524Y-132227381D02*
X146563095Y-132227381D01*
X146848809Y-132227381D02*
X146848809Y-131227381D01*
X146753571Y-131370238D01*
X146658333Y-131465476D01*
X146563095Y-131513095D01*
X147705952Y-131655952D02*
X147610714Y-131608333D01*
X147563095Y-131560714D01*
X147515476Y-131465476D01*
X147515476Y-131417857D01*
X147563095Y-131322619D01*
X147610714Y-131275000D01*
X147705952Y-131227381D01*
X147896429Y-131227381D01*
X147991667Y-131275000D01*
X148039286Y-131322619D01*
X148086905Y-131417857D01*
X148086905Y-131465476D01*
X148039286Y-131560714D01*
X147991667Y-131608333D01*
X147896429Y-131655952D01*
X147705952Y-131655952D01*
X147610714Y-131703571D01*
X147563095Y-131751190D01*
X147515476Y-131846429D01*
X147515476Y-132036905D01*
X147563095Y-132132143D01*
X147610714Y-132179762D01*
X147705952Y-132227381D01*
X147896429Y-132227381D01*
X147991667Y-132179762D01*
X148039286Y-132132143D01*
X148086905Y-132036905D01*
X148086905Y-131846429D01*
X148039286Y-131751190D01*
X147991667Y-131703571D01*
X147896429Y-131655952D01*
X163832143Y-132107143D02*
X163784524Y-132154762D01*
X163641667Y-132202381D01*
X163546429Y-132202381D01*
X163403571Y-132154762D01*
X163308333Y-132059524D01*
X163260714Y-131964286D01*
X163213095Y-131773810D01*
X163213095Y-131630952D01*
X163260714Y-131440476D01*
X163308333Y-131345238D01*
X163403571Y-131250000D01*
X163546429Y-131202381D01*
X163641667Y-131202381D01*
X163784524Y-131250000D01*
X163832143Y-131297619D01*
X164784524Y-132202381D02*
X164213095Y-132202381D01*
X164498809Y-132202381D02*
X164498809Y-131202381D01*
X164403571Y-131345238D01*
X164308333Y-131440476D01*
X164213095Y-131488095D01*
X165260714Y-132202381D02*
X165451190Y-132202381D01*
X165546429Y-132154762D01*
X165594048Y-132107143D01*
X165689286Y-131964286D01*
X165736905Y-131773810D01*
X165736905Y-131392857D01*
X165689286Y-131297619D01*
X165641667Y-131250000D01*
X165546429Y-131202381D01*
X165355952Y-131202381D01*
X165260714Y-131250000D01*
X165213095Y-131297619D01*
X165165476Y-131392857D01*
X165165476Y-131630952D01*
X165213095Y-131726190D01*
X165260714Y-131773810D01*
X165355952Y-131821429D01*
X165546429Y-131821429D01*
X165641667Y-131773810D01*
X165689286Y-131726190D01*
X165736905Y-131630952D01*
X181457143Y-132132143D02*
X181409524Y-132179762D01*
X181266667Y-132227381D01*
X181171429Y-132227381D01*
X181028571Y-132179762D01*
X180933333Y-132084524D01*
X180885714Y-131989286D01*
X180838095Y-131798810D01*
X180838095Y-131655952D01*
X180885714Y-131465476D01*
X180933333Y-131370238D01*
X181028571Y-131275000D01*
X181171429Y-131227381D01*
X181266667Y-131227381D01*
X181409524Y-131275000D01*
X181457143Y-131322619D01*
X181838095Y-131322619D02*
X181885714Y-131275000D01*
X181980952Y-131227381D01*
X182219048Y-131227381D01*
X182314286Y-131275000D01*
X182361905Y-131322619D01*
X182409524Y-131417857D01*
X182409524Y-131513095D01*
X182361905Y-131655952D01*
X181790476Y-132227381D01*
X182409524Y-132227381D01*
X183028571Y-131227381D02*
X183123810Y-131227381D01*
X183219048Y-131275000D01*
X183266667Y-131322619D01*
X183314286Y-131417857D01*
X183361905Y-131608333D01*
X183361905Y-131846429D01*
X183314286Y-132036905D01*
X183266667Y-132132143D01*
X183219048Y-132179762D01*
X183123810Y-132227381D01*
X183028571Y-132227381D01*
X182933333Y-132179762D01*
X182885714Y-132132143D01*
X182838095Y-132036905D01*
X182790476Y-131846429D01*
X182790476Y-131608333D01*
X182838095Y-131417857D01*
X182885714Y-131322619D01*
X182933333Y-131275000D01*
X183028571Y-131227381D01*
X127796905Y-88002381D02*
X127796905Y-87002381D01*
X128035000Y-87002381D01*
X128177858Y-87050000D01*
X128273096Y-87145238D01*
X128320715Y-87240476D01*
X128368334Y-87430952D01*
X128368334Y-87573810D01*
X128320715Y-87764286D01*
X128273096Y-87859524D01*
X128177858Y-87954762D01*
X128035000Y-88002381D01*
X127796905Y-88002381D01*
X129320715Y-88002381D02*
X128749286Y-88002381D01*
X129035000Y-88002381D02*
X129035000Y-87002381D01*
X128939762Y-87145238D01*
X128844524Y-87240476D01*
X128749286Y-87288095D01*
X145620805Y-88014981D02*
X145620805Y-87014981D01*
X145858900Y-87014981D01*
X146001758Y-87062600D01*
X146096996Y-87157838D01*
X146144615Y-87253076D01*
X146192234Y-87443552D01*
X146192234Y-87586410D01*
X146144615Y-87776886D01*
X146096996Y-87872124D01*
X146001758Y-87967362D01*
X145858900Y-88014981D01*
X145620805Y-88014981D01*
X146573186Y-87110219D02*
X146620805Y-87062600D01*
X146716043Y-87014981D01*
X146954139Y-87014981D01*
X147049377Y-87062600D01*
X147096996Y-87110219D01*
X147144615Y-87205457D01*
X147144615Y-87300695D01*
X147096996Y-87443552D01*
X146525567Y-88014981D01*
X147144615Y-88014981D01*
X163436905Y-87802381D02*
X163436905Y-86802381D01*
X163675000Y-86802381D01*
X163817858Y-86850000D01*
X163913096Y-86945238D01*
X163960715Y-87040476D01*
X164008334Y-87230952D01*
X164008334Y-87373810D01*
X163960715Y-87564286D01*
X163913096Y-87659524D01*
X163817858Y-87754762D01*
X163675000Y-87802381D01*
X163436905Y-87802381D01*
X164341667Y-86802381D02*
X164960715Y-86802381D01*
X164627381Y-87183333D01*
X164770239Y-87183333D01*
X164865477Y-87230952D01*
X164913096Y-87278571D01*
X164960715Y-87373810D01*
X164960715Y-87611905D01*
X164913096Y-87707143D01*
X164865477Y-87754762D01*
X164770239Y-87802381D01*
X164484524Y-87802381D01*
X164389286Y-87754762D01*
X164341667Y-87707143D01*
X181011905Y-87502381D02*
X181011905Y-86502381D01*
X181250000Y-86502381D01*
X181392858Y-86550000D01*
X181488096Y-86645238D01*
X181535715Y-86740476D01*
X181583334Y-86930952D01*
X181583334Y-87073810D01*
X181535715Y-87264286D01*
X181488096Y-87359524D01*
X181392858Y-87454762D01*
X181250000Y-87502381D01*
X181011905Y-87502381D01*
X182440477Y-86835714D02*
X182440477Y-87502381D01*
X182202381Y-86454762D02*
X181964286Y-87169048D01*
X182583334Y-87169048D01*
X127836905Y-133677381D02*
X127836905Y-132677381D01*
X128075000Y-132677381D01*
X128217858Y-132725000D01*
X128313096Y-132820238D01*
X128360715Y-132915476D01*
X128408334Y-133105952D01*
X128408334Y-133248810D01*
X128360715Y-133439286D01*
X128313096Y-133534524D01*
X128217858Y-133629762D01*
X128075000Y-133677381D01*
X127836905Y-133677381D01*
X129313096Y-132677381D02*
X128836905Y-132677381D01*
X128789286Y-133153571D01*
X128836905Y-133105952D01*
X128932143Y-133058333D01*
X129170239Y-133058333D01*
X129265477Y-133105952D01*
X129313096Y-133153571D01*
X129360715Y-133248810D01*
X129360715Y-133486905D01*
X129313096Y-133582143D01*
X129265477Y-133629762D01*
X129170239Y-133677381D01*
X128932143Y-133677381D01*
X128836905Y-133629762D01*
X128789286Y-133582143D01*
X145461905Y-133702381D02*
X145461905Y-132702381D01*
X145700000Y-132702381D01*
X145842858Y-132750000D01*
X145938096Y-132845238D01*
X145985715Y-132940476D01*
X146033334Y-133130952D01*
X146033334Y-133273810D01*
X145985715Y-133464286D01*
X145938096Y-133559524D01*
X145842858Y-133654762D01*
X145700000Y-133702381D01*
X145461905Y-133702381D01*
X146890477Y-132702381D02*
X146700000Y-132702381D01*
X146604762Y-132750000D01*
X146557143Y-132797619D01*
X146461905Y-132940476D01*
X146414286Y-133130952D01*
X146414286Y-133511905D01*
X146461905Y-133607143D01*
X146509524Y-133654762D01*
X146604762Y-133702381D01*
X146795239Y-133702381D01*
X146890477Y-133654762D01*
X146938096Y-133607143D01*
X146985715Y-133511905D01*
X146985715Y-133273810D01*
X146938096Y-133178571D01*
X146890477Y-133130952D01*
X146795239Y-133083333D01*
X146604762Y-133083333D01*
X146509524Y-133130952D01*
X146461905Y-133178571D01*
X146414286Y-133273810D01*
X163121905Y-133677381D02*
X163121905Y-132677381D01*
X163360000Y-132677381D01*
X163502858Y-132725000D01*
X163598096Y-132820238D01*
X163645715Y-132915476D01*
X163693334Y-133105952D01*
X163693334Y-133248810D01*
X163645715Y-133439286D01*
X163598096Y-133534524D01*
X163502858Y-133629762D01*
X163360000Y-133677381D01*
X163121905Y-133677381D01*
X164026667Y-132677381D02*
X164693334Y-132677381D01*
X164264762Y-133677381D01*
X180696905Y-133702381D02*
X180696905Y-132702381D01*
X180935000Y-132702381D01*
X181077858Y-132750000D01*
X181173096Y-132845238D01*
X181220715Y-132940476D01*
X181268334Y-133130952D01*
X181268334Y-133273810D01*
X181220715Y-133464286D01*
X181173096Y-133559524D01*
X181077858Y-133654762D01*
X180935000Y-133702381D01*
X180696905Y-133702381D01*
X181839762Y-133130952D02*
X181744524Y-133083333D01*
X181696905Y-133035714D01*
X181649286Y-132940476D01*
X181649286Y-132892857D01*
X181696905Y-132797619D01*
X181744524Y-132750000D01*
X181839762Y-132702381D01*
X182030239Y-132702381D01*
X182125477Y-132750000D01*
X182173096Y-132797619D01*
X182220715Y-132892857D01*
X182220715Y-132940476D01*
X182173096Y-133035714D01*
X182125477Y-133083333D01*
X182030239Y-133130952D01*
X181839762Y-133130952D01*
X181744524Y-133178571D01*
X181696905Y-133226190D01*
X181649286Y-133321429D01*
X181649286Y-133511905D01*
X181696905Y-133607143D01*
X181744524Y-133654762D01*
X181839762Y-133702381D01*
X182030239Y-133702381D01*
X182125477Y-133654762D01*
X182173096Y-133607143D01*
X182220715Y-133511905D01*
X182220715Y-133321429D01*
X182173096Y-133226190D01*
X182125477Y-133178571D01*
X182030239Y-133130952D01*
X187727381Y-115503095D02*
X186727381Y-115503095D01*
X186727381Y-115122142D01*
X186775000Y-115026904D01*
X186822619Y-114979285D01*
X186917857Y-114931666D01*
X187060714Y-114931666D01*
X187155952Y-114979285D01*
X187203571Y-115026904D01*
X187251190Y-115122142D01*
X187251190Y-115503095D01*
X187727381Y-113979285D02*
X187727381Y-114550714D01*
X187727381Y-114265000D02*
X186727381Y-114265000D01*
X186870238Y-114360238D01*
X186965476Y-114455476D01*
X187013095Y-114550714D01*
X122395905Y-94366381D02*
X122395905Y-93366381D01*
X122776858Y-93366381D01*
X122872096Y-93414000D01*
X122919715Y-93461619D01*
X122967334Y-93556857D01*
X122967334Y-93699714D01*
X122919715Y-93794952D01*
X122872096Y-93842571D01*
X122776858Y-93890190D01*
X122395905Y-93890190D01*
X123348286Y-93461619D02*
X123395905Y-93414000D01*
X123491143Y-93366381D01*
X123729239Y-93366381D01*
X123824477Y-93414000D01*
X123872096Y-93461619D01*
X123919715Y-93556857D01*
X123919715Y-93652095D01*
X123872096Y-93794952D01*
X123300667Y-94366381D01*
X123919715Y-94366381D01*
X140268105Y-94771381D02*
X140268105Y-93771381D01*
X140649058Y-93771381D01*
X140744296Y-93819000D01*
X140791915Y-93866619D01*
X140839534Y-93961857D01*
X140839534Y-94104714D01*
X140791915Y-94199952D01*
X140744296Y-94247571D01*
X140649058Y-94295190D01*
X140268105Y-94295190D01*
X141172867Y-93771381D02*
X141791915Y-93771381D01*
X141458581Y-94152333D01*
X141601439Y-94152333D01*
X141696677Y-94199952D01*
X141744296Y-94247571D01*
X141791915Y-94342810D01*
X141791915Y-94580905D01*
X141744296Y-94676143D01*
X141696677Y-94723762D01*
X141601439Y-94771381D01*
X141315724Y-94771381D01*
X141220486Y-94723762D01*
X141172867Y-94676143D01*
X158076905Y-94577381D02*
X158076905Y-93577381D01*
X158457858Y-93577381D01*
X158553096Y-93625000D01*
X158600715Y-93672619D01*
X158648334Y-93767857D01*
X158648334Y-93910714D01*
X158600715Y-94005952D01*
X158553096Y-94053571D01*
X158457858Y-94101190D01*
X158076905Y-94101190D01*
X159505477Y-93910714D02*
X159505477Y-94577381D01*
X159267381Y-93529762D02*
X159029286Y-94244048D01*
X159648334Y-94244048D01*
X175761905Y-94577381D02*
X175761905Y-93577381D01*
X176142858Y-93577381D01*
X176238096Y-93625000D01*
X176285715Y-93672619D01*
X176333334Y-93767857D01*
X176333334Y-93910714D01*
X176285715Y-94005952D01*
X176238096Y-94053571D01*
X176142858Y-94101190D01*
X175761905Y-94101190D01*
X177238096Y-93577381D02*
X176761905Y-93577381D01*
X176714286Y-94053571D01*
X176761905Y-94005952D01*
X176857143Y-93958333D01*
X177095239Y-93958333D01*
X177190477Y-94005952D01*
X177238096Y-94053571D01*
X177285715Y-94148810D01*
X177285715Y-94386905D01*
X177238096Y-94482143D01*
X177190477Y-94529762D01*
X177095239Y-94577381D01*
X176857143Y-94577381D01*
X176761905Y-94529762D01*
X176714286Y-94482143D01*
X122561905Y-127452381D02*
X122561905Y-126452381D01*
X122942858Y-126452381D01*
X123038096Y-126500000D01*
X123085715Y-126547619D01*
X123133334Y-126642857D01*
X123133334Y-126785714D01*
X123085715Y-126880952D01*
X123038096Y-126928571D01*
X122942858Y-126976190D01*
X122561905Y-126976190D01*
X123990477Y-126452381D02*
X123800000Y-126452381D01*
X123704762Y-126500000D01*
X123657143Y-126547619D01*
X123561905Y-126690476D01*
X123514286Y-126880952D01*
X123514286Y-127261905D01*
X123561905Y-127357143D01*
X123609524Y-127404762D01*
X123704762Y-127452381D01*
X123895239Y-127452381D01*
X123990477Y-127404762D01*
X124038096Y-127357143D01*
X124085715Y-127261905D01*
X124085715Y-127023810D01*
X124038096Y-126928571D01*
X123990477Y-126880952D01*
X123895239Y-126833333D01*
X123704762Y-126833333D01*
X123609524Y-126880952D01*
X123561905Y-126928571D01*
X123514286Y-127023810D01*
X140201905Y-127602381D02*
X140201905Y-126602381D01*
X140582858Y-126602381D01*
X140678096Y-126650000D01*
X140725715Y-126697619D01*
X140773334Y-126792857D01*
X140773334Y-126935714D01*
X140725715Y-127030952D01*
X140678096Y-127078571D01*
X140582858Y-127126190D01*
X140201905Y-127126190D01*
X141106667Y-126602381D02*
X141773334Y-126602381D01*
X141344762Y-127602381D01*
X157886905Y-127702381D02*
X157886905Y-126702381D01*
X158267858Y-126702381D01*
X158363096Y-126750000D01*
X158410715Y-126797619D01*
X158458334Y-126892857D01*
X158458334Y-127035714D01*
X158410715Y-127130952D01*
X158363096Y-127178571D01*
X158267858Y-127226190D01*
X157886905Y-127226190D01*
X159029762Y-127130952D02*
X158934524Y-127083333D01*
X158886905Y-127035714D01*
X158839286Y-126940476D01*
X158839286Y-126892857D01*
X158886905Y-126797619D01*
X158934524Y-126750000D01*
X159029762Y-126702381D01*
X159220239Y-126702381D01*
X159315477Y-126750000D01*
X159363096Y-126797619D01*
X159410715Y-126892857D01*
X159410715Y-126940476D01*
X159363096Y-127035714D01*
X159315477Y-127083333D01*
X159220239Y-127130952D01*
X159029762Y-127130952D01*
X158934524Y-127178571D01*
X158886905Y-127226190D01*
X158839286Y-127321429D01*
X158839286Y-127511905D01*
X158886905Y-127607143D01*
X158934524Y-127654762D01*
X159029762Y-127702381D01*
X159220239Y-127702381D01*
X159315477Y-127654762D01*
X159363096Y-127607143D01*
X159410715Y-127511905D01*
X159410715Y-127321429D01*
X159363096Y-127226190D01*
X159315477Y-127178571D01*
X159220239Y-127130952D01*
X175536905Y-127752381D02*
X175536905Y-126752381D01*
X175917858Y-126752381D01*
X176013096Y-126800000D01*
X176060715Y-126847619D01*
X176108334Y-126942857D01*
X176108334Y-127085714D01*
X176060715Y-127180952D01*
X176013096Y-127228571D01*
X175917858Y-127276190D01*
X175536905Y-127276190D01*
X176584524Y-127752381D02*
X176775000Y-127752381D01*
X176870239Y-127704762D01*
X176917858Y-127657143D01*
X177013096Y-127514286D01*
X177060715Y-127323810D01*
X177060715Y-126942857D01*
X177013096Y-126847619D01*
X176965477Y-126800000D01*
X176870239Y-126752381D01*
X176679762Y-126752381D01*
X176584524Y-126800000D01*
X176536905Y-126847619D01*
X176489286Y-126942857D01*
X176489286Y-127180952D01*
X176536905Y-127276190D01*
X176584524Y-127323810D01*
X176679762Y-127371429D01*
X176870239Y-127371429D01*
X176965477Y-127323810D01*
X177013096Y-127276190D01*
X177060715Y-127180952D01*
X115553619Y-92795238D02*
X115506000Y-92890476D01*
X115410762Y-92985714D01*
X115267905Y-93128571D01*
X115220286Y-93223810D01*
X115220286Y-93319048D01*
X115458381Y-93271429D02*
X115410762Y-93366667D01*
X115315524Y-93461905D01*
X115125048Y-93509524D01*
X114791714Y-93509524D01*
X114601238Y-93461905D01*
X114506000Y-93366667D01*
X114458381Y-93271429D01*
X114458381Y-93080952D01*
X114506000Y-92985714D01*
X114601238Y-92890476D01*
X114791714Y-92842857D01*
X115125048Y-92842857D01*
X115315524Y-92890476D01*
X115410762Y-92985714D01*
X115458381Y-93080952D01*
X115458381Y-93271429D01*
X115458381Y-91890476D02*
X115458381Y-92461905D01*
X115458381Y-92176191D02*
X114458381Y-92176191D01*
X114601238Y-92271429D01*
X114696476Y-92366667D01*
X114744095Y-92461905D01*
X133372619Y-92695238D02*
X133325000Y-92790476D01*
X133229762Y-92885714D01*
X133086905Y-93028571D01*
X133039286Y-93123810D01*
X133039286Y-93219048D01*
X133277381Y-93171429D02*
X133229762Y-93266667D01*
X133134524Y-93361905D01*
X132944048Y-93409524D01*
X132610714Y-93409524D01*
X132420238Y-93361905D01*
X132325000Y-93266667D01*
X132277381Y-93171429D01*
X132277381Y-92980952D01*
X132325000Y-92885714D01*
X132420238Y-92790476D01*
X132610714Y-92742857D01*
X132944048Y-92742857D01*
X133134524Y-92790476D01*
X133229762Y-92885714D01*
X133277381Y-92980952D01*
X133277381Y-93171429D01*
X132372619Y-92361905D02*
X132325000Y-92314286D01*
X132277381Y-92219048D01*
X132277381Y-91980952D01*
X132325000Y-91885714D01*
X132372619Y-91838095D01*
X132467857Y-91790476D01*
X132563095Y-91790476D01*
X132705952Y-91838095D01*
X133277381Y-92409524D01*
X133277381Y-91790476D01*
X151047619Y-92570238D02*
X151000000Y-92665476D01*
X150904762Y-92760714D01*
X150761905Y-92903571D01*
X150714286Y-92998810D01*
X150714286Y-93094048D01*
X150952381Y-93046429D02*
X150904762Y-93141667D01*
X150809524Y-93236905D01*
X150619048Y-93284524D01*
X150285714Y-93284524D01*
X150095238Y-93236905D01*
X150000000Y-93141667D01*
X149952381Y-93046429D01*
X149952381Y-92855952D01*
X150000000Y-92760714D01*
X150095238Y-92665476D01*
X150285714Y-92617857D01*
X150619048Y-92617857D01*
X150809524Y-92665476D01*
X150904762Y-92760714D01*
X150952381Y-92855952D01*
X150952381Y-93046429D01*
X149952381Y-92284524D02*
X149952381Y-91665476D01*
X150333333Y-91998810D01*
X150333333Y-91855952D01*
X150380952Y-91760714D01*
X150428571Y-91713095D01*
X150523810Y-91665476D01*
X150761905Y-91665476D01*
X150857143Y-91713095D01*
X150904762Y-91760714D01*
X150952381Y-91855952D01*
X150952381Y-92141667D01*
X150904762Y-92236905D01*
X150857143Y-92284524D01*
X168772619Y-92495238D02*
X168725000Y-92590476D01*
X168629762Y-92685714D01*
X168486905Y-92828571D01*
X168439286Y-92923810D01*
X168439286Y-93019048D01*
X168677381Y-92971429D02*
X168629762Y-93066667D01*
X168534524Y-93161905D01*
X168344048Y-93209524D01*
X168010714Y-93209524D01*
X167820238Y-93161905D01*
X167725000Y-93066667D01*
X167677381Y-92971429D01*
X167677381Y-92780952D01*
X167725000Y-92685714D01*
X167820238Y-92590476D01*
X168010714Y-92542857D01*
X168344048Y-92542857D01*
X168534524Y-92590476D01*
X168629762Y-92685714D01*
X168677381Y-92780952D01*
X168677381Y-92971429D01*
X168010714Y-91685714D02*
X168677381Y-91685714D01*
X167629762Y-91923810D02*
X168344048Y-92161905D01*
X168344048Y-91542857D01*
X115572619Y-128995238D02*
X115525000Y-129090476D01*
X115429762Y-129185714D01*
X115286905Y-129328571D01*
X115239286Y-129423810D01*
X115239286Y-129519048D01*
X115477381Y-129471429D02*
X115429762Y-129566667D01*
X115334524Y-129661905D01*
X115144048Y-129709524D01*
X114810714Y-129709524D01*
X114620238Y-129661905D01*
X114525000Y-129566667D01*
X114477381Y-129471429D01*
X114477381Y-129280952D01*
X114525000Y-129185714D01*
X114620238Y-129090476D01*
X114810714Y-129042857D01*
X115144048Y-129042857D01*
X115334524Y-129090476D01*
X115429762Y-129185714D01*
X115477381Y-129280952D01*
X115477381Y-129471429D01*
X114477381Y-128138095D02*
X114477381Y-128614286D01*
X114953571Y-128661905D01*
X114905952Y-128614286D01*
X114858333Y-128519048D01*
X114858333Y-128280952D01*
X114905952Y-128185714D01*
X114953571Y-128138095D01*
X115048810Y-128090476D01*
X115286905Y-128090476D01*
X115382143Y-128138095D01*
X115429762Y-128185714D01*
X115477381Y-128280952D01*
X115477381Y-128519048D01*
X115429762Y-128614286D01*
X115382143Y-128661905D01*
X133297619Y-128995238D02*
X133250000Y-129090476D01*
X133154762Y-129185714D01*
X133011905Y-129328571D01*
X132964286Y-129423810D01*
X132964286Y-129519048D01*
X133202381Y-129471429D02*
X133154762Y-129566667D01*
X133059524Y-129661905D01*
X132869048Y-129709524D01*
X132535714Y-129709524D01*
X132345238Y-129661905D01*
X132250000Y-129566667D01*
X132202381Y-129471429D01*
X132202381Y-129280952D01*
X132250000Y-129185714D01*
X132345238Y-129090476D01*
X132535714Y-129042857D01*
X132869048Y-129042857D01*
X133059524Y-129090476D01*
X133154762Y-129185714D01*
X133202381Y-129280952D01*
X133202381Y-129471429D01*
X132202381Y-128185714D02*
X132202381Y-128376191D01*
X132250000Y-128471429D01*
X132297619Y-128519048D01*
X132440476Y-128614286D01*
X132630952Y-128661905D01*
X133011905Y-128661905D01*
X133107143Y-128614286D01*
X133154762Y-128566667D01*
X133202381Y-128471429D01*
X133202381Y-128280952D01*
X133154762Y-128185714D01*
X133107143Y-128138095D01*
X133011905Y-128090476D01*
X132773810Y-128090476D01*
X132678571Y-128138095D01*
X132630952Y-128185714D01*
X132583333Y-128280952D01*
X132583333Y-128471429D01*
X132630952Y-128566667D01*
X132678571Y-128614286D01*
X132773810Y-128661905D01*
X150922619Y-128870238D02*
X150875000Y-128965476D01*
X150779762Y-129060714D01*
X150636905Y-129203571D01*
X150589286Y-129298810D01*
X150589286Y-129394048D01*
X150827381Y-129346429D02*
X150779762Y-129441667D01*
X150684524Y-129536905D01*
X150494048Y-129584524D01*
X150160714Y-129584524D01*
X149970238Y-129536905D01*
X149875000Y-129441667D01*
X149827381Y-129346429D01*
X149827381Y-129155952D01*
X149875000Y-129060714D01*
X149970238Y-128965476D01*
X150160714Y-128917857D01*
X150494048Y-128917857D01*
X150684524Y-128965476D01*
X150779762Y-129060714D01*
X150827381Y-129155952D01*
X150827381Y-129346429D01*
X149827381Y-128584524D02*
X149827381Y-127917857D01*
X150827381Y-128346429D01*
X168597619Y-128845238D02*
X168550000Y-128940476D01*
X168454762Y-129035714D01*
X168311905Y-129178571D01*
X168264286Y-129273810D01*
X168264286Y-129369048D01*
X168502381Y-129321429D02*
X168454762Y-129416667D01*
X168359524Y-129511905D01*
X168169048Y-129559524D01*
X167835714Y-129559524D01*
X167645238Y-129511905D01*
X167550000Y-129416667D01*
X167502381Y-129321429D01*
X167502381Y-129130952D01*
X167550000Y-129035714D01*
X167645238Y-128940476D01*
X167835714Y-128892857D01*
X168169048Y-128892857D01*
X168359524Y-128940476D01*
X168454762Y-129035714D01*
X168502381Y-129130952D01*
X168502381Y-129321429D01*
X167930952Y-128321429D02*
X167883333Y-128416667D01*
X167835714Y-128464286D01*
X167740476Y-128511905D01*
X167692857Y-128511905D01*
X167597619Y-128464286D01*
X167550000Y-128416667D01*
X167502381Y-128321429D01*
X167502381Y-128130952D01*
X167550000Y-128035714D01*
X167597619Y-127988095D01*
X167692857Y-127940476D01*
X167740476Y-127940476D01*
X167835714Y-127988095D01*
X167883333Y-128035714D01*
X167930952Y-128130952D01*
X167930952Y-128321429D01*
X167978571Y-128416667D01*
X168026190Y-128464286D01*
X168121429Y-128511905D01*
X168311905Y-128511905D01*
X168407143Y-128464286D01*
X168454762Y-128416667D01*
X168502381Y-128321429D01*
X168502381Y-128130952D01*
X168454762Y-128035714D01*
X168407143Y-127988095D01*
X168311905Y-127940476D01*
X168121429Y-127940476D01*
X168026190Y-127988095D01*
X167978571Y-128035714D01*
X167930952Y-128130952D01*
X170483334Y-109127381D02*
X170150000Y-108651190D01*
X169911905Y-109127381D02*
X169911905Y-108127381D01*
X170292858Y-108127381D01*
X170388096Y-108175000D01*
X170435715Y-108222619D01*
X170483334Y-108317857D01*
X170483334Y-108460714D01*
X170435715Y-108555952D01*
X170388096Y-108603571D01*
X170292858Y-108651190D01*
X169911905Y-108651190D01*
X171435715Y-109127381D02*
X170864286Y-109127381D01*
X171150000Y-109127381D02*
X171150000Y-108127381D01*
X171054762Y-108270238D01*
X170959524Y-108365476D01*
X170864286Y-108413095D01*
X165033334Y-96802381D02*
X164700000Y-96326190D01*
X164461905Y-96802381D02*
X164461905Y-95802381D01*
X164842858Y-95802381D01*
X164938096Y-95850000D01*
X164985715Y-95897619D01*
X165033334Y-95992857D01*
X165033334Y-96135714D01*
X164985715Y-96230952D01*
X164938096Y-96278571D01*
X164842858Y-96326190D01*
X164461905Y-96326190D01*
X165414286Y-95897619D02*
X165461905Y-95850000D01*
X165557143Y-95802381D01*
X165795239Y-95802381D01*
X165890477Y-95850000D01*
X165938096Y-95897619D01*
X165985715Y-95992857D01*
X165985715Y-96088095D01*
X165938096Y-96230952D01*
X165366667Y-96802381D01*
X165985715Y-96802381D01*
X151958334Y-112577381D02*
X151625000Y-112101190D01*
X151386905Y-112577381D02*
X151386905Y-111577381D01*
X151767858Y-111577381D01*
X151863096Y-111625000D01*
X151910715Y-111672619D01*
X151958334Y-111767857D01*
X151958334Y-111910714D01*
X151910715Y-112005952D01*
X151863096Y-112053571D01*
X151767858Y-112101190D01*
X151386905Y-112101190D01*
X152291667Y-111577381D02*
X152910715Y-111577381D01*
X152577381Y-111958333D01*
X152720239Y-111958333D01*
X152815477Y-112005952D01*
X152863096Y-112053571D01*
X152910715Y-112148810D01*
X152910715Y-112386905D01*
X152863096Y-112482143D01*
X152815477Y-112529762D01*
X152720239Y-112577381D01*
X152434524Y-112577381D01*
X152339286Y-112529762D01*
X152291667Y-112482143D01*
X131077234Y-93252381D02*
X130743900Y-92776190D01*
X130505805Y-93252381D02*
X130505805Y-92252381D01*
X130886758Y-92252381D01*
X130981996Y-92300000D01*
X131029615Y-92347619D01*
X131077234Y-92442857D01*
X131077234Y-92585714D01*
X131029615Y-92680952D01*
X130981996Y-92728571D01*
X130886758Y-92776190D01*
X130505805Y-92776190D01*
X131934377Y-92585714D02*
X131934377Y-93252381D01*
X131696281Y-92204762D02*
X131458186Y-92919048D01*
X132077234Y-92919048D01*
X148806834Y-93086181D02*
X148473500Y-92609990D01*
X148235405Y-93086181D02*
X148235405Y-92086181D01*
X148616358Y-92086181D01*
X148711596Y-92133800D01*
X148759215Y-92181419D01*
X148806834Y-92276657D01*
X148806834Y-92419514D01*
X148759215Y-92514752D01*
X148711596Y-92562371D01*
X148616358Y-92609990D01*
X148235405Y-92609990D01*
X149711596Y-92086181D02*
X149235405Y-92086181D01*
X149187786Y-92562371D01*
X149235405Y-92514752D01*
X149330643Y-92467133D01*
X149568739Y-92467133D01*
X149663977Y-92514752D01*
X149711596Y-92562371D01*
X149759215Y-92657610D01*
X149759215Y-92895705D01*
X149711596Y-92990943D01*
X149663977Y-93038562D01*
X149568739Y-93086181D01*
X149330643Y-93086181D01*
X149235405Y-93038562D01*
X149187786Y-92990943D01*
X166483334Y-93102381D02*
X166150000Y-92626190D01*
X165911905Y-93102381D02*
X165911905Y-92102381D01*
X166292858Y-92102381D01*
X166388096Y-92150000D01*
X166435715Y-92197619D01*
X166483334Y-92292857D01*
X166483334Y-92435714D01*
X166435715Y-92530952D01*
X166388096Y-92578571D01*
X166292858Y-92626190D01*
X165911905Y-92626190D01*
X167340477Y-92102381D02*
X167150000Y-92102381D01*
X167054762Y-92150000D01*
X167007143Y-92197619D01*
X166911905Y-92340476D01*
X166864286Y-92530952D01*
X166864286Y-92911905D01*
X166911905Y-93007143D01*
X166959524Y-93054762D01*
X167054762Y-93102381D01*
X167245239Y-93102381D01*
X167340477Y-93054762D01*
X167388096Y-93007143D01*
X167435715Y-92911905D01*
X167435715Y-92673810D01*
X167388096Y-92578571D01*
X167340477Y-92530952D01*
X167245239Y-92483333D01*
X167054762Y-92483333D01*
X166959524Y-92530952D01*
X166911905Y-92578571D01*
X166864286Y-92673810D01*
X184158334Y-93077381D02*
X183825000Y-92601190D01*
X183586905Y-93077381D02*
X183586905Y-92077381D01*
X183967858Y-92077381D01*
X184063096Y-92125000D01*
X184110715Y-92172619D01*
X184158334Y-92267857D01*
X184158334Y-92410714D01*
X184110715Y-92505952D01*
X184063096Y-92553571D01*
X183967858Y-92601190D01*
X183586905Y-92601190D01*
X184491667Y-92077381D02*
X185158334Y-92077381D01*
X184729762Y-93077381D01*
X157433334Y-103977381D02*
X157100000Y-103501190D01*
X156861905Y-103977381D02*
X156861905Y-102977381D01*
X157242858Y-102977381D01*
X157338096Y-103025000D01*
X157385715Y-103072619D01*
X157433334Y-103167857D01*
X157433334Y-103310714D01*
X157385715Y-103405952D01*
X157338096Y-103453571D01*
X157242858Y-103501190D01*
X156861905Y-103501190D01*
X158004762Y-103405952D02*
X157909524Y-103358333D01*
X157861905Y-103310714D01*
X157814286Y-103215476D01*
X157814286Y-103167857D01*
X157861905Y-103072619D01*
X157909524Y-103025000D01*
X158004762Y-102977381D01*
X158195239Y-102977381D01*
X158290477Y-103025000D01*
X158338096Y-103072619D01*
X158385715Y-103167857D01*
X158385715Y-103215476D01*
X158338096Y-103310714D01*
X158290477Y-103358333D01*
X158195239Y-103405952D01*
X158004762Y-103405952D01*
X157909524Y-103453571D01*
X157861905Y-103501190D01*
X157814286Y-103596429D01*
X157814286Y-103786905D01*
X157861905Y-103882143D01*
X157909524Y-103929762D01*
X158004762Y-103977381D01*
X158195239Y-103977381D01*
X158290477Y-103929762D01*
X158338096Y-103882143D01*
X158385715Y-103786905D01*
X158385715Y-103596429D01*
X158338096Y-103501190D01*
X158290477Y-103453571D01*
X158195239Y-103405952D01*
X131058334Y-129127381D02*
X130725000Y-128651190D01*
X130486905Y-129127381D02*
X130486905Y-128127381D01*
X130867858Y-128127381D01*
X130963096Y-128175000D01*
X131010715Y-128222619D01*
X131058334Y-128317857D01*
X131058334Y-128460714D01*
X131010715Y-128555952D01*
X130963096Y-128603571D01*
X130867858Y-128651190D01*
X130486905Y-128651190D01*
X131534524Y-129127381D02*
X131725000Y-129127381D01*
X131820239Y-129079762D01*
X131867858Y-129032143D01*
X131963096Y-128889286D01*
X132010715Y-128698810D01*
X132010715Y-128317857D01*
X131963096Y-128222619D01*
X131915477Y-128175000D01*
X131820239Y-128127381D01*
X131629762Y-128127381D01*
X131534524Y-128175000D01*
X131486905Y-128222619D01*
X131439286Y-128317857D01*
X131439286Y-128555952D01*
X131486905Y-128651190D01*
X131534524Y-128698810D01*
X131629762Y-128746429D01*
X131820239Y-128746429D01*
X131915477Y-128698810D01*
X131963096Y-128651190D01*
X132010715Y-128555952D01*
X146057143Y-126552381D02*
X145723809Y-126076190D01*
X145485714Y-126552381D02*
X145485714Y-125552381D01*
X145866667Y-125552381D01*
X145961905Y-125600000D01*
X146009524Y-125647619D01*
X146057143Y-125742857D01*
X146057143Y-125885714D01*
X146009524Y-125980952D01*
X145961905Y-126028571D01*
X145866667Y-126076190D01*
X145485714Y-126076190D01*
X147009524Y-126552381D02*
X146438095Y-126552381D01*
X146723809Y-126552381D02*
X146723809Y-125552381D01*
X146628571Y-125695238D01*
X146533333Y-125790476D01*
X146438095Y-125838095D01*
X147628571Y-125552381D02*
X147723810Y-125552381D01*
X147819048Y-125600000D01*
X147866667Y-125647619D01*
X147914286Y-125742857D01*
X147961905Y-125933333D01*
X147961905Y-126171429D01*
X147914286Y-126361905D01*
X147866667Y-126457143D01*
X147819048Y-126504762D01*
X147723810Y-126552381D01*
X147628571Y-126552381D01*
X147533333Y-126504762D01*
X147485714Y-126457143D01*
X147438095Y-126361905D01*
X147390476Y-126171429D01*
X147390476Y-125933333D01*
X147438095Y-125742857D01*
X147485714Y-125647619D01*
X147533333Y-125600000D01*
X147628571Y-125552381D01*
X163682143Y-126602381D02*
X163348809Y-126126190D01*
X163110714Y-126602381D02*
X163110714Y-125602381D01*
X163491667Y-125602381D01*
X163586905Y-125650000D01*
X163634524Y-125697619D01*
X163682143Y-125792857D01*
X163682143Y-125935714D01*
X163634524Y-126030952D01*
X163586905Y-126078571D01*
X163491667Y-126126190D01*
X163110714Y-126126190D01*
X164634524Y-126602381D02*
X164063095Y-126602381D01*
X164348809Y-126602381D02*
X164348809Y-125602381D01*
X164253571Y-125745238D01*
X164158333Y-125840476D01*
X164063095Y-125888095D01*
X165586905Y-126602381D02*
X165015476Y-126602381D01*
X165301190Y-126602381D02*
X165301190Y-125602381D01*
X165205952Y-125745238D01*
X165110714Y-125840476D01*
X165015476Y-125888095D01*
X181307143Y-126627381D02*
X180973809Y-126151190D01*
X180735714Y-126627381D02*
X180735714Y-125627381D01*
X181116667Y-125627381D01*
X181211905Y-125675000D01*
X181259524Y-125722619D01*
X181307143Y-125817857D01*
X181307143Y-125960714D01*
X181259524Y-126055952D01*
X181211905Y-126103571D01*
X181116667Y-126151190D01*
X180735714Y-126151190D01*
X182259524Y-126627381D02*
X181688095Y-126627381D01*
X181973809Y-126627381D02*
X181973809Y-125627381D01*
X181878571Y-125770238D01*
X181783333Y-125865476D01*
X181688095Y-125913095D01*
X182640476Y-125722619D02*
X182688095Y-125675000D01*
X182783333Y-125627381D01*
X183021429Y-125627381D01*
X183116667Y-125675000D01*
X183164286Y-125722619D01*
X183211905Y-125817857D01*
X183211905Y-125913095D01*
X183164286Y-126055952D01*
X182592857Y-126627381D01*
X183211905Y-126627381D01*
X119507143Y-88105281D02*
X119173809Y-87629090D01*
X118935714Y-88105281D02*
X118935714Y-87105281D01*
X119316667Y-87105281D01*
X119411905Y-87152900D01*
X119459524Y-87200519D01*
X119507143Y-87295757D01*
X119507143Y-87438614D01*
X119459524Y-87533852D01*
X119411905Y-87581471D01*
X119316667Y-87629090D01*
X118935714Y-87629090D01*
X120459524Y-88105281D02*
X119888095Y-88105281D01*
X120173809Y-88105281D02*
X120173809Y-87105281D01*
X120078571Y-87248138D01*
X119983333Y-87343376D01*
X119888095Y-87390995D01*
X120792857Y-87105281D02*
X121411905Y-87105281D01*
X121078571Y-87486233D01*
X121221429Y-87486233D01*
X121316667Y-87533852D01*
X121364286Y-87581471D01*
X121411905Y-87676710D01*
X121411905Y-87914805D01*
X121364286Y-88010043D01*
X121316667Y-88057662D01*
X121221429Y-88105281D01*
X120935714Y-88105281D01*
X120840476Y-88057662D01*
X120792857Y-88010043D01*
X137282143Y-88127381D02*
X136948809Y-87651190D01*
X136710714Y-88127381D02*
X136710714Y-87127381D01*
X137091667Y-87127381D01*
X137186905Y-87175000D01*
X137234524Y-87222619D01*
X137282143Y-87317857D01*
X137282143Y-87460714D01*
X137234524Y-87555952D01*
X137186905Y-87603571D01*
X137091667Y-87651190D01*
X136710714Y-87651190D01*
X138234524Y-88127381D02*
X137663095Y-88127381D01*
X137948809Y-88127381D02*
X137948809Y-87127381D01*
X137853571Y-87270238D01*
X137758333Y-87365476D01*
X137663095Y-87413095D01*
X139091667Y-87460714D02*
X139091667Y-88127381D01*
X138853571Y-87079762D02*
X138615476Y-87794048D01*
X139234524Y-87794048D01*
X155007143Y-88077381D02*
X154673809Y-87601190D01*
X154435714Y-88077381D02*
X154435714Y-87077381D01*
X154816667Y-87077381D01*
X154911905Y-87125000D01*
X154959524Y-87172619D01*
X155007143Y-87267857D01*
X155007143Y-87410714D01*
X154959524Y-87505952D01*
X154911905Y-87553571D01*
X154816667Y-87601190D01*
X154435714Y-87601190D01*
X155959524Y-88077381D02*
X155388095Y-88077381D01*
X155673809Y-88077381D02*
X155673809Y-87077381D01*
X155578571Y-87220238D01*
X155483333Y-87315476D01*
X155388095Y-87363095D01*
X156864286Y-87077381D02*
X156388095Y-87077381D01*
X156340476Y-87553571D01*
X156388095Y-87505952D01*
X156483333Y-87458333D01*
X156721429Y-87458333D01*
X156816667Y-87505952D01*
X156864286Y-87553571D01*
X156911905Y-87648810D01*
X156911905Y-87886905D01*
X156864286Y-87982143D01*
X156816667Y-88029762D01*
X156721429Y-88077381D01*
X156483333Y-88077381D01*
X156388095Y-88029762D01*
X156340476Y-87982143D01*
X172657143Y-88127381D02*
X172323809Y-87651190D01*
X172085714Y-88127381D02*
X172085714Y-87127381D01*
X172466667Y-87127381D01*
X172561905Y-87175000D01*
X172609524Y-87222619D01*
X172657143Y-87317857D01*
X172657143Y-87460714D01*
X172609524Y-87555952D01*
X172561905Y-87603571D01*
X172466667Y-87651190D01*
X172085714Y-87651190D01*
X173609524Y-88127381D02*
X173038095Y-88127381D01*
X173323809Y-88127381D02*
X173323809Y-87127381D01*
X173228571Y-87270238D01*
X173133333Y-87365476D01*
X173038095Y-87413095D01*
X174466667Y-87127381D02*
X174276190Y-87127381D01*
X174180952Y-87175000D01*
X174133333Y-87222619D01*
X174038095Y-87365476D01*
X173990476Y-87555952D01*
X173990476Y-87936905D01*
X174038095Y-88032143D01*
X174085714Y-88079762D01*
X174180952Y-88127381D01*
X174371429Y-88127381D01*
X174466667Y-88079762D01*
X174514286Y-88032143D01*
X174561905Y-87936905D01*
X174561905Y-87698810D01*
X174514286Y-87603571D01*
X174466667Y-87555952D01*
X174371429Y-87508333D01*
X174180952Y-87508333D01*
X174085714Y-87555952D01*
X174038095Y-87603571D01*
X173990476Y-87698810D01*
X143732143Y-107227381D02*
X143398809Y-106751190D01*
X143160714Y-107227381D02*
X143160714Y-106227381D01*
X143541667Y-106227381D01*
X143636905Y-106275000D01*
X143684524Y-106322619D01*
X143732143Y-106417857D01*
X143732143Y-106560714D01*
X143684524Y-106655952D01*
X143636905Y-106703571D01*
X143541667Y-106751190D01*
X143160714Y-106751190D01*
X144684524Y-107227381D02*
X144113095Y-107227381D01*
X144398809Y-107227381D02*
X144398809Y-106227381D01*
X144303571Y-106370238D01*
X144208333Y-106465476D01*
X144113095Y-106513095D01*
X145017857Y-106227381D02*
X145684524Y-106227381D01*
X145255952Y-107227381D01*
X143757143Y-108827381D02*
X143423809Y-108351190D01*
X143185714Y-108827381D02*
X143185714Y-107827381D01*
X143566667Y-107827381D01*
X143661905Y-107875000D01*
X143709524Y-107922619D01*
X143757143Y-108017857D01*
X143757143Y-108160714D01*
X143709524Y-108255952D01*
X143661905Y-108303571D01*
X143566667Y-108351190D01*
X143185714Y-108351190D01*
X144709524Y-108827381D02*
X144138095Y-108827381D01*
X144423809Y-108827381D02*
X144423809Y-107827381D01*
X144328571Y-107970238D01*
X144233333Y-108065476D01*
X144138095Y-108113095D01*
X145280952Y-108255952D02*
X145185714Y-108208333D01*
X145138095Y-108160714D01*
X145090476Y-108065476D01*
X145090476Y-108017857D01*
X145138095Y-107922619D01*
X145185714Y-107875000D01*
X145280952Y-107827381D01*
X145471429Y-107827381D01*
X145566667Y-107875000D01*
X145614286Y-107922619D01*
X145661905Y-108017857D01*
X145661905Y-108065476D01*
X145614286Y-108160714D01*
X145566667Y-108208333D01*
X145471429Y-108255952D01*
X145280952Y-108255952D01*
X145185714Y-108303571D01*
X145138095Y-108351190D01*
X145090476Y-108446429D01*
X145090476Y-108636905D01*
X145138095Y-108732143D01*
X145185714Y-108779762D01*
X145280952Y-108827381D01*
X145471429Y-108827381D01*
X145566667Y-108779762D01*
X145614286Y-108732143D01*
X145661905Y-108636905D01*
X145661905Y-108446429D01*
X145614286Y-108351190D01*
X145566667Y-108303571D01*
X145471429Y-108255952D01*
X143782143Y-110402381D02*
X143448809Y-109926190D01*
X143210714Y-110402381D02*
X143210714Y-109402381D01*
X143591667Y-109402381D01*
X143686905Y-109450000D01*
X143734524Y-109497619D01*
X143782143Y-109592857D01*
X143782143Y-109735714D01*
X143734524Y-109830952D01*
X143686905Y-109878571D01*
X143591667Y-109926190D01*
X143210714Y-109926190D01*
X144734524Y-110402381D02*
X144163095Y-110402381D01*
X144448809Y-110402381D02*
X144448809Y-109402381D01*
X144353571Y-109545238D01*
X144258333Y-109640476D01*
X144163095Y-109688095D01*
X145210714Y-110402381D02*
X145401190Y-110402381D01*
X145496429Y-110354762D01*
X145544048Y-110307143D01*
X145639286Y-110164286D01*
X145686905Y-109973810D01*
X145686905Y-109592857D01*
X145639286Y-109497619D01*
X145591667Y-109450000D01*
X145496429Y-109402381D01*
X145305952Y-109402381D01*
X145210714Y-109450000D01*
X145163095Y-109497619D01*
X145115476Y-109592857D01*
X145115476Y-109830952D01*
X145163095Y-109926190D01*
X145210714Y-109973810D01*
X145305952Y-110021429D01*
X145496429Y-110021429D01*
X145591667Y-109973810D01*
X145639286Y-109926190D01*
X145686905Y-109830952D01*
X143757143Y-112002381D02*
X143423809Y-111526190D01*
X143185714Y-112002381D02*
X143185714Y-111002381D01*
X143566667Y-111002381D01*
X143661905Y-111050000D01*
X143709524Y-111097619D01*
X143757143Y-111192857D01*
X143757143Y-111335714D01*
X143709524Y-111430952D01*
X143661905Y-111478571D01*
X143566667Y-111526190D01*
X143185714Y-111526190D01*
X144138095Y-111097619D02*
X144185714Y-111050000D01*
X144280952Y-111002381D01*
X144519048Y-111002381D01*
X144614286Y-111050000D01*
X144661905Y-111097619D01*
X144709524Y-111192857D01*
X144709524Y-111288095D01*
X144661905Y-111430952D01*
X144090476Y-112002381D01*
X144709524Y-112002381D01*
X145328571Y-111002381D02*
X145423810Y-111002381D01*
X145519048Y-111050000D01*
X145566667Y-111097619D01*
X145614286Y-111192857D01*
X145661905Y-111383333D01*
X145661905Y-111621429D01*
X145614286Y-111811905D01*
X145566667Y-111907143D01*
X145519048Y-111954762D01*
X145423810Y-112002381D01*
X145328571Y-112002381D01*
X145233333Y-111954762D01*
X145185714Y-111907143D01*
X145138095Y-111811905D01*
X145090476Y-111621429D01*
X145090476Y-111383333D01*
X145138095Y-111192857D01*
X145185714Y-111097619D01*
X145233333Y-111050000D01*
X145328571Y-111002381D01*
X119507143Y-134277381D02*
X119173809Y-133801190D01*
X118935714Y-134277381D02*
X118935714Y-133277381D01*
X119316667Y-133277381D01*
X119411905Y-133325000D01*
X119459524Y-133372619D01*
X119507143Y-133467857D01*
X119507143Y-133610714D01*
X119459524Y-133705952D01*
X119411905Y-133753571D01*
X119316667Y-133801190D01*
X118935714Y-133801190D01*
X119888095Y-133372619D02*
X119935714Y-133325000D01*
X120030952Y-133277381D01*
X120269048Y-133277381D01*
X120364286Y-133325000D01*
X120411905Y-133372619D01*
X120459524Y-133467857D01*
X120459524Y-133563095D01*
X120411905Y-133705952D01*
X119840476Y-134277381D01*
X120459524Y-134277381D01*
X121411905Y-134277381D02*
X120840476Y-134277381D01*
X121126190Y-134277381D02*
X121126190Y-133277381D01*
X121030952Y-133420238D01*
X120935714Y-133515476D01*
X120840476Y-133563095D01*
X137232143Y-134227381D02*
X136898809Y-133751190D01*
X136660714Y-134227381D02*
X136660714Y-133227381D01*
X137041667Y-133227381D01*
X137136905Y-133275000D01*
X137184524Y-133322619D01*
X137232143Y-133417857D01*
X137232143Y-133560714D01*
X137184524Y-133655952D01*
X137136905Y-133703571D01*
X137041667Y-133751190D01*
X136660714Y-133751190D01*
X137613095Y-133322619D02*
X137660714Y-133275000D01*
X137755952Y-133227381D01*
X137994048Y-133227381D01*
X138089286Y-133275000D01*
X138136905Y-133322619D01*
X138184524Y-133417857D01*
X138184524Y-133513095D01*
X138136905Y-133655952D01*
X137565476Y-134227381D01*
X138184524Y-134227381D01*
X138565476Y-133322619D02*
X138613095Y-133275000D01*
X138708333Y-133227381D01*
X138946429Y-133227381D01*
X139041667Y-133275000D01*
X139089286Y-133322619D01*
X139136905Y-133417857D01*
X139136905Y-133513095D01*
X139089286Y-133655952D01*
X138517857Y-134227381D01*
X139136905Y-134227381D01*
X154882143Y-134627381D02*
X154548809Y-134151190D01*
X154310714Y-134627381D02*
X154310714Y-133627381D01*
X154691667Y-133627381D01*
X154786905Y-133675000D01*
X154834524Y-133722619D01*
X154882143Y-133817857D01*
X154882143Y-133960714D01*
X154834524Y-134055952D01*
X154786905Y-134103571D01*
X154691667Y-134151190D01*
X154310714Y-134151190D01*
X155263095Y-133722619D02*
X155310714Y-133675000D01*
X155405952Y-133627381D01*
X155644048Y-133627381D01*
X155739286Y-133675000D01*
X155786905Y-133722619D01*
X155834524Y-133817857D01*
X155834524Y-133913095D01*
X155786905Y-134055952D01*
X155215476Y-134627381D01*
X155834524Y-134627381D01*
X156167857Y-133627381D02*
X156786905Y-133627381D01*
X156453571Y-134008333D01*
X156596429Y-134008333D01*
X156691667Y-134055952D01*
X156739286Y-134103571D01*
X156786905Y-134198810D01*
X156786905Y-134436905D01*
X156739286Y-134532143D01*
X156691667Y-134579762D01*
X156596429Y-134627381D01*
X156310714Y-134627381D01*
X156215476Y-134579762D01*
X156167857Y-134532143D01*
X172507143Y-134277381D02*
X172173809Y-133801190D01*
X171935714Y-134277381D02*
X171935714Y-133277381D01*
X172316667Y-133277381D01*
X172411905Y-133325000D01*
X172459524Y-133372619D01*
X172507143Y-133467857D01*
X172507143Y-133610714D01*
X172459524Y-133705952D01*
X172411905Y-133753571D01*
X172316667Y-133801190D01*
X171935714Y-133801190D01*
X172888095Y-133372619D02*
X172935714Y-133325000D01*
X173030952Y-133277381D01*
X173269048Y-133277381D01*
X173364286Y-133325000D01*
X173411905Y-133372619D01*
X173459524Y-133467857D01*
X173459524Y-133563095D01*
X173411905Y-133705952D01*
X172840476Y-134277381D01*
X173459524Y-134277381D01*
X174316667Y-133610714D02*
X174316667Y-134277381D01*
X174078571Y-133229762D02*
X173840476Y-133944048D01*
X174459524Y-133944048D01*
X168032143Y-115877381D02*
X167698809Y-115401190D01*
X167460714Y-115877381D02*
X167460714Y-114877381D01*
X167841667Y-114877381D01*
X167936905Y-114925000D01*
X167984524Y-114972619D01*
X168032143Y-115067857D01*
X168032143Y-115210714D01*
X167984524Y-115305952D01*
X167936905Y-115353571D01*
X167841667Y-115401190D01*
X167460714Y-115401190D01*
X168413095Y-114972619D02*
X168460714Y-114925000D01*
X168555952Y-114877381D01*
X168794048Y-114877381D01*
X168889286Y-114925000D01*
X168936905Y-114972619D01*
X168984524Y-115067857D01*
X168984524Y-115163095D01*
X168936905Y-115305952D01*
X168365476Y-115877381D01*
X168984524Y-115877381D01*
X169889286Y-114877381D02*
X169413095Y-114877381D01*
X169365476Y-115353571D01*
X169413095Y-115305952D01*
X169508333Y-115258333D01*
X169746429Y-115258333D01*
X169841667Y-115305952D01*
X169889286Y-115353571D01*
X169936905Y-115448810D01*
X169936905Y-115686905D01*
X169889286Y-115782143D01*
X169841667Y-115829762D01*
X169746429Y-115877381D01*
X169508333Y-115877381D01*
X169413095Y-115829762D01*
X169365476Y-115782143D01*
X168032143Y-114277381D02*
X167698809Y-113801190D01*
X167460714Y-114277381D02*
X167460714Y-113277381D01*
X167841667Y-113277381D01*
X167936905Y-113325000D01*
X167984524Y-113372619D01*
X168032143Y-113467857D01*
X168032143Y-113610714D01*
X167984524Y-113705952D01*
X167936905Y-113753571D01*
X167841667Y-113801190D01*
X167460714Y-113801190D01*
X168413095Y-113372619D02*
X168460714Y-113325000D01*
X168555952Y-113277381D01*
X168794048Y-113277381D01*
X168889286Y-113325000D01*
X168936905Y-113372619D01*
X168984524Y-113467857D01*
X168984524Y-113563095D01*
X168936905Y-113705952D01*
X168365476Y-114277381D01*
X168984524Y-114277381D01*
X169841667Y-113277381D02*
X169651190Y-113277381D01*
X169555952Y-113325000D01*
X169508333Y-113372619D01*
X169413095Y-113515476D01*
X169365476Y-113705952D01*
X169365476Y-114086905D01*
X169413095Y-114182143D01*
X169460714Y-114229762D01*
X169555952Y-114277381D01*
X169746429Y-114277381D01*
X169841667Y-114229762D01*
X169889286Y-114182143D01*
X169936905Y-114086905D01*
X169936905Y-113848810D01*
X169889286Y-113753571D01*
X169841667Y-113705952D01*
X169746429Y-113658333D01*
X169555952Y-113658333D01*
X169460714Y-113705952D01*
X169413095Y-113753571D01*
X169365476Y-113848810D01*
X167982143Y-112677381D02*
X167648809Y-112201190D01*
X167410714Y-112677381D02*
X167410714Y-111677381D01*
X167791667Y-111677381D01*
X167886905Y-111725000D01*
X167934524Y-111772619D01*
X167982143Y-111867857D01*
X167982143Y-112010714D01*
X167934524Y-112105952D01*
X167886905Y-112153571D01*
X167791667Y-112201190D01*
X167410714Y-112201190D01*
X168363095Y-111772619D02*
X168410714Y-111725000D01*
X168505952Y-111677381D01*
X168744048Y-111677381D01*
X168839286Y-111725000D01*
X168886905Y-111772619D01*
X168934524Y-111867857D01*
X168934524Y-111963095D01*
X168886905Y-112105952D01*
X168315476Y-112677381D01*
X168934524Y-112677381D01*
X169267857Y-111677381D02*
X169934524Y-111677381D01*
X169505952Y-112677381D01*
X168032143Y-111077381D02*
X167698809Y-110601190D01*
X167460714Y-111077381D02*
X167460714Y-110077381D01*
X167841667Y-110077381D01*
X167936905Y-110125000D01*
X167984524Y-110172619D01*
X168032143Y-110267857D01*
X168032143Y-110410714D01*
X167984524Y-110505952D01*
X167936905Y-110553571D01*
X167841667Y-110601190D01*
X167460714Y-110601190D01*
X168413095Y-110172619D02*
X168460714Y-110125000D01*
X168555952Y-110077381D01*
X168794048Y-110077381D01*
X168889286Y-110125000D01*
X168936905Y-110172619D01*
X168984524Y-110267857D01*
X168984524Y-110363095D01*
X168936905Y-110505952D01*
X168365476Y-111077381D01*
X168984524Y-111077381D01*
X169555952Y-110505952D02*
X169460714Y-110458333D01*
X169413095Y-110410714D01*
X169365476Y-110315476D01*
X169365476Y-110267857D01*
X169413095Y-110172619D01*
X169460714Y-110125000D01*
X169555952Y-110077381D01*
X169746429Y-110077381D01*
X169841667Y-110125000D01*
X169889286Y-110172619D01*
X169936905Y-110267857D01*
X169936905Y-110315476D01*
X169889286Y-110410714D01*
X169841667Y-110458333D01*
X169746429Y-110505952D01*
X169555952Y-110505952D01*
X169460714Y-110553571D01*
X169413095Y-110601190D01*
X169365476Y-110696429D01*
X169365476Y-110886905D01*
X169413095Y-110982143D01*
X169460714Y-111029762D01*
X169555952Y-111077381D01*
X169746429Y-111077381D01*
X169841667Y-111029762D01*
X169889286Y-110982143D01*
X169936905Y-110886905D01*
X169936905Y-110696429D01*
X169889286Y-110601190D01*
X169841667Y-110553571D01*
X169746429Y-110505952D01*
X188688095Y-110427381D02*
X188688095Y-111236905D01*
X188735714Y-111332143D01*
X188783333Y-111379762D01*
X188878571Y-111427381D01*
X189069048Y-111427381D01*
X189164286Y-111379762D01*
X189211905Y-111332143D01*
X189259524Y-111236905D01*
X189259524Y-110427381D01*
X190259524Y-111427381D02*
X189688095Y-111427381D01*
X189973809Y-111427381D02*
X189973809Y-110427381D01*
X189878571Y-110570238D01*
X189783333Y-110665476D01*
X189688095Y-110713095D01*
X165752381Y-105536905D02*
X166561905Y-105536905D01*
X166657143Y-105489286D01*
X166704762Y-105441667D01*
X166752381Y-105346429D01*
X166752381Y-105155952D01*
X166704762Y-105060714D01*
X166657143Y-105013095D01*
X166561905Y-104965476D01*
X165752381Y-104965476D01*
X165847619Y-104536905D02*
X165800000Y-104489286D01*
X165752381Y-104394048D01*
X165752381Y-104155952D01*
X165800000Y-104060714D01*
X165847619Y-104013095D01*
X165942857Y-103965476D01*
X166038095Y-103965476D01*
X166180952Y-104013095D01*
X166752381Y-104584524D01*
X166752381Y-103965476D01*
X168573809Y-101451190D02*
X168573809Y-101927381D01*
X168240476Y-100927381D02*
X168573809Y-101451190D01*
X168907143Y-100927381D01*
X169764286Y-101927381D02*
X169192857Y-101927381D01*
X169478571Y-101927381D02*
X169478571Y-100927381D01*
X169383333Y-101070238D01*
X169288095Y-101165476D01*
X169192857Y-101213095D01*
M02*
